<?xml version="1.0" standalone="no"?><!DOCTYPE svg PUBLIC "-//W3C//DTD SVG 1.1//EN" "http://www.w3.org/Graphics/SVG/1.1/DTD/svg11.dtd"><svg xmlns:xlink="http://www.w3.org/1999/xlink" xmlns="http://www.w3.org/2000/svg" version="1.1" width="200" height="200" viewBox="0 0 200 200"><defs><style type="text/css"><![CDATA[
@font-face {
  font-family: "ifont";
  src: url("//at.alicdn.com/t/font_1442373896_4754455.eot?#iefix") format("embedded-opentype"), url("//at.alicdn.com/t/font_1442373896_4754455.woff") format("woff"), url("//at.alicdn.com/t/font_1442373896_4754455.ttf") format("truetype"), url("//at.alicdn.com/t/font_1442373896_4754455.svg#ifont") format("svg");
}

]]></style></defs><g class="transform-group"><g transform="scale(0.1953125, 0.1953125)"><path d="M339.033112 890.864794c-4.975315 0-9.951653-1.898233-13.748119-5.694699L137.504212 697.390337c-3.64604-3.64604-5.694699-8.591679-5.694699-13.748119s2.048659-10.102079 5.694699-13.748119L702.740694 104.658641c12.404518-12.405541 29.299303-19.519566 46.351678-19.519566 16.012695 0 30.91408 6.081509 41.958624 17.125029l129.359206 129.36023c11.680017 11.68104 17.745153 27.457352 17.076934 44.423769-0.645706 16.390295-7.560186 31.975249-19.47147 43.886533L352.78123 885.170095C348.984764 888.966561 344.008426 890.864794 339.033112 890.864794zM178.748568 683.643242l160.28352 160.28352 551.488363-551.488363c4.971222-4.971222 7.852852-11.335163 8.111748-17.919115 0.23536-6.005784-1.794879-11.474332-5.719258-15.398712L763.554758 129.761366c-3.698229-3.699252-8.836249-5.736655-14.462387-5.736655-6.816243 0-13.688767 2.963495-18.856463 8.130168L178.748568 683.643242zM114.369306 927.728376c-9.353019 0-17.59882-6.767124-19.163455-16.298198-1.738597-10.595312 5.441942-20.595061 16.038278-22.333658l224.64027-36.860513c10.604522-1.736551 20.596084 5.440919 22.334681 16.038278 1.738597 10.595312-5.441942 20.595061-16.038278 22.333658L117.540532 927.468456C116.47527 927.643442 115.415125 927.728376 114.369306 927.728376zM114.369306 927.728376c-9.353019 0-17.59882-6.767124-19.163455-16.298198-1.738597-10.595312 5.441942-20.595061 16.038278-22.333658l224.64027-36.860513c10.604522-1.736551 20.596084 5.440919 22.334681 16.038278 1.738597 10.595312-5.441942 20.595061-16.038278 22.333658L117.540532 927.468456C116.47527 927.643442 115.415125 927.728376 114.369306 927.728376zM114.416378 927.728376c-1.045819 0-2.104941-0.084934-3.172249-0.25992-10.596336-1.738597-17.776875-11.738345-16.038278-22.333658l36.860513-224.639247c1.738597-10.596336 11.737322-17.775852 22.334681-16.038278 10.596336 1.738597 17.776875 11.738345 16.038278 22.333658l-36.860513 224.639247C132.015198 920.961252 123.768373 927.728376 114.416378 927.728376zM114.416378 927.728376c-1.045819 0-2.104941-0.084934-3.172249-0.25992-10.596336-1.738597-17.776875-11.738345-16.038278-22.333658l36.860513-224.639247c1.738597-10.596336 11.737322-17.775852 22.334681-16.038278 10.596336 1.738597 17.776875 11.738345 16.038278 22.333658l-36.860513 224.639247C132.015198 920.961252 123.768373 927.728376 114.416378 927.728376zM827.181891 402.714991c-4.976338 0-9.951653-1.89721-13.749142-5.694699L625.654015 209.240535c-7.592932-7.592932-7.592932-19.903306 0.001023-27.496238 7.591909-7.591909 19.902282-7.592932 27.496238 0l187.778734 187.779757c7.592932 7.592932 7.592932 19.903306-0.001023 27.496238C837.133543 400.816758 832.157205 402.714991 827.181891 402.714991zM663.284053 875.147834c-4.975315 0-9.951653-1.898233-13.748119-5.694699-7.593955-7.592932-7.593955-19.902282 0-27.495214L752.809019 738.684836c7.592932-7.592932 19.902282-7.592932 27.495214 0s7.592932 19.902282 0 27.495214L677.031149 869.453135C673.234683 873.249601 668.259368 875.147834 663.284053 875.147834zM593.39224 805.25602c-4.976338 0-9.951653-1.89721-13.749142-5.694699-7.592932-7.592932-7.591909-19.903306 0.001023-27.496238l103.274108-103.273085c7.591909-7.590885 19.902282-7.591909 27.496238 0.001023 7.592932 7.592932 7.591909 19.903306-0.001023 27.496238L607.139336 799.562345C603.344916 803.357787 598.367555 805.25602 593.39224 805.25602zM757.169327 951.921381c-16.22759 0-31.485085-6.319939-42.958394-17.795295L495.269455 715.185632c-7.592932-7.592932-7.592932-19.902282 0-27.495214l194.029088-194.029088c3.64604-3.64604 8.591679-5.694699 13.748119-5.694699s10.102079 2.048659 13.749142 5.694699L935.736259 712.602807c11.474332 11.473309 17.794271 26.729781 17.794271 42.957371 0 16.226566-6.319939 31.484062-17.795295 42.957371l-135.608537 135.608537C788.652366 945.602466 773.395894 951.921381 757.169327 951.921381zM536.513812 701.437513 741.706147 906.631896c4.131087 4.130064 9.621125 6.404873 15.462157 6.404873 5.840008 0 11.33107-2.27481 15.461133-6.404873l135.609561-135.608537c4.130064-4.131087 6.404873-9.622148 6.404873-15.462157 0-5.841032-2.27481-11.33107-6.404873-15.461133L703.045639 534.905686 536.513812 701.437513zM166.970314 378.834094c-4.975315 0-9.951653-1.898233-13.748119-5.694699-7.592932-7.592932-7.592932-19.903306 0-27.496238L256.49528 242.370073c7.592932-7.592932 19.903306-7.592932 27.496238 0s7.592932 19.903306 0 27.496238L180.718433 373.139395C176.921967 376.935861 171.945629 378.834094 166.970314 378.834094zM236.862127 448.725908c-4.975315 0-9.951653-1.898233-13.748119-5.694699-7.592932-7.592932-7.592932-19.903306 0-27.496238L326.387094 312.260863c7.592932-7.592932 19.903306-7.592932 27.496238 0s7.592932 19.903306 0 27.496238L250.610246 443.031209C246.81378 446.827675 241.837442 448.725908 236.862127 448.725908zM321.236793 533.101597c-5.15644 0-10.102079-2.048659-13.748119-5.694699L88.546174 308.463374c-11.474332-11.474332-17.793248-26.730805-17.793248-42.957371 0-16.22759 6.318916-31.484062 17.793248-42.958394l135.609561-135.608537c11.473309-11.473309 26.730805-17.793248 42.957371-17.793248 0.001023 0 0 0 0 0 16.22759 0 31.484062 6.318916 42.958394 17.793248l218.941478 218.942501c7.592932 7.592932 7.592932 19.903306 0 27.496238l-194.028065 194.029088C331.338872 531.052938 326.393233 533.101597 321.236793 533.101597zM267.114129 108.031459c-5.841032 0-11.332093 2.27481-15.461133 6.40385l-135.609561 135.608537c-4.130064 4.130064-6.404873 9.621125-6.40385 15.462157 0 5.841032 2.27481 11.332093 6.40385 15.461133l205.194382 205.195406 166.532851-166.532851L282.576285 114.435309C278.446221 110.305245 272.95516 108.031459 267.114129 108.031459z" fill="#333"></path></g></g></svg>