<?xml version="1.0" standalone="no"?><!DOCTYPE svg PUBLIC "-//W3C//DTD SVG 1.1//EN" "http://www.w3.org/Graphics/SVG/1.1/DTD/svg11.dtd"><svg xmlns:xlink="http://www.w3.org/1999/xlink" xmlns="http://www.w3.org/2000/svg" version="1.1" width="200" height="200" viewBox="0 0 200 200"><defs><style type="text/css"><![CDATA[
@font-face {
  font-family: "ifont";
  src: url("//at.alicdn.com/t/font_1442373896_4754455.eot?#iefix") format("embedded-opentype"), url("//at.alicdn.com/t/font_1442373896_4754455.woff") format("woff"), url("//at.alicdn.com/t/font_1442373896_4754455.ttf") format("truetype"), url("//at.alicdn.com/t/font_1442373896_4754455.svg#ifont") format("svg");
}

]]></style></defs><g class="transform-group"><g transform="scale(0.1953125, 0.1953125)"><path d="M524.902356 118.916367c-202.801892 0-367.206266 164.405397-367.206266 367.207289 0 202.807009 164.404374 367.212406 367.206266 367.212406 202.807009 0 367.212406-164.404374 367.212406-367.212406C892.113739 283.320741 727.705272 118.916367 524.902356 118.916367zM758.496555 719.713762c-30.351262 30.351262-65.683978 54.17383-105.016799 70.811766-40.704051 17.21508-83.963297 25.944905-128.576377 25.944905-44.61308 0-87.86721-8.729825-128.572284-25.944905-39.333844-16.637935-74.66656-40.460504-105.016799-70.811766-30.351262-30.347169-54.174853-65.680908-70.811766-105.012705-17.216103-40.704051-25.945929-83.963297-25.945929-128.577401 0-44.614104 8.729825-87.872327 25.945929-128.572284 16.636912-39.333844 40.460504-74.665537 70.811766-105.016799 30.350239-30.352285 65.683978-54.175877 105.016799-70.812789 40.698934-17.216103 83.959204-25.945929 128.572284-25.945929 44.615127 0 87.872327 8.729825 128.576377 25.945929 39.333844 16.636912 74.665537 40.460504 105.016799 70.812789 30.347169 30.351262 54.17383 65.683978 70.807672 105.016799 17.21508 40.698934 25.944905 83.95818 25.944905 128.572284 0 44.615127-8.729825 87.87335-25.944905 128.577401C812.671409 654.033877 788.843724 689.36557 758.496555 719.713762zM714.557834 355.002316l-1.769296-15.929808L696.759469 339.072509c-4.555759 0-8.755408 0.393973-12.4608 0.74292-4.559852 0.428765-8.497535 0.798179-12.168134 0.38988l-0.964978-0.080841c-26.643823-1.508353-52.438303-7.401574-74.594929-17.044188-18.805298-8.184403-34.521235-18.796088-46.958498-31.615045-0.038886 0.002047-0.078795 0.001023-0.11768 0.00614l-0.01228 0.001023c-0.338714 0.030699-0.675382 0.020466-1.01205 0-0.800225 0.002047-1.598404 0.001023-2.396583-0.014326-0.095167 0.004093-0.187265 0.014326-0.284479 0.014326-0.030699 0-0.060375-0.004093-0.090051-0.004093-0.065492 0.007163-0.130983 0.01535-0.197498 0.020466-0.691755 0.052189-1.38351 0.031722-2.072195-0.013303-0.321318 0.002047-0.64366-0.001023-0.964978-0.00307-0.013303 0-0.025583-0.00307-0.037862-0.004093-0.01535 0-0.027629 0.004093-0.041956 0.004093-0.230244-0.001023-0.459464-0.01228-0.690732-0.019443-0.568958 0.041956-1.13587 0.01842-1.706875-0.005117-0.564865 0.010233-1.12973 0.022513-1.695618 0.024559-0.025583 0-0.051165-0.007163-0.077771-0.008186-0.213871 0.011256-0.427742 0.021489-0.641613 0.039909-0.315178 0.027629-0.62217 0.01228-0.923022-0.032746-0.321318-0.001023-0.64366-0.00307-0.964978-0.005117-0.122797 0.00921-0.240477 0.037862-0.36532 0.037862l-0.031722 0c-0.13917 0-0.270153-0.030699-0.405229-0.041956-0.134053-0.001023-0.268106-0.001023-0.403183-0.002047-0.052189-0.001023-0.105401 0-0.156566-0.001023-0.086981 0-0.173962-0.001023-0.25992-0.001023-0.427742 0.025583-0.855484 0.042979-1.285273 0.046049-0.025583 0-0.051165-0.00614-0.075725-0.007163-0.214894 0.005117-0.428765 0.010233-0.64366-0.008186-0.037862-0.00307-0.074701-0.00921-0.112564-0.01228-0.606821 0.016373-1.214664 0.033769-1.821485-0.00307-0.017396-0.001023-0.031722-0.005117-0.049119-0.00614-0.084934 0.004093-0.167822 0.022513-0.254803 0.021489-0.704035-0.00921-1.407046 0.037862-2.110057-0.016373-0.033769-0.002047-0.065492-0.007163-0.099261-0.010233-0.047072 0.00307-0.093121 0.010233-0.141216 0.010233-0.25071 0-0.499373-0.011256-0.74906-0.014326-0.423649 0.00307-0.846274 0.00921-1.2689 0.010233-0.601704 0.042979-1.215688 0.034792-1.799996-0.002047-0.656963 0.023536-1.310855 0.047072-1.969864-0.00921-0.021489-0.002047-0.044002-0.008186-0.065492-0.011256-0.031722 0.002047-0.062422 0.010233-0.094144 0.011256-0.353041 0.007163-0.704035 0.052189-1.057075 0.059352-0.285502 0.005117-0.569982-0.024559-0.852414-0.056282-0.376577 0.01842-0.753153 0.021489-1.128707 0.013303-0.048095-0.001023-0.093121-0.010233-0.140193-0.016373-0.019443 0-0.036839-0.002047-0.057305-0.00307-0.078795 0.005117-0.151449 0.019443-0.234337 0.019443-0.074701 0-0.145309-0.00614-0.216941-0.010233-0.071631 0.002047-0.141216 0.010233-0.214894 0.010233-0.052189 0-0.100284-0.00614-0.150426-0.007163-0.039909 0.00307-0.078795 0.007163-0.12075 0.007163-0.088004 0-0.170892-0.00921-0.25685-0.01228-0.069585 0.002047-0.135076 0.01228-0.206708 0.01228-0.023536 0-0.046049-0.00307-0.068562-0.004093-0.030699 0-0.060375 0.004093-0.091074 0.004093-0.070608 0-0.138146-0.008186-0.206708-0.010233-0.068562 0.004093-0.137123 0.010233-0.208754 0.010233-0.059352 0-0.11154-0.00921-0.169869-0.010233-0.071631 0.002047-0.140193 0.010233-0.213871 0.010233-0.089028 0-0.171915-0.00921-0.258896-0.013303-0.090051 0.004093-0.176009 0.013303-0.26913 0.013303-0.069585 0-0.12996-0.014326-0.197498-0.017396-0.11461 0.00614-0.227174 0.017396-0.345877 0.017396-0.075725 0-0.145309-0.011256-0.218988-0.014326-0.098237 0.005117-0.192382 0.014326-0.292666 0.014326-0.082888 0-0.159636-0.007163-0.239454-0.01228-0.080841 0.00307-0.156566 0.01228-0.239454 0.01228-0.054235 0-0.103354-0.00614-0.156566-0.007163-0.027629 0.002047-0.054235 0.007163-0.082888 0.007163-0.040932 0-0.076748-0.004093-0.11461-0.007163-0.054235 0.001023-0.103354 0.007163-0.156566 0.007163-0.068562 0-0.13303-0.007163-0.200568-0.010233-0.065492 0.004093-0.12996 0.010233-0.198521 0.010233-0.035816 0-0.068562-0.004093-0.105401-0.005117-0.033769 0-0.067538 0.005117-0.103354 0.005117-0.106424 0-0.207731-0.010233-0.311085-0.01535-0.076748 0.00614-0.151449 0.01535-0.232291 0.01535-0.107447 0-0.208754-0.00921-0.312108-0.01535-0.103354 0.005117-0.204661 0.01535-0.311085 0.01535-0.089028 0-0.171915-0.00921-0.257873-0.01228-0.084934 0.004093-0.166799 0.01228-0.25378 0.01228-0.097214 0-0.188288-0.008186-0.280386-0.013303-0.093121 0.004093-0.183172 0.013303-0.278339 0.013303-0.035816 0-0.068562-0.004093-0.105401-0.005117-0.01842 0.001023-0.035816 0.005117-0.055259 0.005117-0.107447 0-0.207731-0.010233-0.312108-0.01535-0.12075 0.008186-0.233314 0.030699-0.360204 0.030699-0.078795 0-0.152473-0.008186-0.229221-0.011256-0.042979 0.001023-0.078795 0.011256-0.122797 0.011256-0.11768 0-0.229221-0.010233-0.342808-0.017396-0.00307 0-0.00614 0.001023-0.00921 0.001023-0.021489 0-0.042979-0.001023-0.064468-0.00307-0.021489 0-0.041956 0.00307-0.063445 0.00307-0.023536 0-0.045025-0.00307-0.067538-0.00307-0.014326 0.002047-0.028653 0.00307-0.044002 0.00307-0.021489 0-0.039909-0.00307-0.060375-0.00307-0.107447 0.007163-0.211824 0.019443-0.323365 0.019443-0.078795 0-0.153496-0.007163-0.228197-0.013303-0.089028 0.004093-0.174985 0.013303-0.267083 0.013303-0.032746 0-0.063445-0.004093-0.095167-0.004093-0.032746 0.001023-0.063445 0.004093-0.096191 0.004093-0.063445 0-0.122797-0.005117-0.183172-0.00921-0.062422 0.002047-0.121773 0.00921-0.185218 0.00921-0.058328 0-0.11154-0.007163-0.169869-0.008186-0.055259 0.00307-0.10847 0.008186-0.166799 0.008186-0.032746 0-0.063445-0.004093-0.096191-0.004093-0.032746 0-0.063445 0.004093-0.096191 0.004093-0.065492 0-0.127913-0.00614-0.192382-0.00921-0.064468 0.002047-0.125867 0.00921-0.192382 0.00921-0.078795 0-0.151449-0.008186-0.229221-0.011256-0.134053 0.01228-0.268106 0.026606-0.410346 0.026606-0.221034 0-0.433882-0.013303-0.639566-0.035816-0.130983 0.010233-0.261966 0.019443-0.400113 0.019443-0.141216 0-0.276293-0.010233-0.410346-0.020466-0.028653 0-0.056282 0.004093-0.084934 0.004093s-0.058328-0.002047-0.085958-0.004093c-0.030699 0-0.058328 0.004093-0.089028 0.004093-0.00307 0-0.005117 0-0.008186 0-0.00307 0-0.005117 0-0.008186 0-0.011256 0-0.021489-0.001023-0.032746-0.001023-0.010233 0-0.020466 0.001023-0.030699 0.001023-0.023536 0-0.046049-0.00307-0.070608-0.00307-0.128937 0.00921-0.257873 0.019443-0.393973 0.019443-0.051165 0-0.098237-0.00614-0.148379-0.007163-0.186242 0.017396-0.378623 0.027629-0.576121 0.027629-0.177032 0-0.346901-0.011256-0.5137-0.024559-0.13303 0.010233-0.26299 0.024559-0.403183 0.024559-0.150426 0-0.294712-0.011256-0.438998-0.021489-0.00307 0-0.00614 0-0.00921 0-0.110517 0-0.214894-0.010233-0.321318-0.016373-0.105401 0.007163-0.208754 0.016373-0.318248 0.016373-0.053212 0-0.103354-0.00614-0.155543-0.007163-0.026606 0.001023-0.050142 0.007163-0.078795 0.007163-0.102331 0-0.198521-0.010233-0.297782-0.016373-0.106424 0.00614-0.210801 0.016373-0.320295 0.016373-0.072655 0-0.143263-0.00614-0.212848-0.010233-0.071631 0.002047-0.140193 0.010233-0.212848 0.010233-0.024559 0-0.046049-0.00307-0.070608-0.00307-0.019443 0.001023-0.037862 0.00307-0.057305 0.00307-0.101307 0-0.195451-0.00921-0.293689-0.014326-15.476483 15.443737-35.062564 27.739784-57.529251 35.939537-27.096125 9.890254-57.133232 13.594623-86.87051 10.719132l-17.898649-1.732457-1.657756 17.905812c-5.065366 54.703903-0.576121 110.171192 13.724583 169.571047l0.179079 0.74599 0.242524 0.726547c0.437975 1.314948 0.87595 2.584871 1.305739 3.828188 1.434675 4.157693 2.567475 7.441483 3.13541 10.849092l0.186242 1.11745 0.325411 1.084705c17.905812 59.685357 46.956452 105.07615 88.812745 138.764414l1.540076 1.216711 1.678222 0.848321c0.681522 0.344854 2.043542 1.300622 2.51017 1.763157 2.191922 2.192945 4.535293 3.51915 6.388501 4.341888l2.830465 2.830465 2.599198 1.299599c5.025457 2.51324 9.91993 5.222955 15.101953 8.093329 15.001669 8.308223 30.494525 16.888645 48.939619 20.216437l0.163729 0.630357c0.462534-0.12075 0.921999-0.242524 1.379417-0.36532 0.179079 0.028653 0.357134 0.058328 0.536212 0.085958l0.037862-0.2415c12.016685-3.27765 22.375613-7.42204 32.411177-11.43647 23.347754-9.338692 41.322128-24.086581 58.681494-38.382169 6.532787-4.970198 11.305487-10.609639 15.524578-15.594163 2.226714-2.628874 4.328585-5.113461 6.507204-7.293103 3.301186-3.300162 5.548366-6.671956 7.354502-9.380648 1.12052-1.679245 2.086521-3.12927 2.87856-3.922333l1.047866-1.046842 0.861624-1.206478c5.390777-7.546883 10.963703-15.349593 15.662725-24.696472 8.377808-15.7231 15.821337-31.67849 22.131043-47.432289 2.943029-6.916527 4.969175-14.19121 6.758937-20.617573 0.36225-1.297552 0.717338-2.573615 1.073448-3.816932l0.153496-0.576121c0.951675-3.803629 2.015913-7.529487 3.142573-11.475356 2.388397-8.358365 4.857635-17.002232 6.39771-27.012214C713.766818 455.323163 720.194204 405.734768 714.557834 355.002316zM671.896198 492.402663c-1.192152 7.754614-3.252067 14.96176-5.431709 22.590508-1.131777 3.963265-2.302439 8.05956-3.378957 12.335956-0.349971 1.228991-0.699941 2.485611-1.055029 3.761674-1.582031 5.678326-3.217275 11.549034-5.266957 16.33299l-0.166799 0.404206c-5.869684 14.673188-12.822027 29.569456-20.663622 44.272319l-0.215918 0.418532c-3.287883 6.575766-7.574512 12.67774-12.141528 19.076474-2.675946 2.901073-4.599761 5.786797-6.183839 8.163937-1.12052 1.679245-2.086521 3.12927-2.87856 3.922333-3.229554 3.229554-5.918803 6.405897-8.519024 9.477862-3.51608 4.1536-6.550183 7.739265-10.029424 10.347672l-0.639566 0.502443c-16.042371 13.210883-31.193443 25.689079-49.501414 33.012881-7.067976 2.827395-13.857613 5.54325-21.008476 7.876388-10.527774-3.058662-20.922519-8.815783-31.806403-14.84408-4.458545-2.469238-9.04398-5.009084-13.797237-7.455809l-1.055029-1.055029c-2.371-2.369977-4.91801-3.730974-6.830569-4.533246-2.385327-1.981121-4.91494-3.665483-7.082302-4.909823-35.154661-28.726252-59.848063-67.73673-75.443249-119.176286-1.079588-5.822612-2.762927-10.701736-4.394077-15.429411-0.311085-0.900509-0.627287-1.816369-0.944512-2.755764-11.719926-48.955992-16.314571-94.90244-13.951757-139.877771 60.141752 1.257643 116.714212-19.989263 154.842601-57.970296 33.67496 34.329876 85.010139 55.516408 144.340409 58.966996 4.174066 0.428765 8.065699 0.402159 11.692297 0.200568C682.414763 412.252205 678.454568 449.309192 671.896198 492.402663z" fill="#333"></path></g></g></svg>