
<?xml version="1.0" encoding="iso-8859-1"?>
<!-- Generator: Adobe Illustrator 17.0.0, SVG Export Plug-In . SVG Version: 6.00 Build 0)  -->
<!DOCTYPE svg PUBLIC "-//W3C//DTD SVG 1.1//EN" "http://www.w3.org/Graphics/SVG/1.1/DTD/svg11.dtd">
<svg version="1.1" id="xiaohui" xmlns="http://www.w3.org/2000/svg" xmlns:xlink="http://www.w3.org/1999/xlink" x="0px"
	 y="0px" width="349.483px" height="347.983px" viewBox="0 0 349.483 347.983" style="enable-background:new 0 0 349.483 347.983;"
	 xml:space="preserve">
<style type="text/css">
	<![CDATA[
  
	#path{
	  stroke-dasharray: 1020;
	  stroke-dashoffset: 1000;
	  -webkit-animation: dash 5s linear infinite;
	  animation: dash 5s linear forwards;
	}

	@-webkit-keyframes dash {
	  to {
	    stroke-dashoffset: 0;
	  }
	}
	@keyframes dash {
	  to {
	    stroke-dashoffset: 0;
	  }
	}
]]>
</style>
<path style="fill:none;stroke:#FFFFFF;stroke-width:1.5;stroke-miterlimit:10;" d="M177.921,8.617
	c89.799,0.037,161.606,72.988,161.53,161.616c-0.076,88.916-72.285,161.361-161.419,161.352
	c-89.251-0.009-161.629-72.384-161.527-161.6C16.608,80.861,88.897,8.594,177.921,8.617z M304.122,106.476
	c-0.453-0.478-0.907-0.956-1.57-1.655c0.82-0.082,1.279-0.169,1.738-0.166c1.678,0.011,3.356,0.083,5.033,0.07
	c0.954-0.007,1.935-0.022,2.855-0.239c1.128-0.266,1.492-1.205,0.81-2.028c-1.095-1.319-2.418-2.383-4.073-2.971
	c1.078,1.328,2.922,1.922,3.788,3.908c-3.259,0.382-6.17,0.242-9.329-0.138c0.965-1.41,1.869-2.563,1.736-4.115
	c-0.014-0.163,0.055-0.443,0.162-0.489c1.209-0.516,0.865-1.691,1.04-2.776c0.757,0.142,1.385,0.296,2.022,0.368
	c0.71,0.08,1.446,0.201,2.139,0.098c1.562-0.233,2.249-1.74,1.47-3.169c-1.633,1.347-3.628,1.364-5.588,1.536
	c-0.688,0.06-1.105-0.241-1.494-0.77c-0.323-0.438-0.51-1.146-1.366-0.979c-0.071,0.513-0.142,1.026-0.221,1.591
	c-0.371,0.044-0.658,0.084-0.947,0.112c-0.281,0.027-0.564,0.043-0.846,0.063c2.336,0.897,2.336,0.897,2.934,2.67
	c-2.981,0.672-5.956,0.513-8.986,0.348c0.334,0.333,0.695,0.674,1.099,0.736c1.339,0.208,2.316,0.801,2.753,2.142
	c0.023,0.07,0.206,0.088,0.35,0.144c0.281-0.229,0.567-0.463,1.011-0.825c0.19,1.369-0.6,1.974-1.34,2.83
	c-1.199-0.941-2.276-1.884-3.452-2.68c-1.182-0.8-1.865-2.218-3.481-2.894c1.664,2.857,2.758,3.886,5.02,5.311
	c1.67,1.051,2.97,2.667,4.987,3.202c0.615,0.163,1.189,0.478,1.782,0.724c0.561,0.646,1.122,1.291,1.815,2.089
	c-1.512,0.228-2.462-0.538-3.434-1.135c-2.249-1.38-4.469-2.808-6.691-4.232c-1.856-1.189-3.897-1.826-6.068-2.106
	c-0.749-0.097-1.429-0.101-1.899,0.644c-0.454,0.718-0.258,1.39,0.102,2.039c0.633,1.139,1.755,1.571,2.917,1.933
	c0.414,0.129,0.819,0.29,1.542,0.55c-0.44,0.293-0.575,0.445-0.736,0.48c-2.486,0.553-4.943,0.938-7.038-1.095
	c-0.34-0.329-0.772-0.57-1.181-0.819c-1.065-0.648-2.071-1.327-1.955-2.883c-0.489,0.79-0.794,1.559-1.153,2.302
	c-0.396,0.818-0.17,1.398,0.615,1.769c1.029,0.486,2.091,0.907,3.107,1.418c0.827,0.415,1.609,0.921,2.487,1.431
	c-1.186,1.812-2.761,2.821-4.197,3.963c-1.17,0.931-1.591,0.83-2.406-0.504c-1.169-1.912-2.009-3.95-2.229-6.211
	c-0.035-0.36-0.191-0.707-0.291-1.061c-0.132,0.021-0.263,0.041-0.395,0.062c0.069,0.986-0.005,2.008,0.238,2.948
	c0.373,1.442,0.887,2.861,1.476,4.232c1.356,3.154,1.366,3.602,4.594,1.009c1.166-0.937,2.187-2.052,3.336-3.013
	c0.369-0.309,1.112-0.677,1.379-0.515c1.082,0.655,2.045,1.506,3.051,2.285c-0.064,0.112-0.127,0.223-0.191,0.335
	c-0.724-0.226-1.448-0.452-2.172-0.679c0.749,0.9,1.618,1.518,2.522,2.079c0.624,0.387,1.275,0.418,1.743-0.262
	c0.426-0.618-0.099-0.992-0.45-1.379c-0.241-0.265-0.538-0.479-0.783-0.741c-0.949-1.013-1.887-2.036-3.005-3.244
	c1.273-0.229,2.214-0.356,3.133-0.574c1.651-0.391,2.01-1.455,0.922-2.75c-0.339-0.404-0.83-0.677-1.229-1.035
	c-0.543-0.486-1.064-0.996-1.637-1.536c0.286-0.177,0.337-0.235,0.388-0.235c0.176-0.001,0.358-0.007,0.528,0.033
	c2.657,0.633,4.78,2.102,6.664,4.05c0.986,1.02,2.106,2.026,3.361,2.64c1.366,0.668,2.946,0.94,4.462,1.235
	c0.405,0.079,1.137-0.276,1.314-0.633c0.162-0.328-0.077-1.082-0.393-1.372C305.682,107.358,304.867,106.954,304.122,106.476z
	 M68.661,98.176c-0.73-0.684-1.466-1.362-2.187-2.056c-0.391-0.376-0.569-1.008-1.405-1.187c0.404,0.967,0.73,1.746,1.214,2.907
	c-1.369-1.019-1.397-2.582-2.801-3.177c-0.378,0.818-0.706,1.53-1.052,2.279c-1.874-1.55-3.108-3.319-3.357-5.671
	c-0.044-0.416-0.1-0.843-0.238-1.234c-0.615-1.744-1.123-3.546-1.941-5.192c-0.669-1.346-1.485-1.39-2.583-0.418
	c-0.939,0.83-1.846,1.56-3.122,0.63c-0.61,0.734-0.569,1.446-0.228,2.105c0.381,0.738,0.827,1.46,1.349,2.104
	c0.945,1.163,1.928,2.3,2.973,3.372c0.608,0.624,0.784,1.233,0.642,2.091c-0.552,3.358-1.304,6.702-0.785,10.23
	c-0.729,0.124-1.314,0.329-1.886,0.298c-1.166-0.064-2.216-0.43-2.904-1.505c-0.597-0.935-0.825-1.81-0.063-2.79
	c0.415-0.534,0.259-1.12-0.161-1.649c-1.237-1.557-4.658-2.33-6.464-1.443c-1.147,0.563-1.331,1.635-0.274,2.402
	c0.701,0.509,1.59,0.881,2.444,1.028c1.431,0.246,2.475,0.981,3.141,2.17c0.726,1.297,1.503,2.641,1.834,4.063
	c0.365,1.568,0.852,1.793,2.133,1.91c0.597,0.055,1.219,0.047,1.781,0.224c0.718,0.227,1.569,0.444,2.043,0.959
	c1.811,1.967,4.119,3.473,5.326,6.02c0.688,1.452,2.069,1.708,3.54,1.009c1.411-0.671,1.984-1.78,1.774-3.374
	c-0.381-2.887-2.076-4.771-4.594-6.013c-0.913-0.45-1.878-0.795-2.788-1.25c-1.619-0.809-1.728-1.049-1.575-2.803
	c0.181-2.085,0.347-4.172,0.539-6.257c0.018-0.199,0.179-0.385,0.384-0.802c1.805,2.252,3.646,4.267,4.43,6.883
	c0.605,2.02,2.038,2.611,3.804,3.012c0.973,0.221,1.29-0.247,1.477-1.074c-1.547-1.597-3.055-3.181-3.599-5.396
	c0.41,0.172,0.673,0.453,0.941,0.73c0.415,0.428,0.782,0.925,1.26,1.264c0.849,0.603,1.713,0.288,1.903-0.725
	c0.104-0.555-0.013-1.188-0.171-1.746c-0.194-0.684-0.537-1.326-0.813-1.984c0.948,0.991,1.921,1.959,2.837,2.978
	c0.92,1.024,1.84,2.056,2.656,3.162c0.794,1.075,1.456,2.248,2.175,3.378c0.132-0.071,0.265-0.141,0.397-0.212
	c-0.229-4.163-1.982-7.69-4.811-10.646c0.186-0.994,0.343-1.832,0.544-2.909c0.789,0.618,1.38,1.104,1.995,1.557
	c0.641,0.472,1.304,0.913,2.256,1.575c-1.191,0.104-1.971,0.173-2.982,0.261c2.395,1.154,4.211,1.079,6.785-0.186
	c0-0.251-0.017-0.545,0.003-0.836c0.123-1.786,0.054-1.823-1.639-2.38c-0.899-0.296-1.783-0.702-2.593-1.192
	c-1.28-0.775-2.522-1.623-3.728-2.51c-3.443-2.531-6.633-5.313-8.839-9.062c-0.771-1.31-1.181-1.398-3.01-0.891
	c-0.773,2.406-0.819,4.672,0.012,6.276c0.462-0.875,0.849-1.608,1.319-2.499c2.965,2.813,5.812,5.515,8.711,8.265
	c-1.817,0.921-2.327,0.789-3.005-0.648c-0.306-0.65-0.543-1.338-0.9-1.958c-0.66-1.147-1.335-1.41-2.153-0.938
	c-1.544,0.891-1.886,1.614-1.14,2.853c0.52,0.863,1.251,1.597,1.878,2.397C66.472,95.358,67.565,96.768,68.661,98.176z
	 M289.713,170.097c0.019-61.595-49.924-111.585-111.615-111.719C116.479,58.245,66.295,108.34,66.241,170.035
	c-0.054,61.674,50.039,111.812,111.706,111.807C239.669,281.836,289.694,231.82,289.713,170.097z M148.01,34.751
	c0.101,0.102,0.202,0.204,0.303,0.306c-1.079,3.792-1.889,7.69-3.312,11.348c-1.449,3.725-2.293,7.555-3.098,11.42
	c-0.189,0.906-0.215,1.847-0.319,2.787c1.058,0.253,1.789,0.23,2.175-0.684c1.334-3.153,2.392-6.386,2.942-9.781
	c0.354-2.185,0.829-4.351,1.252-6.525c0.548-2.815,2.211-5.012,3.997-7.13c0.399-0.473,0.828-1.031,1.66-0.913
	c0.426,1.566-0.246,2.853-0.751,4.179c-0.548,1.44-2.139,0.819-3.15,1.638c-0.051,0.638-0.14,1.344-0.157,2.051
	c-0.049,1.975-0.1,3.95-0.09,5.925c0.006,1.134,0.088,2.272,0.216,3.4c0.052,0.458,0.237,0.945,0.498,1.325
	c0.872,1.268,2.03,1.126,2.699-0.276c0.897-1.88,1.812-3.751,2.817-5.828c0.675,0.446,1.349,0.798,1.91,1.282
	c0.982,0.847,1.979,0.993,3.117,0.364c0.107-1.434-0.512-2.317-1.823-2.738c-1.065-0.342-2.131-0.681-3.404-1.087
	c0.435-0.364,0.708-0.658,1.039-0.852c0.41-0.241,0.903-0.347,1.3-0.604c0.922-0.599,0.877-1.412-0.056-1.959
	c-0.81-0.474-1.464-0.292-2.065,0.392c-0.716,0.816-1.477,1.6-2.62,1.782c-0.592,0.095-1.257,0.195-1.593-0.473
	c-0.338-0.671-0.573-1.394-0.929-2.283c0.656,0.074,1.112,0.137,1.57,0.176c1.397,0.119,2.459-0.408,3.107-1.673
	c0.762-1.487,1.039-3.069,0.746-4.711c-0.254-1.42-1.105-1.857-2.329-1.12c-0.966,0.582-1.797,1.385-2.701,2.073
	c-0.335,0.255-0.708,0.46-1.399,0.902c0.319-1.047,0.534-1.658,0.688-2.285c0.185-0.753,0.412-1.514,0.455-2.281
	c0.109-1.948-0.563-2.39-2.34-1.638c-0.207,0.088-0.427,0.145-0.995,0.335c0.304-0.921,0.52-1.572,0.779-2.356
	c0.687,0.409,1.126,0.67,1.656,0.985c0.409-0.435,0.826-0.782,1.124-1.212c1.898-2.727,3.338-5.681,4.198-8.896
	c0.167-0.624,0.231-1.309,0.178-1.953c-0.117-1.427-1.156-1.989-2.392-1.317c-0.628,0.341-1.184,0.814-1.789,1.202
	c-0.41,0.263-0.849,0.481-1.409,0.794c-0.067-0.516-0.065-0.757-0.132-0.977c-0.241-0.788-0.383-1.64-0.793-2.331
	c-0.427-0.721-1.244-0.929-2.068-0.627c-0.827,0.303-0.956,0.984-0.832,1.77c0.103,0.649,0.196,1.301,0.268,1.954
	c0.144,1.305,0.062,2.587-0.352,3.869c-0.481-0.062-0.86-0.111-1.223-0.158c-0.291,0.682,0.206,1.643-0.967,1.822
	c-0.324-0.353-0.677-0.738-1.017-1.109c-1.134,0.64-1.103,0.64-1.095,1.419c0.009,0.88-0.045,1.761-0.074,2.735
	c0.745,0.14,1.653,0.423,2.57,0.457c1.519,0.057,1.888,0.37,1.754,1.94c-0.112,1.312-0.291,2.618-0.409,3.93
	c-0.062,0.685,0.071,1.291,0.765,1.679C146.867,35.638,147.478,35.517,148.01,34.751z M107.826,70.609
	c-0.728-1.348-1.386-2.565-2.171-4.019c0.711,0.061,1.061,0.08,1.409,0.122c2.62,0.315,5.237,0.66,7.86,0.943
	c1.493,0.161,2.015-0.514,1.428-1.921c-0.389-0.931-0.922-1.825-1.519-2.643c-1.45-1.986-3.016-3.887-4.456-5.88
	c-1.365-1.89-2.604-3.87-3.947-5.777c-0.793-1.125-1.618-2.239-2.542-3.256c-0.908-0.999-1.421-0.954-2.438-0.05
	c-0.268,0.238-0.537,0.494-0.733,0.789c-1.159,1.745-2.297,3.503-3.44,5.258c-0.3,0.461-0.595,0.925-0.955,1.486
	c-1.015-1.594-0.907-2.822-0.057-4.235c1.573-2.617,2.945-5.356,4.368-8.062c0.224-0.427,0.274-0.946,0.43-1.519
	c-1.44,0.183-3.101,1.332-4.724,3.157c0.422,0.077,0.777,0.141,1.214,0.22c-0.384,2.221-1.594,3.87-2.996,5.793
	c-0.878-1.379-1.61-2.518-2.333-3.664c-1.326-2.101-3.05-2.693-5.365-1.837c-1.574,0.582-1.868,1.577-0.549,2.627
	c2.022,1.608,3.276,3.797,4.857,5.743c0.955,1.175,1.004,2.259,0.19,3.423c-1.236,1.767-2.512,3.506-3.786,5.246
	c-0.496,0.676-1.081,1.292-1.529,1.996c-0.188,0.295-0.306,0.92-0.14,1.092c0.269,0.28,0.842,0.5,1.207,0.413
	c1.074-0.257,1.955-0.859,2.488-1.898c0.794-1.547,1.615-3.081,2.444-4.609c0.269-0.495,0.603-0.956,1.109-1.749
	c0.485,1.216,0.967,2.061,1.133,2.965c0.117,0.64,0.033,1.557-0.358,2.003c-0.973,1.108-0.781,2.117-0.178,3.412
	c1.502-0.35,2.972-0.693,4.405-1.026c0.767,0.465,1.628,0.987,2.797,1.697c0,0.217,0.017,0.79-0.003,1.361
	c-0.041,1.153,0.446,1.648,1.601,1.539c0.342-0.032,0.673-0.187,0.98-0.277c0.914,0.865,1.768,1.672,2.714,2.567
	C106.854,71.489,107.321,71.067,107.826,70.609z M265.164,60.214c0.329-0.15,0.72-0.23,0.976-0.46
	c1.466-1.32,3.057-2.547,4.299-4.058c1.08-1.315,1.83-2.928,2.56-4.487c0.223-0.477-0.103-1.212-0.177-1.829
	c-0.56,0.102-1.206,0.061-1.662,0.336c-1.125,0.679-2.163,1.501-3.234,2.27c-3.065,2.201-6.144,4.383-9.182,6.62
	c-0.916,0.675-1.82,0.84-2.856,0.43c-0.835-0.33-1.672-0.656-2.507-0.988c-2.06-0.818-4.103-1.684-6.187-2.438
	c-1.197-0.434-1.968,0.376-1.599,1.612c0.115,0.387,0.353,0.778,0.638,1.064c0.547,0.549,1.142,1.059,1.763,1.524
	c1.184,0.887,2.399,1.731,3.65,2.628c-0.514,1.265-1.629,1.637-2.633,2.116c-1.89,0.901-3.808,1.741-5.689,2.66
	c-0.423,0.206-0.738,0.633-1.102,0.959c0.04,0.141,0.079,0.282,0.119,0.424c0.731,0.129,1.47,0.402,2.19,0.357
	c1.489-0.094,2.985-0.277,4.446-0.577c1.123-0.23,2.006-0.033,2.744,0.826c1.171,1.361,2.375,2.696,3.491,4.102
	c0.423,0.533,0.639,1.23,0.919,1.791c-1.176,1.381-2.888,0.232-4.194,1.24c2.025,1.081,4.09,1.452,6.115,1.905
	c1.333,0.298,1.89-0.287,1.734-1.682c-0.147-1.317-0.843-2.404-1.775-3.253c-1.545-1.408-3.202-2.695-4.827-4.014
	c-0.49-0.398-1.031-0.733-1.894-1.339c2.493-0.894,4.615-1.658,6.742-2.409c0.161-0.057,0.363-0.053,0.533-0.017
	c2.205,0.47,4.146-0.294,6.008-1.324c1.657-0.917,3.409-1.452,5.293-1.586c0.537-0.038,1.081-0.075,1.607-0.185
	c2.097-0.441,3.836-2.732,3.671-4.799C272.229,60.854,268.942,61.86,265.164,60.214z M50.166,212.614
	c1.944-0.68,3.73-1.305,5.695-1.992c-0.382-1.154-0.709-2.142-1.078-3.256c-4.883,1.568-9.6,3.026-14.395,4.719
	c0.399,1.178,0.719,2.12,1.092,3.221c2.059-0.623,3.966-1.201,5.992-1.815c0.788,2.435,1.497,4.625,2.236,6.908
	c-2.091,0.727-3.936,1.369-5.932,2.063c0.374,1.139,0.697,2.126,1.077,3.286c4.882-1.59,9.577-3.119,14.423-4.698
	c-0.415-1.207-0.754-2.195-1.122-3.266c-2.031,0.61-3.886,1.168-5.845,1.757c-0.644-1.974-1.224-3.731-1.788-5.493
	C50.395,213.657,50.321,213.251,50.166,212.614z M101.106,297.89c1.393,1.666,3.034,2.627,4.838,3.322
	c3.408,1.313,5.94,0.454,7.816-2.675c1.418-2.364,2.77-4.767,4.134-7.162c0.194-0.341,0.29-0.738,0.42-1.077
	c-2.147-1.603-2.187-1.616-3.508-1.209c-0.917-2.156-2.61-3.245-4.909-3.271c-2.355-0.026-3.875,1.36-4.978,3.297
	c-0.177,0.311-0.337,0.638-0.463,0.973c-1.271,3.361,1.04,6.734,4.64,6.779c0.465,0.006,0.931,0.001,1.409,0.001
	c-0.755,1.821-2.064,2.645-3.753,2.075c-1.101-0.372-2.105-1.092-3.07-1.773c-0.462-0.326-0.733-0.924-1.233-1.586
	C101.88,296.56,101.525,297.17,101.106,297.89z M237.26,283.772c0.474,0.911,0.829,1.598,1.188,2.283
	c1.059,2.016,2.187,4,3.161,6.056c1.019,2.15,0.326,3.809-1.783,4.661c-1.67,0.675-3.051,0.223-4.113-1.53
	c-0.961-1.587-1.773-3.264-2.66-4.897c-0.593-1.09-1.203-2.171-1.875-3.38c-1.068,0.587-1.987,1.092-3.087,1.697
	c1.738,3.136,3.387,6.112,5.041,9.085c0.086,0.155,0.217,0.286,0.333,0.424c1.507,1.787,3.41,2.363,5.652,1.787
	c1.652-0.425,3.116-1.235,4.396-2.362c1.87-1.647,2.344-3.693,1.63-6.03c-0.209-0.683-0.508-1.348-0.837-1.983
	c-1.104-2.128-2.233-4.243-3.371-6.353c-0.189-0.351-0.471-0.652-0.758-1.041C239.213,282.71,238.331,283.19,237.26,283.772z
	 M100.654,273.976c-3.417,1.7-12.848,7.729-13.743,8.807c0.923,0.653,1.838,1.301,2.754,1.95c1.109-0.687,2.115-1.309,3.178-1.967
	c1.709,1.244,3.338,2.43,4.958,3.61c-0.337,1.336-0.626,2.478-0.919,3.637c0.849,0.621,1.566,1.158,2.298,1.673
	c0.182,0.128,0.415,0.185,0.801,0.35c1.329-5.244,2.633-10.392,3.967-15.656C102.787,275.532,101.689,274.731,100.654,273.976z
	 M200.46,52.405c0.283,0.522,0.519,1.07,0.852,1.55c0.774,1.112,1.319,1.212,2.369,0.408c0.418-0.32,0.807-0.734,1.074-1.185
	c0.677-1.146,1.134-2.368,1.021-3.749c-0.185-2.277,0.017-2.476,1.95-3.19c1.431-0.528,2.752-1.361,3.993-2.986
	c-0.69,0.062-1.053,0.018-1.351,0.136c-0.998,0.394-1.939,0.982-2.966,1.236c-0.913,0.226-1.914-0.191-2.959,0.293
	c0.444-1.142,0.434-1.167,1.269-1.489c1.282-0.495,2.585-0.936,3.864-1.437c0.344-0.135,0.635-0.405,1.137-0.736
	c-0.976-0.71-1.763-1.283-2.644-1.925c1.706-1.403,4.111-0.188,5.562-1.805c-0.31-1.066-1.021-1.472-1.908-1.501
	c-0.951-0.031-1.913,0.031-2.858,0.147c-1.837,0.226-3.657,0.682-5.524,0.212c-0.159-0.04-0.375,0.141-0.886,0.354
	c1.424,0.705,2.557,1.265,4.086,2.022c-0.922,0.462-1.503,0.684-2.006,1.022c-0.95,0.636,0.303,1.253,0.017,2.138
	c-0.753,0.571-1.669,1.234-2.547,1.944c-0.555,0.449-1.236,0.881-1.522,1.482c-0.269,0.566-0.249,1.386-0.075,2.016
	c0.193,0.697,0.926,0.585,1.54,0.526c0.456-0.044,0.919-0.009,1.627-0.009C203.116,49.879,202.414,51.472,200.46,52.405z
	 M200.842,27.507c0.265,0.521,0.307,0.723,0.431,0.828c1.632,1.383,3.706,1.462,5.445,0.229c0.698-0.495,1.402-0.981,2.34-1.637
	c0.041,1.306-0.749,1.804-1.058,2.516c-0.486,1.12-1.308,1.433-2.388,1.545c-0.553,0.057-1.088,0.283-1.631,0.433
	c0.018,0.119,0.036,0.239,0.054,0.358c0.433,0,0.88,0.072,1.296-0.011c3.699-0.74,7.394-1.504,11.087-2.276
	c0.344-0.072,0.667-0.247,0.997-0.383c0.98-0.407,1.931-0.91,2.943-1.205c1.373-0.401,2.794-0.634,4.189-0.961
	c0.328-0.077,0.636-0.239,1.011-0.385c-0.222-1.119-0.683-1.919-1.801-2.018c-1.509-0.134-3.028-0.162-4.595-0.239
	c0-0.675-0.022-1.206,0.006-1.734c0.029-0.554,0.432-1.135-0.293-1.872c-0.622,1.067-1.208,2.002-1.724,2.975
	c-0.995,1.878-2.148,2.297-4.296,1.433c0.218-1.052,0.131-2.087-0.618-3.039c-0.899,0.193-1.444,0.612-1.39,1.573
	c0.065,1.152-0.572,1.756-1.588,2.094c-0.339,0.113-0.703,0.233-0.976,0.45c-1.731,1.378-3.751,1.429-5.813,1.329
	C202.025,27.488,201.576,27.507,200.842,27.507z M314.324,222.816c1.608-2.253,1.691-4.252,0.278-6.261
	c-0.444-0.631-0.986-1.216-1.566-1.726c-2.886-2.533-5.797-5.037-8.707-7.543c-0.256-0.221-0.561-0.386-1.037-0.707
	c-0.357,1.096-0.662,2.034-0.988,3.036c2.129,1.674,4.167,3.277,6.206,4.88c-0.046,0.145-0.093,0.289-0.139,0.434
	c-1.597,0-3.194-0.014-4.79,0.003c-3.247,0.034-3.248,0.04-4.003,3.183c-0.02,0.083,0.095,0.198,0.196,0.394
	c0.605-0.037,1.257-0.05,1.903-0.119c2.743-0.295,5.484-0.608,8.226-0.913c2.062-0.23,3.564,1.538,2.974,3.501
	c-0.116,0.387-0.25,0.769-0.413,1.268C313.162,222.46,313.769,222.646,314.324,222.816z M60.014,232.36
	c-1.698,0.852-3.229,1.645-4.784,2.389c-0.586,0.281-1.212,0.554-1.846,0.645c-1.019,0.147-1.859-0.44-2.27-1.404
	c-0.421-0.989-0.229-1.875,0.712-2.526c0.784-0.542,1.665-0.946,2.511-1.397c1.149-0.613,2.304-1.213,3.595-1.892
	c-0.581-1.07-1.076-1.983-1.626-2.995c-2.195,1.137-4.261,2.103-6.222,3.247c-2.952,1.722-2.998,5.289-0.16,7.214
	c0.434,0.294,0.914,0.522,1.379,0.784c-0.877,1.284-0.818,1.552,0.858,3.751c3.078-1.569,6.192-3.157,9.424-4.805
	C61.008,234.265,60.55,233.388,60.014,232.36z M74.767,271.061c1.235-1.142,2.446-2.282,3.683-3.393
	c0.486-0.436,0.987-0.894,1.561-1.186c1.008-0.513,2.213-0.147,2.876,0.754c0.613,0.833,0.585,1.666-0.19,2.62
	c-0.45,0.554-0.995,1.032-1.514,1.528c-1.069,1.023-2.148,2.034-3.364,3.183c0.863,0.876,1.584,1.607,2.407,2.442
	c1.939-1.856,3.779-3.481,5.452-5.262c1.48-1.576,1.364-3.356-0.016-5.014c-0.98-1.177-2.303-1.641-3.822-1.859
	c0.198-0.482,0.35-0.85,0.569-1.384c-0.716-0.661-1.445-1.333-2.289-2.112c-2.613,2.446-5.162,4.832-7.874,7.371
	C73.166,269.591,73.901,270.266,74.767,271.061z M254.557,291.166c-0.527-0.746-0.901-1.283-1.283-1.815
	c-0.768-1.07-1.584-2.108-2.299-3.213c-0.877-1.355-0.646-2.671,0.512-3.481c1.062-0.742,2.045-0.541,3.097,0.739
	c0.759,0.924,1.421,1.926,2.142,2.882c0.524,0.695,1.073,1.37,1.681,2.142c0.956-0.736,1.742-1.34,2.659-2.046
	c-1.603-2.139-3.015-4.22-4.634-6.124c-1.414-1.664-3.177-1.731-4.98-0.494c-1.241,0.85-1.955,2.041-2.167,3.662
	c-0.485-0.341-0.813-0.571-1.242-0.872c-0.831,0.637-1.653,1.269-2.554,1.96c2.15,2.953,4.18,5.741,6.297,8.65
	C252.773,292.446,253.578,291.868,254.557,291.166z M149.587,300.696c-0.471,2.646-1.037,5.041-1.291,7.468
	c-0.254,2.439,1.187,4.043,3.656,4.161c1.139,0.055,2.301-0.352,3.478-0.554c0.357,1.292,0.689,1.456,3.247,1.461
	c0.714-1.971,2.008-9.046,1.87-10.449c-0.937-0.155-1.91-0.316-2.993-0.495c-0.248,1.181-0.452,2.172-0.664,3.16
	c-0.239,1.112-0.4,2.251-0.751,3.327c-0.408,1.249-1.443,1.748-2.705,1.492c-1.168-0.237-1.767-1.019-1.634-2.387
	c0.11-1.128,0.401-2.238,0.594-3.359c0.178-1.035,0.334-2.073,0.515-3.21C151.746,301.096,150.82,300.925,149.587,300.696z
	 M56.207,247.435c1.647-1.024,3.057-1.919,4.487-2.78c0.508-0.306,1.041-0.613,1.605-0.772c1.063-0.3,2.068,0.174,2.593,1.108
	c0.538,0.957,0.368,1.903-0.584,2.71c-0.544,0.461-1.172,0.826-1.775,1.214c-1.249,0.802-2.507,1.59-3.912,2.478
	c0.667,1.01,1.239,1.877,1.88,2.849c2.189-1.392,4.26-2.594,6.203-3.977c2.013-1.432,2.336-3.521,0.807-5.458
	c-0.736-0.933-1.862-1.559-2.905-2.399c0.121-0.196,0.351-0.566,0.59-0.951c-0.566-0.879-1.076-1.671-1.688-2.624
	c-3.097,1.93-6.061,3.778-9.143,5.699C55.018,245.56,55.55,246.399,56.207,247.435z M181.09,303.771
	c0.226,2.458,0.372,4.658,0.641,6.842c0.445,3.619,3.992,5.054,6.925,2.842c0.362-0.273,0.715-0.559,1.093-0.855
	c0.706,1.387,1.09,1.448,3.674,0.61c-0.402-3.419-0.393-6.921-1.084-10.499c-1.097,0.144-2.022,0.266-3.149,0.414
	c0.102,1.488,0.204,2.843,0.286,4.199c0.054,0.893,0.185,1.799,0.09,2.679c-0.125,1.163-1.063,1.892-2.233,1.947
	c-1.11,0.052-1.847-0.506-2.134-1.751c-0.173-0.752-0.213-1.537-0.292-2.309c-0.145-1.414-0.275-2.83-0.429-4.435
	C183.314,303.564,182.33,303.655,181.09,303.771z M69.526,265.257c1.867-1.502,3.834-2.955,5.644-4.582
	c1.372-1.233,1.542-2.904,0.688-4.605c-0.965-1.923-2.461-3.341-4.411-4.45c-0.529,0.421-1.018,0.81-1.635,1.301
	c0.604,0.405,1.089,0.644,1.463,0.998c0.731,0.693,1.494,1.384,2.067,2.2c0.532,0.758,0.448,1.588-0.607,2.25
	c-0.573-0.55-1.142-1.144-1.761-1.68c-0.765-0.663-1.509-1.382-2.372-1.891c-1.289-0.76-2.744-0.496-3.805,0.502
	c-1.055,0.993-1.294,2.364-0.584,3.78c0.61,1.217,1.506,2.15,2.878,2.523c0.316,0.086,0.624,0.203,0.951,0.311
	C67.421,263.239,67.565,263.559,69.526,265.257z M284.34,257.727c-2.329-2.347-4.493-2.853-6.593-1.63
	c-1.397,0.813-2.382,2.016-2.95,3.516c-0.838,2.214-0.183,4.596,1.634,6.21c1.856,1.648,4.022,2.047,5.966,0.958
	c2.243-1.257,3.57-3.258,4.469-5.701c-0.557-0.451-1.003-0.812-1.556-1.259c-0.302,0.601-0.473,1.113-0.781,1.521
	c-0.643,0.853-1.265,1.761-2.067,2.445c-0.997,0.851-1.709,0.736-2.948-0.19C281.102,261.665,282.687,259.737,284.34,257.727z
	 M218.318,308.171c-0.807-2.606-1.455-5.028-2.319-7.372c-0.546-1.481-1.835-2.133-3.436-2.138c-1.803-0.006-3.403,0.629-4.93,1.498
	c-1.497,0.852-1.55,1.217-0.558,2.619c1.262-0.589,2.463-1.272,3.746-1.71c1.129-0.385,1.546-0.059,2.244,1.333
	c-0.746,0.34-1.504,0.651-2.231,1.025c-0.902,0.463-1.854,0.879-2.647,1.493c-1.235,0.957-1.5,2.299-0.935,3.71
	c0.531,1.326,1.574,1.998,3.117,1.948c1.667-0.054,2.998-0.742,3.914-2.174c0.082-0.128,0.247-0.202,0.376-0.303
	c0.248,0.312,0.465,0.585,0.736,0.926C216.252,308.776,217.1,308.528,218.318,308.171z M188.592,36.279
	c3.004,0.684,5.541,1.083,8.275,0.254c5.733-1.739,11.54-3.237,17.326-4.799c0.706-0.191,1.469-0.168,2.205-0.244
	c0.038,0.15,0.076,0.301,0.114,0.451c-1.642,0.851-3.627,0.919-5.281,1.958c0.216,0.08,0.33,0.169,0.422,0.15
	c3.81-0.788,7.619-1.586,11.428-2.384c0.059-0.012,0.12-0.021,0.174-0.044c1.306-0.539,2.63-0.721,4.03-0.363
	c0.343,0.088,0.758-0.107,1.147-0.173c-0.397-1.713-1.376-2.338-3.025-2.008c-1.174,0.235-2.331,0.567-3.51,0.764
	c-6.205,1.036-12.429,1.969-18.62,3.083c-4.654,0.838-9.269,1.893-13.899,2.862C189.221,35.82,189.086,35.964,188.592,36.279z
	 M268.978,265.659c1.155,2.443,2.29,4.842,3.424,7.24c-0.095,0.082-0.19,0.165-0.285,0.247c-1.568-0.826-3.136-1.651-4.703-2.478
	c-2.673-1.411-2.674-1.413-4.69,0.914c-0.066,0.077-0.056,0.219-0.114,0.472c3.398,1.535,6.819,3.081,10.325,4.664
	c0.969-0.967,1.848-1.844,2.666-2.661c-0.678-2.704-3.541-9.711-4.349-10.682C270.54,264.09,269.83,264.803,268.978,265.659z
	 M296.259,248.687c0.529-0.615,0.952-1.041,1.298-1.523c1.136-1.582,2.059-3.268,1.972-5.293c-0.105-2.469-2.439-3.669-4.501-2.32
	c-0.597,0.391-1.09,0.938-1.661,1.374c-0.673,0.514-1.213,1.519-2.281,0.894c-0.58-0.339-0.369-1.388,0.475-2.59
	c0.429-0.611,0.921-1.179,1.471-1.877c-0.738-0.377-1.297-0.664-2.014-1.03c-0.732,1.148-1.512,2.089-1.967,3.168
	c-0.43,1.019-0.741,2.187-0.713,3.28c0.055,2.167,2.277,3.323,4.175,2.273c0.621-0.343,1.15-0.855,1.708-1.307
	c0.419-0.339,0.771-0.793,1.237-1.031c0.373-0.191,1.028-0.33,1.272-0.135c0.262,0.209,0.38,0.922,0.226,1.264
	c-0.388,0.859-0.926,1.661-1.484,2.428c-0.308,0.424-0.776,0.731-1.332,1.237C294.895,247.922,295.5,248.261,296.259,248.687z
	 M295.935,227.649c0.667,0.232,1.26,0.437,1.818,0.631c0.421-0.62,0.744-1.095,1.093-1.609c0.71,0.26,1.323,0.488,1.939,0.71
	c1.127,0.407,2.238,0.874,3.388,1.198c1.561,0.439,2.698-0.032,3.525-1.402c0.589-0.976,1.016-2.023,0.965-3.357
	c-0.581-0.232-1.158-0.463-1.764-0.705c-0.245,0.544-0.321,1.035-0.607,1.273c-0.419,0.348-1.055,0.805-1.482,0.707
	c-1.665-0.381-3.271-0.995-4.791-1.837c0.256-0.915,0.461-1.647,0.702-2.508c-0.664-0.246-1.252-0.463-1.89-0.7
	c-0.438,0.863-0.805,1.587-1.192,2.35c-1.013-0.311-1.899-0.583-3.012-0.924c-0.106,1.269-0.192,2.307-0.275,3.309
	c0.752,0.382,1.331,0.675,1.956,0.993C296.193,226.362,296.089,226.879,295.935,227.649z M176.187,300.654
	c-2.848-0.071-3.113,0.125-3.639,2.653c-0.519,0.1-1.08,0.208-1.742,0.335c-0.031,0.667-0.058,1.24-0.087,1.856
	c0.685,0.19,1.245,0.345,1.806,0.5c0,1.423,0.048,2.79-0.009,4.153c-0.144,3.452,1.312,4.851,4.767,4.501
	c0.352-0.036,0.696-0.14,1.203-0.246c0.046-0.611,0.092-1.226,0.143-1.903c-0.541-0.052-0.892-0.079-1.24-0.121
	c-0.83-0.098-1.349-0.596-1.387-1.396c-0.077-1.651-0.111-3.312,0.264-4.944c0.909-0.095,1.661-0.173,2.446-0.255
	c0-0.717,0-1.322,0-1.912c-0.861-0.142-1.558-0.257-2.384-0.393C176.282,302.544,176.238,301.67,176.187,300.654z M146.072,302.568
	c0.078-0.171,0.201-0.375,0.268-0.596c0.456-1.51,0.393-1.758-1.057-2.287c-1.061-0.387-2.179-0.712-3.296-0.829
	c-2.985-0.312-5.398,1.465-6.143,4.383c-0.685,2.681,0.626,5.165,3.432,6.325c0.875,0.362,1.827,0.585,2.766,0.735
	c1.904,0.306,2.203-0.014,2.165-2.02c-0.946-0.161-1.92-0.203-2.807-0.503c-1.787-0.603-2.56-2.095-2.13-3.815
	c0.435-1.741,1.803-2.772,3.615-2.485C143.914,301.641,144.891,302.151,146.072,302.568z M225.66,305.654
	c-1.757-5.095-3.465-10.051-5.22-15.142c-1.144,0.41-2.081,0.746-3.219,1.155c1.759,5.101,3.465,10.047,5.217,15.126
	C223.622,306.374,224.559,306.043,225.66,305.654z M164.893,297.745c-0.521,5.463-1.043,10.667-1.366,16.005
	c1.207,0.092,2.191,0.166,3.315,0.251c0.51-5.4,1.029-10.604,1.362-15.912C167.038,297.968,166.098,297.871,164.893,297.745z
	 M281.387,251.354c3.013,2.106,5.841,4.082,8.819,6.164c0.7-0.986,1.301-1.831,1.968-2.77c-0.674-0.494-1.194-0.883-1.722-1.262
	c-0.923-0.662-1.891-1.268-2.765-1.989c-1.493-1.232-1.632-2.52-0.532-4.065c0.192-0.27,0.407-0.524,0.689-0.885
	c-0.804-0.545-1.471-0.996-2.098-1.421c-1.436,1.168-1.399,2.564-1.047,4.133c-0.56-0.229-0.935-0.382-1.416-0.578
	C282.694,249.512,282.115,250.328,281.387,251.354z M117.435,301.369c1.139,0.506,2.08,0.924,3.111,1.382
	c0.78-1.647,1.435-3.116,2.162-4.548c1.074-2.116,2.247-2.5,4.358-1.51c0.206,0.097,0.43,0.154,0.796,0.282
	c0.341-0.784,0.658-1.51,0.964-2.213c-1.656-0.981-1.93-1.003-4.158-0.378c0.082-0.482,0.155-0.911,0.251-1.471
	c-0.987-0.42-1.937-0.824-2.979-1.267C120.403,294.962,118.958,298.082,117.435,301.369z M196.103,302.35
	c0.713,3.627,1.368,6.96,2.067,10.513c1.185-0.238,2.198-0.442,3.328-0.669c-0.352-1.898-0.71-3.591-0.971-5.299
	c-0.291-1.905,0.457-2.958,2.318-3.419c0.337-0.083,0.682-0.133,1.193-0.231c-0.178-0.838-0.333-1.565-0.489-2.301
	c-1.856-0.327-2.748,0.783-3.594,2.126c-0.257-0.526-0.453-0.925-0.69-1.41C198.238,301.885,197.268,302.096,196.103,302.35z
	 M267.311,281.764c-1.885-2.882-5.792-7.506-6.998-8.268c-0.73,0.623-1.488,1.269-2.334,1.99c2.279,2.81,4.457,5.497,6.733,8.303
	C265.644,283.063,266.431,282.45,267.311,281.764z M127.521,305.618c1.19,0.405,2.126,0.723,3.247,1.105
	c1.183-3.452,2.313-6.752,3.487-10.177c-1.161-0.399-2.098-0.721-3.23-1.11C129.854,298.838,128.734,302.092,127.521,305.618z
	 M293.086,232.716c3.316,1.689,6.419,3.27,9.629,4.905c0.553-1.124,0.99-2.014,1.501-3.053c-3.244-1.671-6.306-3.334-9.594-4.81
	C294.097,230.769,293.665,231.601,293.086,232.716z M94.671,71.8c-0.616,0.792-0.54,1.786-0.236,2.748
	c0.322,1.018,0.805,1.984,1.169,2.99c0.313,0.866,0.883,1.238,1.787,1.11c0.355-0.05,0.707-0.144,1.063-0.158
	c0.857-0.035,1.539-0.358,1.797-1.208c0.281-0.928-0.184-1.655-0.891-2.175C97.849,73.994,96.296,72.94,94.671,71.8z
	 M288.189,93.063c-2.33-0.524-4.586-0.343-6.78,0.332c-1.241,0.382-2.292,1.139-2.595,2.504c-0.085,0.384,0.097,1,0.383,1.246
	c0.291,0.25,1.07,0.394,1.274,0.202c0.953-0.899,2.276-1.098,3.253-1.797C285.126,94.547,286.482,93.569,288.189,93.063z
	 M137.976,29.038c0.622,1.249,1.173,2.557,1.911,3.751c0.385,0.623,1.029,1.181,1.686,1.506c0.438,0.217,1.223,0.145,1.629-0.129
	c0.266-0.18,0.279-0.989,0.156-1.45c-0.515-1.934-3.056-3.857-5.065-3.915C138.205,28.798,138.114,28.93,137.976,29.038z
	 M206.667,54.596c1.591,0.167,3.064-0.258,4.463-0.985c0.601-0.312,1.098-0.706,0.937-1.539c-0.245-1.27-1.067-2.04-2.404-2.259
	C208.673,51.394,207.709,52.933,206.667,54.596z M294.751,90.899c-0.139-0.076-0.279-0.151-0.418-0.227
	c-1.108,0.876-2.047,1.929-2.867,3.078c-0.406,0.569-0.431,1.253,0.037,1.842c0.448,0.564,1.047,0.485,1.641,0.278
	c0.473-0.165,0.939-0.352,1.515-0.57c-1.118-0.769-1.13-0.772-0.867-1.579C294.099,92.776,294.43,91.839,294.751,90.899z
	 M200.879,50.154c-1.84-0.061-3.618,0.259-5.369,0.677c-0.701,0.167-0.806,0.956-0.186,1.365c0.467,0.308,1.161,0.646,1.625,0.516
	C198.469,52.283,199.893,51.592,200.879,50.154z M292.309,229.293c0.028-0.903-0.504-1.594-1.289-1.671
	c-0.949-0.094-1.957,0.976-2.014,2.137c-0.046,0.921,0.463,1.565,1.291,1.634C291.319,231.477,292.272,230.483,292.309,229.293z
	 M258.829,271.201c-0.02-0.861-0.65-1.448-1.513-1.41c-1.052,0.046-2.132,1.111-2.112,2.082c0.017,0.827,0.666,1.416,1.538,1.394
	C257.837,273.239,258.854,272.233,258.829,271.201z M134.19,294.248c0.922-0.038,1.63-0.74,1.58-1.569
	c-0.056-0.938-1.247-1.827-2.34-1.745c-0.857,0.064-1.472,0.682-1.469,1.477C131.964,293.405,133.044,294.295,134.19,294.248z
	 M299.996,89.933c-0.185-0.071-0.371-0.143-0.556-0.214c-0.39,0.721-0.843,1.416-1.155,2.17c-0.418,1.011-0.91,1.887-2.24,2.078
	c0.514,0.5,0.961,0.908,1.486,1.084c0.3,0.101,0.898-0.056,1.067-0.301C299.608,93.291,299.652,91.571,299.996,89.933z"/>
<path style="fill:none;stroke:#FFFFFF;stroke-width:1.5;stroke-miterlimit:10;" d="M85.74,216.27
	c3.956-0.971,7.607-1.906,11.278-2.76c13.549-3.152,27.203-5.783,40.959-7.832c10.314-1.536,20.656-2.92,31.017-4.091
	c10.84-1.225,21.712-2.196,32.583-3.123c6.691-0.57,13.402-0.952,20.111-1.238c12.523-0.533,25.051-0.986,37.58-1.367
	c5.635-0.172,11.278-0.093,16.918-0.126c0.646-0.004,1.292-0.001,2.231-0.001c-0.536,1.794-0.913,3.353-1.466,4.848
	c-1.697,4.587-0.709,3.752-5.392,4.174c-10.33,0.929-20.658,1.883-30.906,3.531c-1.36,0.219-2.712,0.493-4.06,0.775
	c-0.38,0.08-0.734,0.282-1.079,0.6c12.344-0.434,24.621,0.261,37.097,1.108c-0.203,0.632-0.299,1.076-0.482,1.482
	c-11.795,26.145-31.029,44.172-58.32,53.38c-9.83,3.317-19.958,5.076-30.3,5.732c-6.119,0.388-12.23,0.483-18.332-0.143
	c-7.483-0.768-14.798-2.351-21.869-4.935c-21.68-7.923-39.114-21.368-52.184-40.403c-1.691-2.463-3.049-5.157-4.54-7.756
	C86.291,217.617,86.093,217.056,85.74,216.27z M189.405,235.985c-0.297-1.478-0.439-2.922-0.89-4.263
	c-0.685-2.036-2.247-2.85-4.373-2.548c-1.839,0.261-2.827,1.483-3.342,3.114c-0.794,2.513-0.801,5.077-0.105,7.609
	c0.562,2.047,2,3.206,3.808,3.248c1.825,0.042,3.362-0.992,4.025-2.988C188.971,238.815,189.123,237.375,189.405,235.985z
	 M175.584,236.784c0.018,1.513-0.281,2.753-1.179,3.793c-1.338,1.549-3.119,1.066-4.769,0.842c-0.365,0.948-0.019,1.336,0.768,1.552
	c2.228,0.61,4.641-0.226,5.753-2.258c1.612-2.948,1.7-6.078,0.55-9.203c-0.508-1.38-1.568-2.242-3.114-2.358
	c-1.662-0.124-3.115,0.283-4.07,1.748c-1.03,1.58-1.14,3.276-0.286,4.953c0.907,1.78,3.114,2.503,4.944,1.696
	C174.606,237.362,175,237.106,175.584,236.784z M193.021,231.043c0.903-0.165,1.712-0.407,2.53-0.442
	c1.519-0.064,2.263,0.561,2.39,1.831c0.137,1.378-0.521,2.281-1.924,2.565c-0.525,0.106-1.088,0.048-1.597,0.193
	c-0.274,0.078-0.635,0.413-0.654,0.656c-0.017,0.21,0.358,0.594,0.62,0.659c0.75,0.186,1.549,0.178,2.295,0.377
	c1.138,0.303,1.753,1.126,1.795,2.197c0.043,1.113-0.609,2.137-1.781,2.382c-0.846,0.177-1.765,0.082-2.641-0.001
	c-0.511-0.048-1.001-0.311-1.558-0.496c-0.356,0.868-0.246,1.512,0.618,1.789c1.972,0.631,3.918,0.606,5.655-0.656
	c2.036-1.479,1.961-4.368-0.097-5.772c-0.275-0.187-0.57-0.345-0.944-0.57c0.511-0.46,0.949-0.774,1.286-1.172
	c1.524-1.798,0.762-4.669-1.513-5.203c-1.165-0.274-2.474-0.057-3.699,0.088C193.071,229.555,192.659,230.09,193.021,231.043z
	 M158.02,231.788c0.919-0.164,1.771-0.316,2.703-0.483c0,3.419,0,6.665,0,10.013c-0.725,0.052-1.309,0.095-1.893,0.136
	c-0.985,0.069-0.973,0.596-0.642,1.443c2.188,0,4.331,0.027,6.471-0.031c0.289-0.008,0.566-0.439,0.849-0.674
	c-0.269-0.244-0.503-0.625-0.814-0.703c-0.608-0.153-1.258-0.137-2.111-0.209c0-4.077,0-7.989,0-12.228
	c-1.6,0.464-2.905,0.816-4.191,1.225C157.729,230.488,157.688,230.999,158.02,231.788z"/>
<path style="fill:none;stroke:#FFFFFF;stroke-width:1.5;stroke-miterlimit:10;" d="M76.755,155.538
	c1.683-2.933,3.135-5.464,4.6-8.018c2.082,0,4.06-0.038,6.036,0.017c0.906,0.025,1.597-0.215,2.237-0.874
	c1.083-1.116,2.244-2.155,3.56-3.403c1.066,1.013,2.147,1.932,3.094,2.973c0.873,0.96,1.821,1.321,3.143,1.318
	c18.896-0.045,37.791-0.031,56.687-0.031c0.704,0,1.409,0,2.318,0c0-4.381,0-8.552,0-12.986c12.476-0.006,24.741-0.002,37.268-0.002
	c0.016,2.228,0.037,4.36,0.044,6.491c0.008,2.083,0.002,4.167,0.002,6.361c0.716,0.056,1.237,0.131,1.757,0.131
	c20.215,0.006,40.431,0,60.646,0.022c0.968,0.001,1.711-0.232,2.392-0.942c1.074-1.121,2.235-2.159,3.47-3.338
	c1.154,1.096,2.274,2.085,3.302,3.162c0.755,0.791,1.563,1.312,2.68,1.096c2.303-0.445,3.797,0.519,5.009,2.462
	c1.129,1.811,2.563,3.43,4.106,5.452c-1.024,0.047-1.702,0.104-2.381,0.104c-17.036,0.005-34.072,0.004-51.108,0.004
	c-9.118,0-18.236,0-27.354,0.001c-0.54,0-1.08-0.002-1.619,0.022c-0.819,0.035-1.017,0.478-0.673,1.454c17.576,0,35.234,0,52.978,0
	c0,10.605,0,20.957,0,31.524c-17.681,0-35.282,0-53.015,0c-0.118,0.933-0.212,1.672-0.321,2.53c-12.314,0-24.58,0-36.977,0
	c-0.112-0.767-0.221-1.513-0.36-2.466c-17.093,0-34.156,0-51.33,0c0-10.568,0-20.921,0-31.534c2.129-0.016,4.262-0.038,6.395-0.046
	c2.1-0.008,4.199-0.002,6.299-0.002c2.16,0,4.319,0,6.479,0c2.16,0,4.319,0,6.479,0c2.1,0,4.199,0,6.299,0c2.16,0,4.319,0,6.479,0
	c2.1,0,4.199,0,6.299,0c2.152,0,4.304,0,6.515,0c0.301-0.805,0.392-1.383-0.619-1.457c-0.597-0.044-1.199-0.026-1.799-0.026
	c-25.434-0.001-50.868-0.001-76.302,0C78.697,155.538,77.926,155.538,76.755,155.538z M248.42,188.139
	c0.401-1.898,0.345-29.22-0.045-30.556c-17.47,0-34.945,0-52.602,0c-0.046,3.015-0.043,5.907-0.007,8.84
	c0.948,0.101,1.643,0.175,2.388,0.254c0,0.706,0,1.32,0,1.957c-0.818,0.09-1.512,0.165-2.174,0.238
	c-0.372,1.927-0.315,17.878,0.064,19.267C213.5,188.139,230.972,188.139,248.42,188.139z M158.345,157.58
	c-17.048,0-33.983,0-50.907,0c-0.096,0.273-0.205,0.438-0.205,0.602c-0.018,9.417-0.029,18.833-0.033,28.25
	c0,0.476,0.063,0.953,0.106,1.429c0.004,0.049,0.072,0.092,0.113,0.136c0.04,0.043,0.082,0.085,0.142,0.146
	c16.875,0,33.766,0,50.633,0c0.384-1.769,0.353-17.788-0.034-19.302c-0.843-0.067-1.714-0.136-2.58-0.205c0-0.737,0-1.352,0-1.962
	c1.011-0.094,1.879-0.175,2.765-0.258C158.345,163.383,158.345,160.531,158.345,157.58z M163.616,137.035c0,9.418,0,18.741,0,28.045
	c2.025,0.424,25.492,0.325,26.733-0.093c0.375-3.821,0.2-26.684-0.216-27.952C181.336,137.035,172.537,137.035,163.616,137.035z
	 M182.922,190.313c0-0.836,0-1.483,0-2.13c0-2.82,0.004-5.639-0.001-8.459c-0.002-1.017,0.229-1.914,1.205-2.435
	c2.256-1.205,4.476,0.066,4.501,2.601c0.028,2.819,0,5.639,0.013,8.459c0.003,0.633,0.073,1.266,0.114,1.941c0.779,0,1.36,0,1.922,0
	c0.398-1.694,0.37-18.677-0.013-20.109c-2.331-0.41-26.686-0.277-27.909,0.148c0,6.637,0,13.269,0,20.049
	c0.704-0.048,1.264-0.086,1.982-0.134c0-1.773-0.001-3.383,0-4.993c0.002-1.98-0.024-3.96,0.019-5.939
	c0.026-1.193,0.564-1.897,1.51-2.192c2.536-0.792,4.158,0.365,4.17,2.998c0.013,2.82-0.004,5.639,0.008,8.459
	c0.003,0.569,0.079,1.138,0.118,1.661c1.328,0,2.435,0,3.691,0c0-0.792,0-1.444,0-2.096c0.001-2.82,0.008-5.639-0.002-8.459
	c-0.004-1.028,0.254-1.909,1.238-2.411c2.303-1.175,4.444,0.092,4.463,2.654c0.02,2.82-0.003,5.639,0.01,8.459
	c0.003,0.628,0.076,1.255,0.12,1.929C181.073,190.313,181.839,190.313,182.922,190.313z"/>
<path style="fill:none;stroke:#FFFFFF;stroke-width:1.5;stroke-miterlimit:10;" d="M251.904,157.044c8.166,0,16.353,0,24.529,0
	c0.375,1.359,0.441,31.862,0.064,33.809c-8.166,0-16.353,0-24.523,0C251.563,189.507,251.495,158.946,251.904,157.044z"/>
<path style="fill:none;stroke:#FFFFFF;stroke-width:1.5;stroke-miterlimit:10;" d="M104.249,190.855c-8.35,0-16.53,0-24.685,0
	c-0.41-1.688-0.39-32.335,0.007-33.809c8.177,0,16.364,0,24.678,0C104.249,168.321,104.249,179.496,104.249,190.855z"/>
<path style="fill:none;stroke:#FFFFFF;stroke-width:1.5;stroke-miterlimit:10;" d="M81.905,208.552
	c-1.434-4.064-2.861-8.109-4.297-12.181c6.871-1.531,61.57,2.984,69.764,5.743c-3.548,0.512-6.892,0.982-10.231,1.483
	c-1.362,0.204-2.734,0.394-4.065,0.733c-4.221,1.075-8.547,1.081-12.847,1.348c-8.733,0.543-17.473,0.995-26.202,1.598
	C90.091,207.548,86.174,208.093,81.905,208.552z"/>
<path style="fill:none;stroke:#FFFFFF;stroke-width:1.5;stroke-miterlimit:10;" d="M192.213,131.199
	c-1.839,0-3.679,0.04-5.515-0.031c-0.412-0.016-0.871-0.357-1.2-0.664c-0.921-0.858-1.737-1.834-2.693-2.647
	c-0.458-0.389-1.136-0.706-1.723-0.722c-2.698-0.075-5.399-0.016-8.098-0.042c-0.725-0.007-1.258,0.232-1.703,0.798
	c-0.631,0.8-1.348,1.536-1.95,2.356c-0.557,0.759-1.236,1.016-2.16,0.983c-1.658-0.059-3.321-0.017-5.082-0.017
	c0.746-1.293,12.526-12.508,15.208-14.544c5.012,4.688,10.039,9.39,15.067,14.091C192.312,130.906,192.262,131.053,192.213,131.199z
	"/>
<path style="fill:none;stroke:#FFFFFF;stroke-width:1.5;stroke-miterlimit:10;" d="M156.373,133.934
	c-0.038-0.392-0.09-0.687-0.09-0.982c0.001-0.294,0.054-0.588,0.082-0.862c1.291-0.384,39.329-0.494,41.756-0.118
	c0,0.612,0,1.245,0,1.88C196.567,134.289,159.268,134.386,156.373,133.934z"/>
<path style="fill:none;stroke:#FFFFFF;stroke-width:1.5;stroke-miterlimit:10;" d="M61.125,113.274
	c-1.131-1.379-2.262-2.758-3.567-4.349C59.596,109.498,60.796,110.904,61.125,113.274z"/>
<path style="fill:none;stroke:#FFFFFF;stroke-width:1.5;stroke-miterlimit:10;" d="M56.063,89.439
	c-1.307-1.15-1.307-1.15-1.535-2.58c0.665-0.358,1.164-0.016,1.485,0.494C56.416,87.989,56.681,88.707,56.063,89.439z"/>
<path style="fill:none;stroke:#FFFFFF;stroke-width:1.5;stroke-miterlimit:10;" d="M148.83,27.235
	c0.066-0.631,0.126-1.263,0.198-1.894c0.081-0.71,0.333-1.442,0.233-2.123c-0.397-2.707,1.457-3.747,3.379-4.901
	C152.54,19.739,150.205,25.713,148.83,27.235z"/>
<path style="fill:none;stroke:#FFFFFF;stroke-width:1.5;stroke-miterlimit:10;" d="M152.155,45.364
	c0.726,0.422,1.452,0.844,2.281,1.326c-0.682,1.846-1.488,3.383-2.644,4.789c-0.411-1.958-0.008-3.861-0.025-5.77
	C151.895,45.594,152.025,45.479,152.155,45.364z"/>
<path style="fill:none;stroke:#FFFFFF;stroke-width:1.5;stroke-miterlimit:10;" d="M144.609,49.811
	c-0.282,2.193-0.563,4.385-0.869,6.769C142.96,55.376,143.38,52.003,144.609,49.811z"/>
<path style="fill:none;stroke:#FFFFFF;stroke-width:1.5;stroke-miterlimit:10;" d="M145.147,26.898
	c-0.277-0.926-0.113-1.388,0.584-1.74C146.321,25.994,145.824,26.351,145.147,26.898z"/>
<path style="fill:none;stroke:#FFFFFF;stroke-width:1.5;stroke-miterlimit:10;" d="M102.513,63.988
	c0.092-1.942,0.249-2.147-1.807-1.861c-0.563-2.258,1.266-4.871-1.053-7.155c-0.649,0.911-1.207,1.693-1.765,2.475
	c0.442-2.792,1.448-5.309,3.279-7.42c0.771-0.888,1.275-0.859,2.076,0.067c0.662,0.765,1.196,1.643,1.774,2.48
	c2.21,3.202,4.406,6.414,6.628,9.608c0.602,0.866,1.315,1.665,1.501,2.911c-0.638,0.055-1.099,0.126-1.561,0.128
	c-1.738,0.006-3.475-0.017-5.213-0.016c-0.81,0.001-1.45-0.066-1.843-1.023C104.075,63.073,103.911,63.12,102.513,63.988z"/>
<path style="fill:none;stroke:#FFFFFF;stroke-width:1.5;stroke-miterlimit:10;" d="M97.762,63.885
	c-0.162-2.079,0.019-4.028,1.004-5.886c0.697,1.754,0.927,3.567,0.768,5.391C99.458,64.279,98.686,64.208,97.762,63.885z"/>
<path style="fill:none;stroke:#FFFFFF;stroke-width:1.5;stroke-miterlimit:10;" d="M113.601,291.532
	c-0.353,1.304-0.924,2.668-2.415,3.349c-1.689,0.772-3.645-0.519-3.674-2.376c-0.023-1.458,1.263-3.28,2.629-3.723
	C111.791,288.247,113.641,289.617,113.601,291.532z"/>
<path style="fill:none;stroke:#FFFFFF;stroke-width:1.5;stroke-miterlimit:10;" d="M94.804,281.193
	c1.95-1.314,3.597-2.425,5.244-3.535c0.096,0.072,0.192,0.143,0.289,0.215c-0.543,1.902-1.085,3.804-1.72,6.03
	C97.28,282.953,96.199,282.185,94.804,281.193z"/>
<path style="stroke:#FFFFFF;stroke-width:1.5;stroke-miterlimit:10;" d="M214.4,28.01c-1.161,0.592-1.988,1.014-2.949,1.504
	C211.692,27.543,212.381,27.138,214.4,28.01z"/>
<path style="stroke:#FFFFFF;stroke-width:1.5;stroke-miterlimit:10;" d="M301.552,101.472c0.342,0.504,0.684,1.007,1.026,1.511
	c-0.053,0.103-0.106,0.206-0.159,0.31c-0.439-0.129-1.057-0.131-1.266-0.424c-0.205-0.289,0.004-0.873,0.032-1.327
	C301.307,101.518,301.43,101.495,301.552,101.472z"/>
<path style="stroke:#FFFFFF;stroke-width:1.5;stroke-miterlimit:10;" d="M303.886,98.937c0.104,1.135-0.398,1.297-1.127,1.48
	C302.706,99.598,303.176,99.375,303.886,98.937z"/>
<path style="stroke:#FFFFFF;stroke-width:1.5;stroke-miterlimit:10;" d="M302.207,99.291c-0.43,0-0.859,0-1.434,0
	c0.649-0.517,0.649-0.517,1.406-0.363C302.189,99.049,302.198,99.17,302.207,99.291z"/>
<path style="fill:none;stroke:#FFFFFF;stroke-width:1.5;stroke-miterlimit:10;" d="M71.326,259.468
	c-1.721,1.538-3.361,1.409-4.231-0.129c-0.35-0.619-0.452-1.253,0.093-1.81c0.531-0.543,1.212-0.612,1.79-0.17
	C69.769,257.964,70.47,258.688,71.326,259.468z"/>
<path style="fill:none;stroke:#FFFFFF;stroke-width:1.5;stroke-miterlimit:10;" d="M280.863,258.965
	c-0.982,1.175-1.886,2.256-2.793,3.34c-1.187-1.04-1.345-2.234-0.53-3.28C278.363,257.968,279.223,257.903,280.863,258.965z"/>
<path style="fill:none;stroke:#FFFFFF;stroke-width:1.5;stroke-miterlimit:10;" d="M213.491,304.169
	c0.867,1.958,0.251,3.403-1.417,3.81c-0.769,0.188-1.463,0.058-1.836-0.693c-0.375-0.754-0.11-1.442,0.587-1.843
	C211.64,304.974,212.523,304.624,213.491,304.169z"/>
<path style="fill:none;stroke:#FFFFFF;stroke-width:1.5;stroke-miterlimit:10;" d="M187.596,236.197
	c-0.25,1.324-0.41,2.567-0.735,3.766c-0.267,0.988-0.972,1.648-2.061,1.716c-0.986,0.062-1.873-0.543-2.247-1.724
	c-0.816-2.574-0.785-5.18,0.067-7.744c0.323-0.971,1.006-1.616,2.123-1.622c1.008-0.006,1.73,0.435,2.078,1.634
	C187.2,233.527,187.353,234.896,187.596,236.197z"/>
<path style="fill:none;stroke:#FFFFFF;stroke-width:1.5;stroke-miterlimit:10;" d="M172.879,230.596
	c1.505-0.047,2.623,1.204,2.678,2.997c0.049,1.576-0.95,2.721-2.426,2.781c-1.521,0.062-2.594-1.066-2.638-2.773
	C170.448,231.828,171.389,230.643,172.879,230.596z"/>
<path style="fill:none;stroke:#FFFFFF;stroke-width:1.5;stroke-miterlimit:10;" d="M225.042,158.92c2.425,0,4.609,0,6.91,0
	c0,2.635,0,5.176,0,7.847c-2.235,0-4.424,0-6.852,0C224.955,164.247,225.046,161.701,225.042,158.92z"/>
<path style="fill:none;stroke:#FFFFFF;stroke-width:1.5;stroke-miterlimit:10;" d="M211.315,166.83c-2.308,0-4.453,0-6.581,0
	c-0.414-1.332-0.473-5.988-0.093-7.913c2.165,0,4.351,0,6.675,0C211.315,161.547,211.315,164.086,211.315,166.83z"/>
<path style="fill:none;stroke:#FFFFFF;stroke-width:1.5;stroke-miterlimit:10;" d="M221.522,166.807c-2.248,0-4.386,0-6.519,0
	c-0.473-1.232-0.561-5.738-0.132-7.868c2.152,0,4.332,0,6.652,0C221.522,161.515,221.522,164.057,221.522,166.807z"/>
<path style="fill:none;stroke:#FFFFFF;stroke-width:1.5;stroke-miterlimit:10;" d="M241.696,158.882c0,2.73,0,5.223,0,7.864
	c-2.285,0-4.509,0-6.863,0c0-2.552,0-5.087,0-7.869C237.104,158.776,239.374,158.771,241.696,158.882z"/>
<path style="fill:none;stroke:#FFFFFF;stroke-width:1.5;stroke-miterlimit:10;" d="M211.254,186.429c-2.257,0-4.438,0-6.736,0
	c0-2.644,0-5.176,0-7.821c2.26,0,4.444,0,6.629,0C211.521,179.867,211.596,184.005,211.254,186.429z"/>
<path style="fill:none;stroke:#FFFFFF;stroke-width:1.5;stroke-miterlimit:10;" d="M225.127,186.227c0-2.455,0-4.939,0-7.681
	c2.251-0.084,4.471-0.075,6.819,0.007c0,2.644,0,5.172,0,7.684C230.362,186.656,226.709,186.656,225.127,186.227z"/>
<path style="fill:none;stroke:#FFFFFF;stroke-width:1.5;stroke-miterlimit:10;" d="M234.853,178.593c2.311,0,4.497,0,6.796,0
	c0,2.628,0,5.16,0,7.82c-2.283,0-4.464,0-6.796,0C234.853,183.834,234.853,181.305,234.853,178.593z"/>
<path style="fill:none;stroke:#FFFFFF;stroke-width:1.5;stroke-miterlimit:10;" d="M234.919,168.811c2.244,0,4.393,0,6.693,0
	c0,2.582,0,5.114,0,7.772c-2.221,0-4.41,0-6.6,0C234.625,175.315,234.558,171.091,234.919,168.811z"/>
<path style="fill:none;stroke:#FFFFFF;stroke-width:1.5;stroke-miterlimit:10;" d="M204.463,176.697c0-2.761,0-5.205,0-7.796
	c2.29,0,4.522,0,6.872,0c0,2.52,0,5.008,0,7.704C209.082,176.818,206.853,176.661,204.463,176.697z"/>
<path style="fill:none;stroke:#FFFFFF;stroke-width:1.5;stroke-miterlimit:10;" d="M214.744,176.551c0-2.557,0-5.095,0-7.707
	c2.31,0,4.499,0,6.802,0c0,2.575,0,5.062,0,7.707C219.329,176.551,217.099,176.551,214.744,176.551z"/>
<path style="fill:none;stroke:#FFFFFF;stroke-width:1.5;stroke-miterlimit:10;" d="M225.038,168.815c2.433,0,4.58,0,6.88,0
	c0,2.573,0,5.103,0,7.763c-2.2,0-4.385,0-6.827,0C224.955,174.063,225.056,171.535,225.038,168.815z"/>
<path style="fill:none;stroke:#FFFFFF;stroke-width:1.5;stroke-miterlimit:10;" d="M221.577,178.609c0,2.616,0,5.101,0,7.845
	c-2.258,0.17-4.478,0.083-6.828,0.037c0-2.701,0-5.234,0-7.882C217.005,178.609,219.185,178.609,221.577,178.609z"/>
<path style="fill:none;stroke:#FFFFFF;stroke-width:1.5;stroke-miterlimit:10;" d="M124.3,166.763c0-2.606,0-5.105,0-7.873
	c2.24-0.14,4.471-0.102,6.83-0.012c0,2.668,0,5.21,0,7.885C128.904,166.763,126.713,166.763,124.3,166.763z"/>
<path style="fill:none;stroke:#FFFFFF;stroke-width:1.5;stroke-miterlimit:10;" d="M141.616,166.816c-2.412,0-4.555,0-6.695,0
	c-0.421-1.21-0.512-5.661-0.142-7.884c2.164,0,4.35,0,6.796,0c0.014,1.338,0.033,2.629,0.04,3.921
	C141.621,164.102,141.616,165.351,141.616,166.816z"/>
<path style="fill:none;stroke:#FFFFFF;stroke-width:1.5;stroke-miterlimit:10;" d="M151.228,159.055c0,2.593,0,5.088,0,7.711
	c-2.28,0-4.463,0-6.911,0c-0.013-1.282-0.031-2.572-0.037-3.861c-0.006-1.255-0.001-2.509-0.001-3.725
	C145.631,158.729,149.195,158.666,151.228,159.055z"/>
<path style="fill:none;stroke:#FFFFFF;stroke-width:1.5;stroke-miterlimit:10;" d="M144.405,178.558c2.304,0,4.443,0,6.567,0
	c0.448,1.292,0.506,6.042,0.083,7.882c-0.49,0.033-1.016,0.093-1.543,0.097c-1.661,0.013-3.322,0.005-5.108,0.005
	C144.405,183.814,144.405,181.281,144.405,178.558z"/>
<path style="fill:none;stroke:#FFFFFF;stroke-width:1.5;stroke-miterlimit:10;" d="M124.327,168.846c2.294,0,4.485,0,6.801,0
	c0,2.555,0,5.043,0,7.537c-1.206,0.395-4.542,0.476-6.801,0.138C124.327,174.056,124.327,171.568,124.327,168.846z"/>
<path style="fill:none;stroke:#FFFFFF;stroke-width:1.5;stroke-miterlimit:10;" d="M144.385,168.851c2.341,0,4.531,0,6.831,0
	c0,2.583,0,5.071,0,7.709c-2.271,0-4.497,0-6.831,0C144.385,174.013,144.385,171.525,144.385,168.851z"/>
<path style="fill:none;stroke:#FFFFFF;stroke-width:1.5;stroke-miterlimit:10;" d="M134.672,176.57c0-2.577,0-5.063,0-7.683
	c2.284,0,4.513,0,6.844,0c0,2.572,0,5.058,0,7.683C139.223,176.57,136.997,176.57,134.672,176.57z"/>
<path style="fill:none;stroke:#FFFFFF;stroke-width:1.5;stroke-miterlimit:10;" d="M124.289,186.31c0-2.594,0-5.078,0-7.688
	c2.312,0,4.538,0,6.864,0c0,2.577,0,5.061,0,7.537C129.902,186.624,126.519,186.712,124.289,186.31z"/>
<path style="fill:none;stroke:#FFFFFF;stroke-width:1.5;stroke-miterlimit:10;" d="M141.497,178.622c0,2.627,0,5.159,0,7.806
	c-2.301,0-4.483,0-6.794,0c0-2.615,0-5.146,0-7.806C136.964,178.622,139.187,178.622,141.497,178.622z"/>
<path style="fill:none;stroke:#FFFFFF;stroke-width:1.5;stroke-miterlimit:10;" d="M120.788,166.798c-2.225,0-4.359,0-6.644,0
	c0-2.58,0-5.122,0-7.827c2.146,0,4.32,0,6.496,0C121.052,160.219,121.147,164.284,120.788,166.798z"/>
<path style="fill:none;stroke:#FFFFFF;stroke-width:1.5;stroke-miterlimit:10;" d="M114.126,178.58c2.296,0,4.427,0,6.809,0
	c0.082,2.606,0.055,5.133,0.003,7.815c-2.331,0.254-4.505,0.149-6.813,0.082C114.126,183.818,114.126,181.283,114.126,178.58z"/>
<path style="fill:none;stroke:#FFFFFF;stroke-width:1.5;stroke-miterlimit:10;" d="M120.741,176.611c-2.246,0-4.381,0-6.631,0
	c0-2.583,0-5.073,0-7.711c2.179,0,4.359,0,6.544,0C121.062,170.186,121.129,174.547,120.741,176.611z"/>
<path style="fill:none;stroke:#FFFFFF;stroke-width:1.5;stroke-miterlimit:10;" d="M187.748,139.699c0,3.077,0,5.913,0,8.886
	c-1.848,0-3.606,0-5.365,0c-0.379-1.25-0.46-6.519-0.099-8.886c0.831,0,1.707,0,2.582,0
	C185.754,139.699,186.641,139.699,187.748,139.699z"/>
<path style="fill:none;stroke:#FFFFFF;stroke-width:1.5;stroke-miterlimit:10;" d="M171.804,159.976c-1.941,0-3.666,0-5.65,0
	c-0.078-2.92-0.064-5.762,0.008-8.758c1.912,0,3.724,0,5.642,0C171.804,154.14,171.804,156.985,171.804,159.976z"/>
<path style="fill:none;stroke:#FFFFFF;stroke-width:1.5;stroke-miterlimit:10;" d="M179.752,151.231c0,2.977,0,5.776,0,8.701
	c-1.847,0-3.611,0-5.49,0c-0.424-1.389-0.162-2.825-0.206-4.234c-0.044-1.434-0.01-2.87-0.01-4.468
	C175.978,151.231,177.789,151.231,179.752,151.231z"/>
<path style="fill:none;stroke:#FFFFFF;stroke-width:1.5;stroke-miterlimit:10;" d="M174.289,139.778c1.834,0,3.555,0,5.411,0
	c0,2.918,0,5.76,0,8.735c-1.754,0.403-3.527,0.151-5.26,0.172C173.965,147.377,173.871,141.939,174.289,139.778z"/>
<path style="fill:none;stroke:#FFFFFF;stroke-width:1.5;stroke-miterlimit:10;" d="M187.715,159.965c-1.868,0-3.628,0-5.512,0
	c0-2.904,0-5.736,0-8.818c1.777-0.145,3.58-0.096,5.512-0.017C187.715,154.118,187.715,156.994,187.715,159.965z"/>
<path style="fill:none;stroke:#FFFFFF;stroke-width:1.5;stroke-miterlimit:10;" d="M166.145,139.788c1.983,0,3.706,0,5.425,0
	c0.419,1.232,0.5,6.684,0.108,8.803c-1.738,0-3.503,0-5.534,0C166.083,145.69,166.097,142.845,166.145,139.788z"/>
</svg>
