<svg xmlns="http://www.w3.org/2000/svg" width="272" height="230" viewBox="0 0 272 230"><path d="M129.111 163.886c-3.828-7.79.01-23.752 10.336-23.448 4.752.141 8.486 6.517 10.639 9.977 2.999 4.822 5.308 10.048 8.446 14.783 1.718 2.592 6.105 3.92 8.374 1.079 5.358-6.714 10.469-15.105 18.08-19.517 1.102-.639 2.146-.821 2.703-.831.34-.005.834.036 1.752.832 3.741 3.24 5.334 8.983 6.765 13.497 1.254 3.953 6.152 5.385 9.202 2.43 4.036-3.909 9.038-6.338 14.497-7.543 1.616-.356 4.19-.4 4.841-.274 1.229.238.735.38.239-.091-.5-.475-.907-3.221-.919-1.884.004-.431.529-1.575-.058-.505-4.774 8.709-18.417 8.34-27.122 8.509-12.002.232-23.968-.838-35.947-1.354-18.161-.782-36.733-.133-54.752 2.253l1.504 11.112c13.957-2.353 28.194-2.316 42.15-4.741 3.09-.536 4.98-4.387 4.103-7.226-1.661-5.376-2.001-11.087-4.284-16.27-2.229-5.058-9.334-2.915-10.782 1.409a11188.46 11188.46 0 0 1-3.733 11.137c-1.895 5.641 5.92 10.001 9.892 5.759 3.522-3.764 4.933-7.724 6.431-12.528 1.138-3.648-1.937-7.449-5.658-7.428-6.039.036-9.722 1.139-14.043 5.443-2.342 2.333-2.134 5.913 0 8.271 11.839 13.085 71.705 16.701 60.551-11.886-2.434-6.241-10.892-5.184-11.522 1.56-.097 1.032-1.068 4.34-1.241 6.19-.245 2.619 1.981 4.943 4.309 5.659 15.552 4.777 35.272 13.814 46.247-3.933 3.994-6.46-6.166-12.351-10.139-5.927-6.815 11.021-23.936 1.318-32.989-1.459l4.309 5.659c.095-1.023 1.065-4.343 1.237-6.19l-11.523 1.56c.216.554.87 3.378.733 2.104.05.459.026.92 0 1.38.085-1.492-.014-.291-.137.11.42-1.37.102-.297-.124.082-.714 1.188.835-.908-.14.115-.201.212-1.321 1.034-.179.211-.516.372-1.082.671-1.646.96-1.459.754 1.108-.39-.497.211-.515.193-1.043.346-1.57.5-1.134.332-2.3.554-3.464.754-1.507.257-5.214.41-7.71.385-5.825-.058-10.737-.748-16.374-2.136a59.858 59.858 0 0 1-3.591-1.019 48.24 48.24 0 0 1-1.645-.56c-.216-.076-2.281-.935-1.08-.406-.85-.374-1.67-.81-2.466-1.285-.285-.169-1.424-1.005-.105.015a7.67 7.67 0 0 1-.973-.926v8.271c.751-.748 2.522-2.143 1.694-1.832.619-.232 2.609-.152 4.078-.147l-5.657-7.427c-.907 2.811-1.412 5.081-3.485 7.277l9.892 5.758c1.234-3.715 2.466-7.431 3.697-11.146l-10.782 1.408c-.445-1 .379 1.588.445 1.846.313 1.227.567 2.469.831 3.705.564 2.641 1.061 5.308 1.867 7.889l4.103-7.227c-13.917 2.463-28.121 2.628-42.035 5.159-3.036.553-4.713 4.188-3.951 6.959.893 3.246 3.91 4.396 6.959 3.951 19.082-2.777 38.952-3.065 58.198-2.075 14.907.768 30.021 1.994 44.876-.061 6.116-.845 11.71-2.433 16.576-6.355 4.534-3.653 10.235-9.828 6.465-15.996-3.278-5.364-10.754-4.885-16.067-4.004-7.479 1.236-14.706 5.259-20.117 10.481l9.202 2.43c-3.246-10.309-9.751-25.372-23.267-21.706-4.973 1.348-9.149 5.203-12.632 8.807-4.543 4.703-8.626 10.049-12.394 15.383h9.208c-7.636-10.389-15.341-30.853-31.673-27.185-12.678 2.847-18.247 23.547-10.706 33.449 1.669 2.194 5.009.376 3.748-2.191zM23.244 162.506c-2.479-4.949 1.236-25.998 8.665-28.473 12.381-3.717 18.569 21.047 24.759 28.473 9.904-34.662 17.334-23.52 33.428 0-17.333 9.905-49.52 6.191-69.33 4.95 4.955-4.95 9.903-12.376 9.903-19.804 1.24 21.045 45.809 24.759 44.569 2.475 1.239 4.953 7.432 6.19 6.191 4.953l-58.185 7.426z" fill="#7dac33"/><path d="M25.453 161.896c-.497-1.882.007-4.119.323-5.996.504-2.981 1.045-5.925 1.904-8.828.956-3.232 3.025-10.342 7.551-9.119 4.341 1.174 7.244 8.399 9.008 11.953 2.533 5.103 4.494 10.627 7.81 15.299 2.746 3.867 8.148 3.248 9.774-1.277 1.873-5.217 3.228-10.55 6.036-15.379.158-.274 1.297-1.858.996-1.499.194-.232 1.768-1.526.751-.813.776-.545-.872.108.576-.242-.566.137-1.415-.137-.214.243-1.312-.415.411.307.725.51.52.368.566.4.146.097.301.253.594.514.88.783 1.557 1.426 2.904 3.084 4.215 4.73 3.307 4.15 6.166 8.696 9.128 13.091l2.091-7.973c-9.421 5.121-20.875 5.617-31.363 5.695-11.702.09-23.363-1.072-35.025-1.871l4.354 10.512c6.479-6.596 11.414-14.723 11.748-24.158H24.471c1.221 15.021 15.469 22.438 29.074 23.654 13.323 1.191 28.43-6.049 27.901-21.18l-12.195 1.65c1.992 6.067 10.059 13.004 16.222 7.552 1.777-1.573 2.15-4.718.863-6.689a3.51 3.51 0 0 0-.214-.302c-4.099-5.591-13.539-.178-9.387 5.485l.148.203.85-6.587 2.214-1.289h2.954c-.464-.09-.342-.02.363.211a7.197 7.197 0 0 1-.953-.652c-.516-.385-.859-.526-1.086-1.233-2.08-6.491-12.455-5.585-12.196 1.651.124 3.48-.896 5.186-3.312 6.692-1.544.963-2.73 1.337-5.281 1.874-1.461.308-3.795.392-6.217.271-3.978-.195-8.439-1.559-12.102-3.816-1.088-.672-3.055-2.504-3.578-3.246-.253-.359-1.36-2.559-1.02-1.695-.223-.563-.373-1.15-.522-1.737-.467-1.825.02 1.11-.132-.817-.627-7.9-12.094-8.066-12.396 0-.226 6.014-4.024 11.268-8.059 15.45-3.872 4.015-.948 10.196 4.352 10.511 12.051.714 24.078 1.734 36.162 1.531 12.216-.205 25.273-1.517 36.109-7.606 2.609-1.466 3.883-5.394 2.092-7.974-3.887-5.595-7.732-11.25-12.115-16.473-2.826-3.369-6.428-6.904-10.861-7.918-13.064-2.986-18.619 16.848-20.641 25.91l8.938-2.359c-7.435-8.264-11.071-30.295-26.569-29.125-7.743.586-11.108 8.156-12.972 14.727-1.624 5.729-3.12 13.948.356 19.337 1.399 2.161 4.871.8 4.192-1.769z" fill="#7dac33"/><path d="M6.099 176.469c27.107-1.643 54.164-2.695 81.29-2.107 13.424.292 26.837.809 40.243 2.112 13.363 1.3 26.717 2.948 40.086 4.028 22.681 1.833 45.611 1.999 68.127-4.035 1.393-.373 2.363-3.313 2.363-5.691 0-3.531-1.48-5.487-3.22-5.902-12.889-3.07-25.877-.505-38.788.637-13.191 1.166-26.478.605-39.686.667-13.416.063-26.839-.172-40.238-1.505-13.645-1.355-27.427-.697-41.087-.558-14.253.145-28.505.46-42.759.479-1.837.002-3.371 2.811-3.371 6.182 0 3.684 1.549 5.767 3.371 6.183 42.575 9.702 85.623-8.939 128.082 3.385v-11.705c-15.574 7.341-31.76 7.273-47.732 7.306-4.213.009-4.197 11.762 0 11.957 20.924.972 41.856.297 62.783.095 9.405-.091 18.768.388 28.166.819 8.917.408 18.15.145 26.748-4.692 4.114-2.314 2.358-14.161-1.779-11.835-8.301 4.67-17.066 4.718-25.672 4.364-9.164-.376-18.293-.781-27.463-.654-20.93.291-41.855 1.001-62.783-.054v11.957c16.555.033 33.347.022 49.493-7.558 2.996-1.407 3.332-10.731 0-11.705-43.089-12.584-86.669 5.87-129.843-4.044v12.364c27.41.012 54.82-1.185 82.227-.034 6.688.281 13.368 1.09 20.061 1.316 6.727.229 13.454.25 20.182.209 13.234-.082 26.537.314 39.76-.71 13.43-1.041 26.91-4.034 40.329-1.062l-.855-11.594c-26.529 7.559-53.344 6.527-80.085 4.329-13.306-1.095-26.604-2.468-39.918-3.159-13.508-.701-27.063-.441-40.574-.216-22.469.376-45.126 1.696-67.457 6.474-1.345.289-1.422 4.043-.001 3.957z" fill="#d98737"/><path d="M149.73 208.421c2.99.58 6.002 1.873 3.412 4.466-2.766 2.771-10.058 1.548-13.532 1.773-14.692.954-29.383 2.306-44.129 2.042-7.436-.135-14.571-1.553-22.054-1.533-6.346.013-12.454-.804-18.719-1.368-4.927-.447-9.887-.132-14.356-2.751 1.932-1.227 5.733-1.669 7.897-2.345 3.187-.995 6.689-.736 9.985-.969 12.832-.904 25.728-1.084 38.584-1.084 8.901 0 17.803.182 26.69.611 3.322.162 6.487.633 9.699 1.064 4.257.568 8.546-.376 12.813-.315.796.011 2.25.122 3.71.409z" fill="#c28552" stroke="#c28552" stroke-width="1.293" stroke-miterlimit="22.926"/><path d="M224.182 208.069c2.045.237 4.091.485 6.142.744 5.329.669 10.46.54 15.656 2.362.842.296-3.885 2.328-4.138 2.384-2.085.475-4.265.355-6.294 1.09-5.106 1.852-9.57 2.918-15.162 3.345-12.873.983-25.847-.061-38.544-2.27-4.139-.72-7.632-.695-11.627.131-4.068.847-8.057-.016-12.151-.098-4.515-.095-9.348-.427-12.39-4.32-2.53-3.244.442-3.38 3.45-3.95 11.407-2.155 23.52-2.006 35.074-2.006 13.501 0 26.688 1.052 39.984 2.588z" fill="#c28552" stroke="#c28552" stroke-width="1.293" stroke-miterlimit="22.926"/><path d="M175.806 23.714l4.461-4.346.251 3.27 8.302-1.172-2.262 2.837 6.628-1.162-2.345 2.599s11.291.771 18.468 17.987c0 0 6.361.029 7.194 7.502 0 0 .322 7.968-7.658 8.405 0 0-.859 3.233-2.238 4.4 0 0 2.268-.268 8.695 6.245 0 0 11.168-6.168 8.283-16.803 0 0-.487-3.191-6.472-9.648-5.985-6.456-1.032-16.428 5.246-16.633 0 0 11.634-3.726 10.073 9.434 0 0-1.176 3.088-2.771 3.333 0 0-5.009 2.483-7.591-2.644 0 0-1.006-2.585.893-4.353 0 0 2.654-1.556 4.145.755 0 0 .33.932-.291 1.413 0 0 .215 1.813 1.564.869 0 0 2.274-2.947-1.375-4.977 0 0-4.119-1.864-6.529 2.182-2.415 4.046-.557 6.961.896 8.712 1.454 1.745 8.716 8.701 6.632 17.143-2.082 8.441-4.642 11.016-8.326 12.78 0 0 6.295-1.205 7.779 2.891 1.488 4.095-.271 9.12-.271 9.12s-2.55 2.465-5.003 1.595c0 0-3.857-.38-3.566-2.69 0 0-.544-1.854.023-2.786l-10.313-.536-10.515-2.459-13.31-.694-10.053-.833-5.206-2.896-4.17-2.319s-12.798-2.079-16.407-14.042c0 0-6.969 1.234-7.496-6.872 0 0 .185-7.565 8.52-7.285 0 0 1.868-10.256 14.752-15.867-.001.001 6.105-2.348 11.363-2.455z" stroke="#000" stroke-width="2.791" stroke-miterlimit="22.926"/><path d="M150.469 42.09s2.989-9.129 10.848-13.593c0 0 9.424-4.268 14.552-4.089l3.676-3.335.386 2.581 6.95-1.091-2.092 2.744 6.059-.891-1.193 1.91s6.027.608 10.439 5.132c4.416 4.528 9.243 12.04 9.599 17.952.358 5.908-1.861 12.124-5.014 15.053 0 0 3.989-3.296-.52-8.312 0 0 4.788-2.796.24-13.68 0 0-5.559-8.001-14.051-10.432 0 0-1.27 1.9-3.265 3.23 0 0-2.411-2.212-2.751-3.919 0 0-2.001 5.767-3.839 7.753 0 0-3.059-2.135-3.786-6.982 0 0-1.403 2.28-2.354 3.509 0 0-3.807-1.204-5.564-4.204 0 0-13.261 3.303-15.396 15.079 0 0-1.165 8.492 3.934 10.803 0 0-4.488 3.473-1.438 8.143 0 0-7.166-4.721-7.489-13.955.002.001-.105-4.767 2.069-9.406z" fill="#b89983"/><path d="M205.887 64.828s-7.396 6.003-23.974 6.883c0 0-10.104.421-17.297-1.887l10.024 5.233 21.007 1.293 12.165 1.874 10.656.289s.032-2.775 1.562-3.866c0 0-1.672 5.563-.099 8.327 0 0 1.417 1.467 3.574 1.311 0 0 2.334-.664 2.977-1.542 0 0 1.226-7.116-.819-8.66 0 0-3.529-3.335-11.984.931 0 0 1.213-1.984 4.425-2.855 3.21-.875-2.962-.272-2.962-.272s-3.093-4.244-9.255-7.059z" fill="#897058"/><path d="M215.959 70.301l3.961.567s5.707-2.255 7.232-11.806c1.523-9.553-5.679-15.65-5.679-15.65s-4.372-3.482-2.397-9.383c1.972-5.898 7.676-4.317 9.232-3.144 1.56 1.176 2.628 4.72-.696 6.429 0 0-1.808-.171-1.695-1.985 0 0 .54-1.876-1.039-1.899-1.581-.017-2.665 1.794-2.031 3.519.635 1.725 3.004 3.185 4.833 2.686 1.829-.495 4.242-1.283 3.906-6.749-.34-5.467-6.828-5.684-9.302-4.902-2.476.782-7.393 3.502-6.645 10.056.75 6.551 7.313 7.634 9.006 15.83 1.699 8.196-5.012 15.443-7.825 16.002l-.861.429z" fill="#b89983"/><path d="M209.917 45.167s2.168 6.426-.453 13.588c0 0 5.564-.629 6.145-7.562 0 0-.162-5.444-5.692-6.026zM149.188 42.779s-6.669.246-7.017 6.782c0 0-.279 5.076 5.831 5.862 0 0-2.101-4.535 1.186-12.644z" fill="#f5cfc4"/><path d="M174.994 161.307s-13.645-1.25-21.958 15.379c0 0-5.022 8.625-4.239 14.113 0 0-4.395 5.334-2.038 8.787 0 0-1.459 5.316 2.306 8.925 0 0 6.324 4.88 15.579 4.407 0 0 7.374.162 9.257-2.037 0 0 5.175 2.037 8.627.471 0 0 2.202 3.501 4.085 3.813 1.885.314 17.208 1.413 26.503-3.968 0 0 5.398-2.936 3.767-9.412 0 0 11.921-1.413 15.059-13.964 3.135-12.55-1.883-17.57-2.199-20.238-.313-2.662.786-6.744 5.023-7.057 4.235-.315 5.645 3.293 4.393 4.549-1.257 1.255-6.431-1.566-6.747 2.508-.31 4.08.784 8.943 7.374 8.475 6.591-.471 8.002-9.727 5.649-14.434-2.354-4.706-9.102-7.53-18.043-4.079-8.94 3.451-5.333 10.983-5.333 13.02 0 2.041 5.962 17.101-1.253 22.908 0 0-2.671 2.352-4.238 1.881 0 0-.47-13.176-5.49-21.335-.002-.002-10.509-23.847-36.084-12.712z" stroke="#000" stroke-width="2.791" stroke-miterlimit="22.926"/><path d="M171.265 162.889s-10.342 2.561-15.463 11.672c0 0-5.733 9.834-5.12 15.77 0 0 .717 4.204 5.938 4.919 5.225.716 12.902.923 16.592 5.836 0 0 1.536 3.38 1.633 5.02 0 0 3.9.51 4.205-4.509 0 0 .307-6.963-4.096-9.418 0 0-3.383-1.643-9.628-1.947-6.246-.306-8.296-3.686-7.271-9.525 0 0 .511 5.223 2.254 6.351 0 0 2.306-11.085 12.803-13.825 0 0 10.136-2.969 17.612 2.766 0 0 4.403 2.866 6.043 10.754 0 0 4.093-.41 3.688-10.447 0 0 2.969 8.092-2.662 11.471 0 0-2.767 1.741-7.476 2.457-4.715.72-8.707 4.811-10.141 9.933 0 0 .412 4.916-2.15 6.352 0 0 1.126 2.865 3.891 2.045 0 0-.408-6.042 2.358-7.681 0 0 3.17-2.559 11.982-3.791 8.805-1.224 8.69-2.395 11.075-6.035 0 0 1.257-1.756.494-6.557 0 0 3.07 5.938-1.845 10.958 0 0 1.845.1 3.072 1.02 0 0-1.639-.51-5.12 0 0 0-17.201 3.176-19.149 5.327 0 0-3.384 4.918-.613 10.034 0 0 .919 2.561 3.888 2.359 0 0 9.628.509 18.743-2.049 0 0 14.341-1.743 7.168-13.316 0 0 1.229.312 2.766 1.639 0 0 10.856-1.125 13.928-13.616 0 0 2.969-7.167-.922-15.567-3.893-8.396 1.74-11.369 3.071-11.674 1.331-.308 8.295-.719 7.682 5.325 0 0-.614 1.946-2.66 1.741-2.05-.205-5.021-.412-3.997 3.789 1.025 4.199 2.869 4.299 6.043 4.199 0 0 7.887-1.847 4.405-12.906 0 0-3.895-7.27-15.26-3.688 0 0-6.554 1.947-6.349 7.477.202 5.531 2.761 12.084 2.867 18.025.1 5.94-2.255 12.391-8.911 12.9l-.82 1.743s-.92-13.622-4.097-19.967c-3.172-6.353-9.421-17.925-21.811-18.435l-11.674 1.943-6.966 1.128z" fill="#b89983"/><path d="M149.76 191.359s-3.278 3.992-2.048 6.858c0 0 .918-2.353 2.97-3.379 0 0-4.099 5.735-2.46 9.628 1.638 3.893 7.373 7.786 18.743 7.166 0 0 5.73-.101 6.45-1.842 0 0 1.125-1.945 1.125-2.767h-.51s.101-4.405-3.896-7.371c0 0-3.688-2.315-12.081-3.276-6.25-.72-8.293-5.017-8.293-5.017z" fill="#b89983"/><path d="M175.906 207.16s-.839 2.524-1.309 2.809c0 0 4.671 1.773 7.758.372l-.186-.749s-3.929 1.403-5.241-2.432h-1.022z" fill="#584b3a"/><path d="M161.229 188s2.71-11.594 12.338-13.65c9.627-2.059 16.173 1.213 19.448 5.982 0 0 2.055 2.896 2.709 7.016 0 0-4.899 1.488-6.638 1.866-2.1.457-7.37 2.843-9.349 8.227 0 0-.747-5.424-4.576-6.826-3.835-1.401-13.09-.56-13.932-2.615z" fill="#e3d5bf"/><path d="M160.28 168.977s19.691 2.255 30.669 1.946c0 0 12.92.079 15.879-.936 0 0 6.072 8.174 7.161 15.337 0 0 1.714 8.018 1.79 12.61 0 0 .811 1.226.956 2.533 0 0-1.538-1.129-2.766-1.639 0 0 3.056 4.478 1.575 7.9 0 0-1.375 4.369-8.743 5.416 0 0-10.796 2.911-19.51 2.058 0 0-2.728 0-3.897-4.204 0 0-.623-1.943-.081-4.594 0 0 .787-2.566 2.261-2.88 0 0 2.181-.933 3.815 3.813 0 0 .466 1.87 1.637 1.87 1.164 0 14.633-1.558 19.303-4.514 0 0 3.424-2.337 1.791-5.607 0 0-.477-2.131-6.14-2.635 0 0 3.262-3.125 2.793-7.252 0 0-.233-2.568-.855-3.503 0 0 1.089 5.529-2.571 9.265 0 0-1.249 2.178-7.782 2.88 0 0-5.762.7-9.967 2.337 0 0-4.746 1.555-5.136 4.278 0 0-.863 3.665-.548 5.101 0 0-2.882.769-3.891-2.045 0 0 2.353-1.009 2.15-6.352 0 0 .886-2.853 1.821-4.173 0 0-.234 2.256 1.398 1.865 1.637-.387 2.883-1.787 3.35-2.334 0 0 .389-.855 3.035-1.17 2.646-.307 14.869-1.32 15.88-6.381 1.013-5.06 1.4-10.666-1.635-15.18 0 0-5.839 1.556-13.625 1.092 0 0-3.655-.235-5.056-.627 0 0-6.618-1.863-13.544.313.003.003-8.402-1.24-11.517-4.588z" fill="#897058"/><path d="M162.912 170.796s2.802 1.624 2.802 3.988c0 0-1.334 2.672-4.133 4.804 0 0-3.309 2.07-3.18 3.323.143 1.347 1.517 4.228 1.906 4.145 0 0 1.493-9.462 12.205-13.749l-9.6-2.511zM200.442 176.482s.55 8.931-3.676 10.268c0 0-.611-2.584-1.054-3.469 0 0 4.212-1.773 4.73-6.799z" fill="#897058"/><path d="M160.28 168.977s-3.322 3.145-4.005 4.773c0 0 5.059-.148 9.527 1.006l1.361-2.16-6.883-3.619zM150.875 186.655s-.75 3.186.155 4.796c0 0 1.534 3.26 5.151 3.732 3.614.473 10.292 1.1 12.889 2.676 0 0 3.028 1.451 4.008 3.104.984 1.65 1.415 3.482 1.766 5.142 0 0 3.623.438 4.134-4.003 0 0 .551-3.654-1.534-7.391 0 0-1.377-1.688-2.832-1.61-1.452.081-1.546 2.83-1.569 3.54-.039 1.098-.906.824-1.063.824-.156 0-5.18-3.184-11.239-3.971-6.37-.825-8.65-1.453-9.866-6.839z" fill="#897058"/><path d="M172.626 202.336s-1.133-1.605-2.174-1.462c0 0-2.975 1.416-3.634 5.759 0 0-.282.945-.093 1.559.187.611-.664 1.319-.943 1.319-.285 0-11.428.614-14.776-5.569 0 0-1.983-3.539-2.176-5.758 0 0-1.789 3.915-.563 6.513 0 0 2.075 4.438 8.212 5.996 0 0 6.187 1.698 12.746.757 0 0 3.213-.283 4.013-1.369 0 0 1.38-2.424 1.302-3.056h-.51c.001-.001-.081-2.85-1.404-4.689zM147.61 195.564s1.467-1.03 3.072-.725c0 0-1.791.817-2.97 3.379 0 0-.556-1.236-.102-2.654zM158.065 180.802s.596 1.106 2.095.427l-1.273 1.842-.31.365s-.37-1.299-.512-2.634zM163.194 174.203s1.246.336 1.332 1.218c.081.876-.4 1.811-1.023 2.381l-.082.534 3.143-3.709-3.174-1.42-.196.996z" fill="#897058"/><path d="M208.986 196.439s1.934.226 2.978 1.328l.067-.499-3.941-2.113-2.108.3c-.001 0 2.155.233 3.004.984z" fill="#ab936f"/><path d="M168.52 202.207s.747-.652.747.189c0 0-2.896 3.83-2.057 6.64 0 0 .186 1.112 1.963.28 0 0-1.867 2.239-2.706-.193 0 0-.941-3.736 2.053-6.916zM185.814 203.236s2.434 4.3 1.31 8.134c0 0 .28 1.12 1.309.372-.001 0 1.122-7.573-2.619-8.506z"/><path d="M215.779 197.936l.854-1.461s6.571-.073 8.287-7.852c0 0 1.546-5.268-.285-11.846 0 0-2.291-9.616-1.945-11.904l3.605-5.035 3.49-1.715 4.404-1.031s4.124-.115 6.581 1.371c2.459 1.489 4.119 2.807 4.295 7.209.172 4.409-.918 6.701-3.72 8.354-2.806 1.661-6.581.345-7.099-2.054-.515-2.407-1.086-3.953.286-5.037 0 0 1.331-.689 3.302-.258 1.963.43 2.648-1.691 2.648-1.975 0 0 .805-5.094-5.772-5.206-6.585-.116-6.643 7.379-6.128 8.467 0 0 .917 3.318 1.486 4.009.576.684 2.976 8.123.517 15.618 0 0-1.945 7.324-8.355 10.935 0 0-3.552 1.949-5.495 1.943l-1.427-2.232.471-.3z" fill="#897058"/><path d="M124.311 99.623s15.167-33.904 63.343-28.847c0 0 34.974 1.222 50.559 29.146 0 0 5.95 11.3 5.95 14.276 0 0 12.418-5.095 19.556 5.905 0 0 9.294 12.831.372 25.024 0 0-6.544 8.627-24.092 5.654 0 0-13.962 21.035-46.186 20.063 0 0-44.544 1.173-67.124-11.145 0 0-12.788-7.436-15.465-17.249 0 0-2.953-7.359-.869-12.715 0 0-16.193.746-17.57-16.728 0 0-.294-14.277 16.36-20.228 0 .002 10.703-3.563 15.166 6.844z" stroke="#000" stroke-width="2.791" stroke-miterlimit="22.926"/><path d="M133.036 90.44s10.52-14.079 29.929-17.086c0 0 27.6-5.85 54.023 8.05 0 0 18.65 9.34 25.664 33.634 0 0-7.393 5.267-6.304 17.546 0 0 .496 12.771 3.003 16.402 0 0-11.309 17.619-32.432 20.035 0 0 15.757-3.473 23.789-15.402 0 0 4.631-6.898 4.134-20.658 0 0-.006-14.996-9.803-27.303 0 0-7.942-11.814-19.337-15.198 0 0-12.811-5.524-37.35-6.713 0 0-20.049-1.894-35.316 6.693z" fill="#897058"/><path d="M131.536 92.512s-3.885 3.254-6.388 8.638c0 0-6.951 15.716-10.017 18.91 0 0-5.132 12.023-2.506 20.663 0 0 4.008 11.27 14.902 17.528 0 0 15.713 8.357 41.447 9.769 0 0 16.368 2.326 36.054.336 0 0 19.206-3.554 24.806-17.239 0 0 6.131-13.524 1.124-30.804 0 0-7.513-25.42-32.934-30.431 0 0-30.063-7.569-51.979-2.811.002-.001-10 2.561-14.509 5.441z" fill="#fab9da"/><path d="M120.64 96.768s-6.26-6.261-15.775-.5c0 0-11.145 7.512-10.395 18.156 0 0 .5 7.141 9.267 11.899 0 0 6.01 1.879 7.889.125 0 0 1.001-5.51 3.886-9.142 0 0 7.257-11.648 7.633-15.653-.001 0-1.004-4.383-2.505-4.885zM243.875 116.093s5.62-3.794 13.881.587c0 0 7.965 4.025 8.642 18.408 0 0 .25 8.141-7.135 12.271 0 0-7.767 4.883-18.662 1.252 0 0-3.137-8.063-2.752-21.035 0 0-.485-6.847 6.026-11.483z" fill="#fee7c6"/><path d="M114.043 119.846s5.511-2.752 10.747-1.307c0 0 .824.412.064.689 0 0-7.23 2.615-11.295 1.861l.484-1.243z"/><path d="M152.508 132.666s1.73 1.381 2.833 1.546c0 0 1.663.509 4.604-.732 3.102-1.317 5.467-.333 6.847.156 1.373.487 5.035 2.454 7.032 1.151 0 0 2.304-2.216 2.51-2.787 0 0-.614 4.163-3.37 4.568 0 0-1.859.488-5.167-1.381-3.304-1.873-6.129-1.465-8.053-.407-1.935 1.059-6.479 1.544-7.236-2.114z" fill="#fab0d6"/><path d="M158.977 74.274s38.589-5.021 60.947 13.312c0 0 3.279 2.623 2.628 5.246 0 0-1.15 2.295-3.444 2.295 0 0-10.493-5.74-19.02-6.391 0 0-39.021-12.465-66.895 1.31.001 0 9.725-12.142 25.784-15.772z" fill="#b89983"/><path d="M111.853 134.523s-.828 13.155 15.287 23.576c0 0 15.163 7.583 32.464 9.008 0 0 27.575 3.681 45.426 1.248 0 0 18.914-3.974 24.003-15.707 0 0 7.469-12.559 1.545-33.176-5.925-20.615-27.49-29.38-34.006-29.975 0 0-16.589-3.672-32.819-4.025 0 0 30.096 2.365 43.603 12.32 13.505 9.955 13.749 26.391 13.749 30.418 0 4.03-2.381 20.904-11.977 28.959-9.596 8.059-47.846 6.182-67.889.336-20.509-5.978-26.066-15.753-29.386-22.982z" fill="#f78ec4"/><path d="M212.562 130.279s-.618.416-.413.828c0 0 .205.481.895.481 0 0 7.44 2.067 11.366 1.997 0 0 1.309-.068 1.101-.688 0 0-.687-.757-1.928-1.033-.001.001-5.373-2.132-11.021-1.585z"/><path d="M195.689 111.34s-1.742 4.749-.029 8.05c0 0 2.931-2.566 4.397-2.932h-.854l-1.1-.369-.853-1.22-1.222-1.586-.339-1.943z" fill="#fab0d6"/><path d="M195.689 111.34s1.648 4.336 4.681 5.092c0 0-2.203.693-3.514-1.1 0 0-1.238-1.93-1.167-3.992z"/><path d="M136.246 102.66s1.142 3.534-1.666 7.446c0 0-.56-2.459-2.052-3.247l1.195-.174 1.098-.855 1.102-.855.323-2.315z" fill="#fab0d6"/><path d="M136.246 102.66s-.688 3.098-3.718 4.199c0 0 1.31.346 2.479-.479.001-.001 2.068-1.724 1.239-3.72zM152.301 131.795s1.445 1.309 2.547 1.445c0 0 1.858.482 4.886-.756 3.034-1.241 5.65.139 7.026.548 1.38.415 5.025 1.722 7.028.621 0 0 2.339-1.169 2.545-1.653 0 0-.824 2.759-3.578 3.098 0 0-1.86.415-5.168-1.168-3.306-1.582-6.133-1.24-8.059-.348-1.927.9-6.476 1.313-7.227-1.787z"/><path d="M168.265 32.849s-14.469 5.07-13.641 16.298c0 0-.248 5.321 4.742 8.064 0 0-6.156 3.824-1.912 8.732 0 0 7.486 4.238 17.295 4.825 0 0 14.302.909 24.778-3.664 0 0 4.826-2.242 5.738-5.489 0 0 .998-2.493-2.746-5.568 0 0 3.828-2.329 2.413-8.648 0 0-1.165-8.563-14.052-14.051 0 0-2.163 2.907-3.989 3.324 0 0-1.833-.832-2.498-2.827 0 0-1.328 4.739-3.905 6.819 0 0-3.078-1.916-4.242-5.739 0 0-.915 1.747-1.745 2.081 0 0-4.076-.914-6.236-4.157z" fill="#f5cfc4"/><path d="M156.737 49.39s-.23 5.965 4.039 9.142c0 0 3.444 2.086 8.979 0 5.542-2.089 13.164-2.905 18.793-.636 5.626 2.267 10.979 4.901 13.706-2.269 2.72-7.17-1.001-8.987-4.359-10.075-3.355-1.092-8.197.125-12.469 1.032-4.266.91-10.677.269-12.944-.801-1.398-.655-12.812-4.935-15.745 3.607z" fill="#f4b4b9"/><path d="M160.831 44.286l-1.676 3.988 10.172 4.21 1.757-2.935zM189.702 49.45l.867 3.253 10.665-2.738-.779-4.455z"/><path d="M168.646 53.582a5.062 5.062 0 0 1-5.058 5.06 5.057 5.057 0 1 1 0-10.114 5.058 5.058 0 0 1 5.058 5.054zM201.721 54.568a5.058 5.058 0 0 1-10.114 0 5.055 5.055 0 0 1 5.058-5.056 5.056 5.056 0 0 1 5.056 5.056zM177.363 59.772l2.459 1.474 2.174-1.823-2.316.841zM178.363 63.707l3.008-.593.054.273-3.008.593z"/><path d="M178.772 62.555l.33.114-.426 1.235-.33-.113z"/><path d="M162.252 52.422c0 .405-.442.73-.982.73-.544 0-.984-.326-.984-.73 0-.399.44-.729.984-.729.54 0 .982.33.982.729z" fill="#fff"/><ellipse cx="162.157" cy="53.756" rx=".856" ry=".634" fill="#fff"/><path d="M199.236 52.675c0 .355-.381.637-.855.637-.472 0-.855-.282-.855-.637 0-.348.384-.631.855-.631.474 0 .855.283.855.631zM198.129 54.105c0 .35-.384.634-.859.634-.472 0-.855-.284-.855-.634 0-.353.384-.637.855-.637.475 0 .859.284.859.637z" fill="#fff"/><path d="M209.804 77.031l9.185 2.632c-.571.934-.025 2.791-.025 2.791-.292 2.302 3.565 2.687 3.565 2.687 2.455.872 5.004-1.596 5.004-1.596s1.754-5.026.273-9.122c-1.49-4.095-7.78-2.889-7.78-2.889l-4.922-.162-7.663 4.658 2.363 1.001z" stroke="#000" stroke-width="2.791" stroke-miterlimit="22.926"/><path d="M207.583 74.3l10.615 4.3s.251-2.943 1.773-4.029c0 0-1.669 5.558-.095 8.326 0 0 1.413 1.464 3.572 1.315 0 0 2.332-.668 2.979-1.548 0 0 1.228-7.112-.822-8.658 0 0-3.526-3.337-11.985.933 0 0 1.197-2.062 4.429-2.858 2.563-.633-4.022-1.205-4.022-1.205l-6.444 3.424zM180.494 39.105s1.957-1.949 3.839-7.753c0 0-1.749 3.113-3.651 5.273 0 0 .401 1.495-.188 2.48z" fill="#897058"/><path d="M175.869 24.408l3.676-3.335.386 2.581 6.95-1.091-2.092 2.744 6.059-.891-1.193 1.91s7.996-.375 15.479 11.491c0 0 10.472 13.096-.454 26.647 0 0 3.986-2.946-.52-8.312 0 0 5.859-5.57-1.52-15.543 0 0-2.831-4.872-12.29-8.569 0 0-1.962 2.774-3.265 3.23 0 0 1.364-1.722 1.566-4.215 0 0-.176-2.579-3.646-4.006 0-.001-6.225-3.021-9.136-2.641zM174.355 35.631s1.62-2.262 2.354-3.509c0 0-1.486 1.776-2.729 1.687 0 0-3.35-.759-5.189-2.381-.001 0 2.124 3.171 5.564 4.203z" fill="#897058"/><path d="M176.708 32.122s2.018 4.668 3.974 4.502l.588 1.298-.775 1.182c-.001.001-3.195-2.285-3.787-6.982zM184.333 31.351s.79 2.526 2.751 3.919l1.282-1.039-.101-1.213c.001 0-1.546 2.259-3.932-1.667z" fill="#897058"/><path d="M214.032 74.773s4.183-2.428 8.167-2.038c0 0 2.625.483 3.015 3.594 0 0 .193 5.444-1.165 6.707 0 0-2.606.985-4.171-.14 0 0-1.542-2.504.095-8.326 0 0-1.563.881-1.755 3.897 0 0-1.362-1.069.386-3.986-.001.001 1.265-1.457-4.572.292z" fill="#b89983"/><path d="M170.967 52.85l-.637-.315 1.417-2.865.637.315zM158.4 47.973l-.843-.415 1.864-3.788.843.415zM156.028 46.705l.841.419 1.866-3.788-.834-.417zM172.41 53.026l-.574-.284 1.28-2.585.573.284zM202.705 49.61l-1.021.158-.713-4.599 1.02-.158zM189.93 52.906l-.735.187-.841-3.314.736-.187zM188.516 53.357l-.735.19-.86-3.306.735-.191zM204.287 49.061l-.988.173-.78-4.446.988-.173z"/><path d="M171.34 73.409s-2.079-.138-7.239 2.613l.672-1.54 1.409-1.479 5.158.406z" fill="#897058"/><path d="M150.981 66.418s-.005 4.296 3.361 7.041c0 0 4.643 3.214 9.9 2.118 0 0 1.422-.674 2.067-2.358 0 0 1.1-1.93-.834-3.516 0 0-3.055-3.254-6.527-4.67 0 0-2.941-.801-4.58.571 0 0-1.461 1.459-1.542 2.549.001-.001-.405-.405-1.845-1.735z" stroke="#000" stroke-width="1.395" stroke-miterlimit="22.926"/><path d="M153.54 68.732s.618-2.425 3.001-2.973c0 0 2.667-.875 7.744 3.732 0 0 2.083 1.845.462 4.505 0 0-1.509 1.815-6.114.192 0 0-5.75-1.806-6.767-5.774l1.435.767.239-.449z" fill="#b89983"/><path d="M156.541 65.76s8.477 3.064 7.144 8.879c0 0 1.9-.193 1.619-3.432.001-.001-2.659-5.175-8.763-5.447zM192.655 77.162s2.883 1.407 4.763.735c0 0 2.142-.535 3.014-1.205l-2.281-1.673-5.496 2.143z" fill="#897058"/><path d="M193.839 66.279s1.226-1.977 3.169-1.912c1.939.065 4.554.021 5.284 1.94 0 0 .329-.11.917-.906 0 0 .144 1.299-.441 2.014 0 0 1.076-.553 1.74-1.44 0 0 0 2.55-1.78 3.2 0 0-3.229 7.206-9.061 7.985 0 0-4.579.085-3.985-3.128 0 0 2.346-5.488 4.157-7.753z" stroke="#000" stroke-width="1.395" stroke-miterlimit="22.926"/><path d="M197.329 65.201s-2.354.308-3.84 3.346c-1.485 3.042-3.62 6.422-1.523 7.176 2.095.755 4.961-.222 7.178-2.799 2.218-2.581 2.974-4.674 2.371-6.156-.607-1.477-3.041-1.482-4.186-1.567z" fill="#b89983"/><path d="M198.946 65.393s.571 5.148-6.102 10.485c0 0 2.717.791 6.3-2.954 0 0 3.416-3.73 2.371-6.156 0 0-.379-1.185-2.569-1.375z" fill="#897058"/><path d="M254.738 119.212s-9.545-.442-12.041 15.271c0 0-1.17 10.713 7.929 10.86 0 0 8.074-1.175 6.314-9.105 0 0-4.994-7.044-10.131 0 0 0 5.429-2.64 7.632.441 0 0 1.911 4.112-1.17 5.434-3.084 1.327-8.809 1.466-8.372-6.608.44-8.073 3.671-12.917 9.839-16.293zM109.973 99.875s8.076 3.142 4.364 17.083c0 0-2.972 9.315-10.57 6.087 0 0-6.256-3.942-1.885-9.865 0 0 6.729-4.006 8.4 3.726 0 0-3.533-4.191-6.491-2.442 0 0-3.093 2.703-1.024 4.933 2.071 2.23 6.762 4.457 9.366-2.397 2.606-6.855 1.707-12.061-2.16-17.125z"/><path d="M60.367 195.125s-6.361-4.703-3.816-12.631c2.543-7.93 10.082-10.477 8.908-16.84-1.176-6.36-5.681-8.907-10.77-4.111 0 0-1.256 1.279-2.252 1.371 0 0-2.386-.286-1.699-2.146 0 0 .642-1.986 3.756-3.629 3.486-1.842 9.498-3.385 12.75 2.701 3.677 6.891 1.055 11.789-1.002 14.433-2.059 2.642-8.519 7.634-6.559 13.507 1.958 5.875 3.426 5.677 4.206 6.463l-3.522.882z" fill="#d0bc9d" stroke="#000" stroke-width="2.791" stroke-miterlimit="22.926"/><path d="M82.71 170.864s3.791-4.003 12.314-3.256c9.975.874 11.827.108 14.811-2.876 0 0 1.17-1.281 1.705-2.027 0 0 .425 2.878-1.601 5.012l10.017-3.304s-.318 2.13-2.025 3.622c0 0 3.519-.109 5.756-1.174 0 0-.107 2.241-2.238 3.303 0 0 10.762 2.346 13.852 16.838 0 0 .429 1.279.107 2.557 0 0 2.77-1.919 4.689.642 0 0 3.838 5.115-.638 11.615 0 0-2.24 1.917-3.519 1.6 0 0-3.623 7.989-13.426 8.843 0 0-17.904 2.879-33.252 1.387 0 0-5.962-.639-9.161-1.92 0 0-8.202-1.597-15.45.425 0 0-2.344.642-3.73-1.593 0 0-8.736-.854-13.746-.643 0 0-1.703.214-2.664-2.237 0 0-1.504-4.769 2.996-4.534 0 0 1.108-.127 2.368.089 0 0-1.1-6.211 7.851-9.302 0 0 1.428-.523 3.942-.641 0 0 2.693.318 4.262.746 0 0 1.243-3.607 4.155-4.688 0 0-.443-8.872 12.625-18.484z" stroke="#000" stroke-width="2.791" stroke-miterlimit="22.926"/><path d="M84.245 171.035s3.551-2.73 12.156-2.119c8.605.616 10.516-.135 13.521-3.346 0 0 0 1.504-1.569 3.145l9.425-2.529s-.478 1.711-2.049 2.596c0 0 3.755.751 6.01-.34 0 0-.753 1.225-2.938 1.571 0 0 6.629 2.047 10.178 6.144 0 0 5.327 4.846 5.806 12.977 0 0-2.935-9.834-8.538-12.432 0 0-5.53-2.389-6.896-2.389 0 0-1.982 3.414-6.215 5.599 0 0-5.808-3.549-9.564-4.915 0 0-6.388-1.869-11.649 1.749 0 0-2.202 1.167-3.092 1.917l-9.91-.211-.428 2.024 8.21.425s-1.314.481-3.095 2.664l-7.669-.426-.107 2.453 7.031.209s-2.714 3.605-1.486 9.411c1.23 5.802 3.757 9.492 3.961 9.563 0 0-2.566.414-3.209 2.385 0 0 .424 5.223 8.061 5.668 0 0-4.918-.065-10.721-2.115 0 0-2.6-1.022-3.145-4.025 0 0 4.303-2.464 3.486-8.68 0 0 .474-5.6-4.986-9.082 0 0-1.847-.886-3.896-.067 0 0 1.779-7.17 7.105-12.157 0-.001 4.029-4.37 6.212-5.667zM75.437 207.091s.547 2.188 2.184 3.484c0 0-5.532-1.5-12.358.547 0 0-1.913 1.027-3.141-.343-1.233-1.366-1.03-3.552 0-4.37 0 0 4.437-1.094 9.49.615 0 0-1.296-2.935-10.176-1.638 0 0-.752.202-1.024 1.159 0 0-.477 1.505 0 3.072 0 0-9.422-.952-13.112-.476 0 0-1.024 0-1.503-.823 0 0-1.426-2.767.137-3.892 0 0 3.756-.885 8.264.959 0 0-1.502-1.706-3.482-2.117 0 0-.274-5.876 6.895-8.469 0 0 3.348-1.502 7.925.204 0 0-1.09 5.122 2.118 7.986-.002.002 4.369 4.102 7.783 4.102z" fill="#b89983"/><path d="M135.607 190.635s3.962-2.326 5.189 3.551c0 0 .275 6.283-3.96 8.265 0 0-.068-2.8-1.433-5.601 0 0 .638-4.016.204-6.215z" fill="#debcb3"/><path d="M75.643 190.496s-3.14-2.113-6.008-.067c-2.87 2.05-3.142 5.058-3.211 8.13-.065 3.072 5.395 7.306 8.947 7.306 0 0 4.234-1.775 3.415-8.947 0-.001-.271-3.822-3.143-6.422z" fill="#f5cfc4"/><path d="M71.327 192.016s2.79 2.051 1.806 4.924c0 0-.564 1.818-1.725 2.295 0 0-2.215 3.286 1.725 4.352 0 0 2.671.939 2.239 2.278 0 0 6.545-3.261 2.032-13.195 0 0-1.975-3.858-5.912-3.036 0-.001 2.214.163-.165 2.382z" fill="#ccaea5"/><path d="M71.275 191.796s4.441-.206 5.602 7.102c0 0 .542 4.984-3.691 5.053 0 0-3.753-.546-2.936-4.236 0 0 2.322-3.275 4.713 0 0 0-2.529-1.23-3.553.205 0 0-.888 1.916.55 2.53 1.429.614 4.095.682 3.89-3.073-.207-3.757-1.708-6.011-4.575-7.581z"/><path d="M134.378 190.361s-3.209-8.673-6.488-11.27c0 0-3.139-2.663-7.988-3.415 0 0-3.484 4.442-6.898 5.325 0 0-5.873-3.957-8.537-4.504-2.664-.549-7.036-1.98-13.66 1.978l-1.707 1.026-9.766-.616-.2 1.057 9.558.313s-2.803 1.636-4.238 3.89l-7.986-.273v1.186l7.461.318s-2.768 2.451-1.725 9.561c0 0 1.432 7.854 5.531 10.179 0 0-3.002 0-4.234 1.91 0 0-1.019 3.688 6.418 5.125 0 0 10.59 2.114 24.109.475 0 0 16.665-.066 20.965-9.289 0 0 1.708-1.845-.545-6.28-.001-.002 1.092-5.467-.07-6.696z" fill="#f5cfc4"/><path d="M96.788 178.945s6.703-2.961 16.215 2.057c0 0 3.385-1.065 6.898-5.325 0 0 5.084.798 8.454 3.832 0 0 3.93 4.491 6.404 11.905l-.106 5.695s1.342 3.854.78 5.201c0 0-1.348 5.059-8.428 7.756 0 0-6.29 2.581-13.592 2.691 0 0-11.684 1.349-20.67-.111 0 0 2.809-1.014 2.809-4.043 0 0 0-2.695-2.471-2.919 0 0 7.075-.343 9.771 1.231 0 0-3.031-2.02-7.527-2.806l2.586-8.424-.225-4.051-4.043-4.715c.003.002 4.157-1.794 3.145-7.974z" fill="#debcb3"/><path d="M98.519 192.504l-2.399 9.175v1.773l3.548 1.774s5.628.413 10.319-2.503c4.692-2.923 9.594-1.148 11.993.522 2.4 1.667 8.759 4.275 10.844 1.667 2.089-2.607 1.152-5.944.42-7.925l-12.097-5.11s-.765-1.739-1.774-5.733c-1.025-4.064-3.467-1.059-3.15.719.31 1.772-3.42 5.225-4.881 5.119-1.461-.104-.834-2.082-2.605-2.607-1.771-.518-2.188 1.459-2.921 2.607-.729 1.148-6.254 1.357-7.297.522z" fill="#ca8694"/><path d="M134.036 192.821l.934 2.348-.315 1.94.543 1.449s-2.254 1.09-6.144 0c-3.893-1.098-9.152-4.987-9.152-4.987s-.613-4.371.139-6.012c0 0 2.454 2.869 4.711 4.167-.001.001 6.894 3.76 9.284 1.095zM119.035 187.08s-1.024 2.801.271 5.943c0 0-2.278-.217-2.049-6.553 0 0 .41 2.523.955 4.098 0 0-.134-1.984.823-3.488zM109.971 190.749s1.025 3.073 2.729 4.917c0 0-.752-.341-2.112-2.256 0 0-.685-1.498-.617-2.661zM111.509 195.73s-1.844-2.323-2.729-4.646c.001 0 .342 3.621 2.729 4.646zM92.036 186.604s-1.094 2.73-.82 4.916c0 0-1.504-2.594.82-4.916zM90.122 186.879s-.956 2.455-.065 4.848c.001 0-2.253-1.842.065-4.848zM118.521 204.605l-1.381.522-2.289-.639 2.074 1.425c0 .001 1.596-.285 1.596-1.308zM117.833 207.034s.477.741.331 1.885l-5.239.067 4.738-.715s.311-.542.17-1.237zM131.333 206.199s-2.691-1.552-7.391-1.324c.001 0 3.468.454 7.391 1.324zM100.52 205.722s-6.254-2.647-11.689-1.462c0 0 2.284-.185 6.3.499-.001 0 4.982.825 5.389.963zM107.814 190.77s-.067 3.281 2.184 6.624c0 0-1.979 1.712-5.123.887-3.141-.819-4.917-2.524-7.032-4.162-2.12-1.64-4.783-2.731-5.737-2.599l1.025-4.984s2.527-.68 5.462 2.049c2.939 2.736 2.594 5.67 6.898 5.398 0-.001 2.186-.823 2.323-3.213z"/><path d="M90.638 198.321c-.246 4.885 3.598 6.5 7.293 6.5 3.702 0 6.148-.394 6.698-4.745.394-3.135-3.138-5.715-6.698-6.697-4.238-1.166-7.048.055-7.293 4.942zM122.855 200.675c-.056 3.73 2.503 4.606 5.17 4.606 2.665 0 4.746-.72 4.826-4.518.068-3.233-2.161-4.52-4.826-4.52-2.667-.001-5.115.232-5.17 4.432z"/><ellipse cx="94.608" cy="196.695" rx="1.261" ry="1.36" fill="#fff"/><path d="M97.137 199.013c0 .632-.478 1.144-1.062 1.144-.582 0-1.06-.512-1.06-1.144 0-.633.478-1.145 1.06-1.145.585-.001 1.062.512 1.062 1.145z" fill="#fff"/><ellipse cx="130.701" cy="200.279" rx="1.109" ry="1.01" fill="#fff"/><path d="M130.8 202.09c0 .406-.361.735-.804.735-.448 0-.812-.329-.812-.735 0-.403.363-.735.812-.735.443-.001.804.331.804.735z" fill="#fff"/><path d="M53.74 196.604s3.537-3.459 8.802-2.653c0 0 1.654 1.959-3.266 3.498 0 0-5.601 1.266-5.536-.845z" fill="#fbc4e1" stroke="#000" stroke-width="1.395" stroke-miterlimit="22.926"/><path d="M109.835 165.787s-1.565 4.594-10.934 5.513c0 0-4.133 1.378-5.236 4.318 0 0 6.798-2.666 12.219.366 5.418 3.031 6.511 3.172 7.252 3.927 0 0 4.342-2.221 6.215-5.599 0 0 5.82 1.582 8.391 3.235 0 0 3.979 2.597 7.044 11.585 0 0-.123-14.073-15.983-19.12 0 0 2.535-.48 2.938-1.571 0 0-4.375 1.756-7.135 1.022 0 0 2.305-.949 3.174-3.277 0 0-8.038 4.195-10.886 3.459-.001 0 2.754-1.375 2.941-3.858zM74.824 188.926s.869-.133 1.773-3.248l6.266.123s-3.654 4.6-.391 13.383c0 0 1.768 4.545 2.865 5.592 0 0-2.713.589-3.218 2.494 0 0 1.057 5.322 7.836 5.574 0 0-4.872-.2-10.595-2.109 0 0 1.202-2.959-.303-7.128 0 0 1.955-4.065-.051-9.794.001 0-.737-2.741-4.182-4.887zM77.904 183.221s.952-2.359 1.707-2.662l6.979.352s-2.393 1.693-2.982 2.654l-5.704-.344z" fill="#897058"/><path d="M81.267 178.4s8.535-7.332 17.525-7.03l-2.211 3.512s-1.24-.425-7.751 3.78l-7.563-.262zM72.085 206.131s2.263 1.084 3.351.96c0 0 .897 2.594 2.184 3.484 0 0-5.244-1.385-12.358.547 0 0-2.206 1.035-3.141-.343 0 0 1.075.544 4.724-.765 3.65-1.31 5.418-1.535 4.767-2.99 0 0-.791-1.314-2.753-1.595 0 0 .652-.232.746-.795 0 0 1.682 1.123 2.432 1.402l.048.095zM60.255 207.29s-3.686.663-9.797.222c0 0-4.787.587-5.227-.442 0 0 .439 2.209 2.281 2.135 0 0 4.785-.516 10.383.221l2.516.193c0-.001-.232-.785-.156-2.329z" fill="#897058"/><path d="M58.482 194.081s2.723 2.983 4.202 3.605c0 0-1.724-2.266-2.634-3.841l-1.568.236z"/><path d="M59.148 192.275l2.416 4.022-.017.155.725.51s1.009-1.141 1.566-1.141l-3.431-3.789-1.259.243z" fill="#b89983"/><path d="M63.354 193.934s.898 1.213 1.417 1.559c0 0-.639.566-1.819-.549l.402-1.01zM131.419 58.475c5.224-5.882 8.361-13.414 8.361-21.625 0-18.801-16.436-34.045-36.715-34.045-20.276 0-36.715 18.136-36.715 36.938 0 18.8 16.438 31.148 36.715 31.148 6.703 0 12.979-1.67 18.389-4.578l13.429 6.359-3.464-14.197z"/><path fill="#fff" d="M91.579 27.423L88.06 47.86l-5.419-.001 1.474-8.581h-1.653l-1.479 8.581-5.423-.005 3.521-20.441 5.421.004-1.258 7.326h1.654l1.256-7.324zM103.275 39.789l-6.709-.007-.625 3.642c-.131.755-.162 1.244-.093 1.465.071.219.257.329.567.329.382 0 .664-.147.84-.437.182-.292.343-.856.49-1.697l.381-2.22 4.963.001-.217 1.245c-.177 1.035-.377 1.835-.608 2.391-.23.556-.647 1.153-1.241 1.785a5.767 5.767 0 0 1-2.11 1.425c-.806.313-1.775.476-2.909.473-1.104-.003-2.043-.16-2.834-.471-.786-.314-1.368-.743-1.744-1.285a3.89 3.89 0 0 1-.662-1.798c-.069-.653.004-1.601.218-2.847l.847-4.896c.247-1.465.651-2.624 1.199-3.472.549-.845 1.319-1.492 2.318-1.943 1.001-.448 2.092-.677 3.289-.674 1.459 0 2.618.274 3.473.814.856.547 1.4 1.269 1.629 2.166.225.896.198 2.161-.078 3.785l-.384 2.226zm-4.767-2.747l.209-1.222c.147-.866.197-1.424.154-1.676-.053-.255-.218-.381-.499-.381-.348 0-.582.108-.702.32-.122.216-.261.796-.423 1.734l-.212 1.226h1.473zM112.499 27.439l-3.518 20.439-5.376-.003 3.515-20.439zM119.748 27.443l-3.515 20.442-5.377-.005 3.515-20.439zM131.785 37.02l-.706 4.107c-.26 1.51-.525 2.615-.803 3.321-.279.7-.72 1.36-1.332 1.971a5.68 5.68 0 0 1-2.191 1.351c-.846.288-1.779.435-2.814.435-1.152 0-2.105-.126-2.866-.375-.755-.246-1.312-.627-1.67-1.128-.356-.498-.565-1.111-.636-1.819-.064-.712.023-1.783.269-3.207l.739-4.298c.267-1.561.648-2.777 1.145-3.653.496-.874 1.238-1.58 2.223-2.112.988-.529 2.174-.793 3.57-.793 1.17 0 2.141.174 2.924.515.778.341 1.35.788 1.708 1.335.362.55.578 1.118.648 1.697.067.578 0 1.467-.208 2.653zm-5.018-1.274c.147-.863.194-1.4.143-1.624-.055-.226-.231-.335-.53-.335-.299 0-.519.109-.656.331-.134.226-.278.765-.429 1.627l-1.303 7.583c-.137.792-.178 1.311-.117 1.549.059.242.231.363.523.363.299 0 .514-.11.65-.33.131-.216.261-.691.387-1.416l1.332-7.748z"/></svg>