<svg xmlns="http://www.w3.org/2000/svg" width="200" height="200" viewBox="0 0 200 200"><defs><style>@font-face{font-family:&quot;ifont&quot;;src:url(//at.alicdn.com/t/font_1442373896_4754455.eot?#iefix) format(&quot;embedded-opentype&quot;),url(//at.alicdn.com/t/font_1442373896_4754455.woff) format(&quot;woff&quot;),url(//at.alicdn.com/t/font_1442373896_4754455.ttf) format(&quot;truetype&quot;),url(//at.alicdn.com/t/font_1442373896_4754455.svg#ifont) format(&quot;svg&quot;)}</style></defs><path d="M158 127.212c-4.662-8.825-6.075-17.712-2.825-27.562 2.188-6.6-2.25-11.188-7.4-14.788-4.9-3.387-9.475-2.662-14.063.788-6.287 4.687-7.874 15.887-4.05 24.3 1.75 3.837 2.338 8.437 2.463 12.687.15 4.413-.887 8.838-1.238 11.563-.3 10.563 2.85 14.838 10.725 16.337 13.588 2.588 20.275-4.05 17.925-17.837-.287-1.863-.662-3.813-1.537-5.488zm-11.488-38.15s2.4.226 2.888 1.788c.475 1.6.937 3.225-1.863 3.15-2.787-.075-1.025-4.937-1.025-4.937zm-5.675-.975c1.388-.162 2.763.325 3.438 1.588.675 1.275.625 3.288.625 3.288s.1 3.437-2.8 3.174c-1.313-.1-2.613-1.7-2.625-3.525 0-2.15 1.362-4.525 1.362-4.525zm-4.55 2.763c3.75 3.4 0 7.575 0 7.575s-3.4-1.175-3.5-3.625c-.087-2.463 3.5-3.95 3.5-3.95zm-1.125 53.4c-3.187-2.987 3.4-3.4 3.4-3.4 3.525 4.913-.225 6.375-3.4 3.4zm-.387-4.637c-1.763.087-1.138-6.713-1.138-6.713s9.35-.063 11.113 0c1.75.1 6.3 6.425 6.3 6.425s-14.512.2-16.275.288zm10.5 6.175c-1.413 0-3.638-1.288-3.638-2.638 0-1.337 2.225-2.312 3.638-2.312 1.387 0 3.65.962 3.65 2.312 0 1.363-2.263 2.638-3.65 2.638zm7.975-1.2c-1.225 0-3.538-.7-3.538-1.813s2.325-2.262 3.538-2.262c1.237 0 3.225.812 3.225 1.925-.013 1.125-2 2.15-3.225 2.15zm-70.463 18.3c-1.037-.438-2.212-.888-3.437-1.538-1.263-.55-2.563-1.275-3.913-2.062a54.89 54.89 0 0 1-4.162-2.663c-1.375-.975-2.825-2.025-4.163-3.2a65.454 65.454 0 0 1-4.074-3.625c-1.313-1.262-2.526-2.587-3.776-3.9a87.54 87.54 0 0 1-3.425-4.012c-1.125-1.325-2.112-2.675-3.075-3.9a128.98 128.98 0 0 1-2.612-3.638c-3.188-4.512-5.1-7.712-5.1-7.712s1.087 3.6 3.788 8.562c.674 1.225 1.462 2.525 2.324 3.913a73.171 73.171 0 0 0 2.913 4.175c1.038 1.425 2.225 2.8 3.413 4.212a79.436 79.436 0 0 0 3.937 4.013c1.375 1.287 2.775 2.562 4.275 3.65 1.463 1.162 2.987 2.2 4.487 3.15 2.988 1.85 6.013 3.287 8.65 4.2 1.313.537 2.626.825 3.676 1.15 1.15.262 2.112.462 2.912.625 1.613.225 2.538.35 2.538.35s-.9-.275-2.426-.775c-.775-.263-1.712-.613-2.75-.976zm88.163-22.463c-.813-11-1.35-22.025-2.513-32.987-1.075-9.938-3.087-19.65-8.925-28.238-3.537-5.2-7.487-10.475-9.287-16.35-4.025-13.15-11.188-19.337-24.95-18.775C109.612 44.713 94 45.9 78.362 46.6c-1.725.075-3.475-1.425-5.2-2.175 13.3-3.662 17.713-7.275 17.463-15.15h-.075c-4.088 5.775-8.738 10.313-16.975 7.65.037-5.612 3.037-8.087 8.3-8.112 2.887-.013 5.775.275 8.675.462.025-.05.062-.075.075-.087v.087a.609.609 0 0 0 .15.013c-8.513-6.438-9.4-6.238-21.238 4.737-2.462-1.4-4.925-3.112-7.625-4.2-4.737-1.9-12.962 1.313-12.787 5.863.15 3.025 4.862 6.225 8.075 8.612 1.362 1.013 4.187-.112 6.2.3 2.137.463 4.175 1.588 6.237 2.425-1.425 1.475-2.612 3.525-4.362 4.4-27.15 13.225-40.213 42.625-35.225 73 4.437 27.238 36.712 49.275 61.525 50.425 25.937 1.2 49.062-5.462 70.862-18.662 6.063-3.663 9.038-8.675 8.513-15.763zM132.737 48.7c-.012.1-.012.163-.025.263a9.906 9.906 0 0 0-6.112 9.15c0 5.487 4.462 9.912 9.95 9.912 3.462 0 6.5-1.762 8.275-4.412.637 3.775.063 7.3-4.612 7.175-8.376-.175-15.463 1.95-22.413 9.912-2.713-9.687-12.513-15.337-6.625-25.675 3.4-6.037 11.4-8.412 21.562-6.325zm-47.95 45.413c2.675-1.913 4.425-5.025 4.425-8.55 0-5.813-4.725-10.538-10.537-10.538-4.575 0-8.475 2.925-9.925 7.025-3.875-13.625 7.35-24.712 21.35-21.887 9.375 1.887 15.975 7.575 20.225 15.95 2.575 5.05-.063 12.237-5.863 15.825-5.987 3.7-12.462 4.912-19.912 2.987.087-.275.137-.55.237-.812zM52.625 35.9c4.325-3.725 9.2-3.012 17.012 2.65-6.087 4.25-12.65 3.075-17.012-2.65zM161.45 150.425c-6.463 6.575-14.063 12.063-24.375 8.3-2-.725-4.013-1.412-5.987-2.15-12.088-4.475-15.15-9.475-12.126-21.925 2.175-8.862 2.2-16.85-2.762-25.062-2.163-3.625-1.425-8.963-2-13.425-3.888 2.737-4.913 11.037-1.388 17.225 3.663 6.362 3.95 12.9 1.9 19.65-4.3 14.437 1.825 25.15 16.538 28.7 1.962.45 3.95.95 6.575 1.587-36.613 14.825-64.513 9.8-89.788-15.2C37.35 137.55 35.175 123 35.337 108.413c.25-17.675 6.163-33.013 20.6-43.975 4.15-3.175 9.388-4.95 14.275-7.075 11.213-4.913 22.2-10.625 35.113-8.95 1.2.162 2.387.362 4.65.687-2.588 4.425-4.563 7.888-6.725 11.638-1.863-.725-3.5-1.688-5.3-2.038-5.163-1.025-10.425-2.812-15.5-2.45-8.613.563-15.613 5.15-18.613 13.413-3.05 8.312.563 15.4 6.738 21.175 9.4 8.787 20.8 10.25 32.012 5.787 5.375-2.125 9.05-8.45 13.575-13 .038.075.613 1.2 2.138 4 .95-1.85 1.337-3.225 2.187-4.112 7.863-8.35 23.088-10.1 32.338-3.363 2.013 1.463 3.688 4.313 4.2 6.775.912 4.763 1.262 9.675 1.25 14.538-.025 9.587.025 18.887 4.562 27.937 3.35 6.725 4.55 14.925-1.387 21.025zm-52.475-106.65c.325 0 .737-.1 1.062-.325.075-.05 9.313-6.075 15.65-2.462.9.512 2.075.212 2.6-.725.513-.925.213-2.1-.712-2.6-8.388-4.8-19.225 2.312-19.675 2.625a1.896 1.896 0 0 0-.513 2.65c.338.55.95.837 1.588.837z" fill="#333" class="transform-group"/></svg>