<svg xmlns="http://www.w3.org/2000/svg" width="200" height="200" viewBox="0 0 200 200"><defs><style>@font-face{font-family:&quot;ifont&quot;;src:url(//at.alicdn.com/t/font_1442373896_4754455.eot?#iefix) format(&quot;embedded-opentype&quot;),url(//at.alicdn.com/t/font_1442373896_4754455.woff) format(&quot;woff&quot;),url(//at.alicdn.com/t/font_1442373896_4754455.ttf) format(&quot;truetype&quot;),url(//at.alicdn.com/t/font_1442373896_4754455.svg#ifont) format(&quot;svg&quot;)}</style></defs><path d="M66.217 173.997c-.971 0-1.943-.37-2.685-1.112l-36.676-36.676a3.798 3.798 0 0 1 0-5.37L137.254 20.44c2.423-2.423 5.723-3.812 9.053-3.812 3.128 0 6.038 1.188 8.195 3.344l25.266 25.266c2.28 2.282 3.465 5.363 3.335 8.677-.126 3.2-1.477 6.245-3.803 8.571L68.903 172.885a3.786 3.786 0 0 1-2.686 1.112zm-31.305-40.473l31.305 31.305L173.93 57.117c.97-.971 1.534-2.214 1.584-3.5.046-1.173-.35-2.241-1.117-3.008l-25.265-25.265c-.723-.722-1.726-1.12-2.825-1.12-1.331 0-2.673.578-3.683 1.587L34.912 133.524zm-12.574 47.673a3.799 3.799 0 0 1-.61-7.545l43.874-7.2a3.797 3.797 0 1 1 1.23 7.495l-43.875 7.2a3.82 3.82 0 0 1-.62.05zm0 0a3.799 3.799 0 0 1-.61-7.545l43.874-7.2a3.797 3.797 0 1 1 1.23 7.495l-43.875 7.2a3.82 3.82 0 0 1-.62.05zm.009 0a3.797 3.797 0 0 1-3.752-4.413l7.2-43.875a3.798 3.798 0 0 1 7.494 1.23l-7.2 43.875a3.798 3.798 0 0 1-3.742 3.183zm0 0a3.797 3.797 0 0 1-3.752-4.413l7.2-43.875a3.798 3.798 0 0 1 7.494 1.23l-7.2 43.875a3.798 3.798 0 0 1-3.742 3.183zM161.559 78.655c-.972 0-1.944-.37-2.685-1.112l-36.676-36.676a3.797 3.797 0 1 1 5.37-5.37l36.676 36.676a3.797 3.797 0 0 1-2.685 6.482zm-32.011 92.272a3.797 3.797 0 0 1-2.685-6.482l20.17-20.17a3.797 3.797 0 1 1 5.37 5.37l-20.17 20.17a3.785 3.785 0 0 1-2.685 1.112zm-13.651-13.65a3.797 3.797 0 0 1-2.685-6.483l20.17-20.17a3.798 3.798 0 0 1 5.37 5.37l-20.17 20.17a3.785 3.785 0 0 1-2.685 1.113zm31.988 28.645c-3.17 0-6.15-1.234-8.39-3.475l-42.763-42.762a3.797 3.797 0 0 1 0-5.37l37.897-37.897a3.798 3.798 0 0 1 5.37 0l42.762 42.762a11.787 11.787 0 0 1 3.475 8.39c0 3.17-1.234 6.15-3.475 8.39l-26.486 26.487a11.787 11.787 0 0 1-8.39 3.475zM104.788 137l40.076 40.077a4.243 4.243 0 0 0 3.02 1.25c1.141 0 2.214-.444 3.02-1.25l26.486-26.487a4.244 4.244 0 0 0 1.251-3.02c0-1.14-.444-2.213-1.25-3.02l-40.077-40.076L104.788 137zM32.61 73.99a3.797 3.797 0 0 1-2.685-6.483l20.17-20.17a3.797 3.797 0 1 1 5.371 5.37l-20.17 20.17a3.786 3.786 0 0 1-2.686 1.113zm13.651 13.65a3.797 3.797 0 0 1-2.685-6.483l20.17-20.17a3.797 3.797 0 1 1 5.37 5.37L48.948 86.53a3.786 3.786 0 0 1-2.685 1.112zm16.48 16.48c-1.008 0-1.974-.4-2.686-1.112L17.294 60.247a11.788 11.788 0 0 1-3.475-8.39c0-3.17 1.234-6.15 3.475-8.39L43.78 16.98a11.788 11.788 0 0 1 8.39-3.475c3.17 0 6.15 1.234 8.39 3.475l42.763 42.762a3.797 3.797 0 0 1 0 5.37L65.427 103.01a3.798 3.798 0 0 1-2.685 1.112zM52.17 21.1c-1.141 0-2.214.444-3.02 1.25L22.665 48.838a4.242 4.242 0 0 0-1.251 3.02c0 1.14.444 2.213 1.25 3.02l40.078 40.077 32.526-32.526L55.19 22.35a4.243 4.243 0 0 0-3.02-1.251z" fill="#333" class="transform-group"/></svg>