<svg xmlns="http://www.w3.org/2000/svg" width="200" height="200" viewBox="0 0 200 200"><defs><style>@font-face{font-family:&quot;ifont&quot;;src:url(//at.alicdn.com/t/font_1442373896_4754455.eot?#iefix) format(&quot;embedded-opentype&quot;),url(//at.alicdn.com/t/font_1442373896_4754455.woff) format(&quot;woff&quot;),url(//at.alicdn.com/t/font_1442373896_4754455.ttf) format(&quot;truetype&quot;),url(//at.alicdn.com/t/font_1442373896_4754455.svg#ifont) format(&quot;svg&quot;)}</style></defs><path d="M100.654 187.46c-48.133 0-87.456-39.416-87.456-87.66 0-48.245 39.323-87.66 87.456-87.66 48.347 0 87.455 39.415 87.455 87.66 0 48.244-39.323 87.66-87.455 87.66zm0-166.705c-43.406 0-78.862 35.323-78.862 79.045 0 43.721 35.456 79.044 78.862 79.044 43.62 0 78.86-35.538 78.86-79.044 0-43.507-35.455-79.045-78.86-79.045zm49.953 119.953H53.283c-5.39 0-9.778-4.518-9.778-10.098V68.998c0-5.576 4.387-10.106 9.778-10.106h97.324c5.413 0 9.777 4.53 9.777 10.106v61.612c0 5.58-4.364 10.098-9.777 10.098zm-2.581-7.236L117.6 105.577l-4.984 4.518c-2.907 2.613-6.453 3.955-10.671 3.955-4.196 0-7.764-1.342-10.66-3.955l-4.985-4.518-30.424 27.895h92.15zm-97.248-60.78v55.668l30.31-28.22-30.31-27.448zm4.844-6.564l38.811 35.529c3.388 3.12 5.896 4.669 7.512 4.669s4.123-1.55 7.511-4.67l38.81-35.528H55.623zm97.493 6.564l-30.31 27.448 30.31 28.22V72.692z" fill="#fff" class="transform-group"/></svg>