<svg xmlns="http://www.w3.org/2000/svg" width="1024" height="1024" viewBox="0 0 1024 1024"><path class="svgpath" data-index="path_0" fill="#fff" d="M61.352 30.336h901.295c33.251 0 60.208 26.957 60.208 60.21s-26.957 60.207-60.208 60.207H61.352c-33.252 0-60.208-26.955-60.208-60.208s26.956-60.21 60.208-60.21z"/><path class="svgpath" data-index="path_1" fill="#fff" d="M61.352 451.793h901.295c33.251 0 60.208 26.956 60.208 60.208 0 33.25-26.957 60.206-60.208 60.206H61.352c-33.252 0-60.208-26.956-60.208-60.206.001-33.252 26.956-60.208 60.208-60.208z"/><path class="svgpath" data-index="path_2" fill="#fff" d="M61.352 873.247h901.295c33.251 0 60.208 26.956 60.208 60.209 0 33.252-26.957 60.208-60.208 60.208H61.352c-33.252 0-60.208-26.956-60.208-60.208.001-33.253 26.956-60.21 60.208-60.21z"/></svg>