<svg xmlns="http://www.w3.org/2000/svg" width="200" height="200" viewBox="0 0 200 200"><defs><style>@font-face{font-family:&quot;ifont&quot;;src:url(//at.alicdn.com/t/font_1442373896_4754455.eot?#iefix) format(&quot;embedded-opentype&quot;),url(//at.alicdn.com/t/font_1442373896_4754455.woff) format(&quot;woff&quot;),url(//at.alicdn.com/t/font_1442373896_4754455.ttf) format(&quot;truetype&quot;),url(//at.alicdn.com/t/font_1442373896_4754455.svg#ifont) format(&quot;svg&quot;)}</style></defs><path d="M100 13.086c-47.995 0-86.914 38.918-86.914 86.916 0 47.997 38.913 86.91 86.914 86.912 47.995-.003 86.914-38.918 86.914-86.915 0-47.998-38.913-86.913-86.914-86.913zm0 168.031c-44.73 0-81.12-36.386-81.12-81.116 0-44.732 36.39-81.121 81.12-81.115 44.73-.003 81.12 36.383 81.12 81.115 0 44.73-36.39 81.116-81.12 81.116zm42.78-84.414c-4.8-3.319-7.234-8.038-7.234-14.027 0-26.338-21.258-35.897-35.546-35.897s-35.546 9.56-35.546 35.897c0 5.989-2.433 10.708-7.238 14.03-3.596 2.492-11.883 12.38-7.098 27.98l.551 1.805 1.868-.297c3.706-.589 5.65-3.89 6.725-5.828.888 3.726 4.481 7.163 6.92 8.657.247.153.416.32.53.461-.1.017-.221.031-.371.04-2.68.136-6.117 1.864-7.495 4.909-1.018 2.243-.65 4.65 1.036 6.781 4.563 5.763 16.958 6.21 20.65 6.21 5.418 0 9.953-1.103 13.481-3.276.56-.348 1.056-.702 1.531-1.044 1.375-.993 2.204-1.593 4.456-1.593s3.08.6 4.456 1.593c.475.342.97.696 1.53 1.044 3.529 2.173 8.064 3.276 13.482 3.276 3.692 0 16.087-.447 20.65-6.21 1.686-2.13 2.054-4.538 1.036-6.781-1.378-3.045-4.816-4.773-7.498-4.91a3.224 3.224 0 0 1-.368-.039c.11-.141.283-.308.527-.458 2.441-1.497 6.034-4.934 6.923-8.66 1.075 1.938 3.019 5.24 6.725 5.828l1.867.297.552-1.805c4.785-15.6-3.502-25.488-7.101-27.983zm3.605 24.212c-.831-.82-1.474-1.98-1.96-2.863a20.498 20.498 0 0 0-.518-.903c-.611-.97-2.28-2.806-4.233-2.806-.814 0-1.567.32-2.121.902-.722.759-1.036 1.853-.96 3.347.11 2.184-2.866 5.39-5.05 6.73-2.08 1.28-3.137 3.455-2.637 5.413.47 1.839 2.165 3.01 4.53 3.13 1.466.073 3.222 1.176 3.76 2.362.207.458.382 1.194-.484 2.289-2.495 3.151-10.46 4.563-17.244 4.563-4.6 0-8.369-.885-11.201-2.631-.464-.286-.871-.583-1.267-.866-1.565-1.135-3.342-2.416-7-2.416s-5.435 1.282-7 2.416c-.396.283-.803.58-1.267.866-2.832 1.746-6.6 2.63-11.201 2.63-6.784 0-14.749-1.41-17.244-4.562-.866-1.095-.69-1.83-.484-2.29.538-1.185 2.292-2.288 3.757-2.362 2.368-.118 4.063-1.29 4.533-3.129.5-1.96-.558-4.133-2.64-5.415-2.182-1.338-5.158-4.544-5.048-6.728.077-1.496-.237-2.588-.959-3.347a2.897 2.897 0 0 0-2.121-.902c-1.953 0-3.622 1.836-4.239 2.812-.15.243-.32.549-.512.897-.486.883-1.129 2.042-1.96 2.863-3.028-13.855 5.98-20.571 6.077-20.636 7.528-5.209 9.107-12.449 9.107-17.603 0-24.957 20.41-31.552 31.2-31.552s31.202 6.595 31.202 31.552c0 5.154 1.578 12.394 9.104 17.6.1.068 9.107 6.784 6.08 20.639z" fill="#fff" class="transform-group"/></svg>