<svg xmlns="http://www.w3.org/2000/svg" width="200" height="200" viewBox="0 0 200 200"><defs><style>@font-face{font-family:&quot;ifont&quot;;src:url(//at.alicdn.com/t/font_1442373896_4754455.eot?#iefix) format(&quot;embedded-opentype&quot;),url(//at.alicdn.com/t/font_1442373896_4754455.woff) format(&quot;woff&quot;),url(//at.alicdn.com/t/font_1442373896_4754455.ttf) format(&quot;truetype&quot;),url(//at.alicdn.com/t/font_1442373896_4754455.svg#ifont) format(&quot;svg&quot;)}</style></defs><path d="M28.177 103.12V59.407a3.117 3.117 0 0 0-3.123-3.125 3.117 3.117 0 0 0-3.122 3.125v43.713a3.117 3.117 0 0 0 3.122 3.126c1.737 0 3.123-1.4 3.123-3.126zm156.137-34.347a3.11 3.11 0 0 0-3.123 3.113v18.755a3.131 3.131 0 0 0 3.123 3.113 3.11 3.11 0 0 0 3.123-3.113V71.886a3.132 3.132 0 0 0-3.123-3.113zM18.809 90.64V71.886a3.132 3.132 0 0 0-3.123-3.113 3.11 3.11 0 0 0-3.123 3.113v18.755a3.131 3.131 0 0 0 3.123 3.114 3.11 3.11 0 0 0 3.123-3.114zm159.26 12.48V59.406a3.117 3.117 0 0 0-3.123-3.125 3.116 3.116 0 0 0-3.123 3.125v43.713a3.117 3.117 0 0 0 3.123 3.126c1.736 0 3.122-1.4 3.122-3.126zM131.226 100c10.348 0 18.737-8.389 18.737-18.736 0-10.348-8.389-18.737-18.737-18.737-10.348 0-18.736 8.389-18.736 18.737 0 10.347 8.388 18.736 18.736 18.736zm0-31.227c6.899 0 12.491 5.592 12.491 12.49 0 6.9-5.592 12.491-12.49 12.491-6.9 0-12.492-5.592-12.492-12.49 0-6.899 5.593-12.491 12.491-12.491zM68.773 100c10.347 0 18.736-8.389 18.736-18.736 0-10.348-8.389-18.737-18.736-18.737-10.348 0-18.737 8.389-18.737 18.737C50.036 91.61 58.425 100 68.773 100zm0-31.227c6.898 0 12.49 5.592 12.49 12.49 0 6.9-5.592 12.491-12.49 12.491-6.9 0-12.491-5.592-12.491-12.49 0-6.899 5.592-12.491 12.49-12.491zm49.982-56.21h-37.51c-3.434 0-6.227 2.805-6.227 6.264V31.3H37.561c-3.455 0-6.261 2.798-6.261 6.25v87.426a6.242 6.242 0 0 0 6.26 6.251h37.458v12.491H62.521c-3.434 0-6.24 2.805-6.24 6.264v31.19c0 3.463 2.785 6.265 6.219 6.265h75c3.408 0 6.218-2.805 6.218-6.264v-31.191c0-3.463-2.793-6.264-6.239-6.264h-12.497v-12.49h37.457c3.454 0 6.261-2.8 6.261-6.252V37.551a6.242 6.242 0 0 0-6.26-6.251h-37.458V18.827c0-3.495-2.788-6.264-6.227-6.264zM81.264 18.81h37.472v12.49H81.264V18.81zm56.209 131.155v31.227H62.527v-31.227h18.737v-18.737h37.472v18.737h18.737zm18.745-112.419c3.444 0 6.237 2.81 6.237 6.218v75c0 3.435-2.784 6.219-6.237 6.219H43.782c-3.445 0-6.237-2.81-6.237-6.218v-75c0-3.435 2.784-6.219 6.237-6.219h112.436z" fill="#333" class="transform-group"/></svg>