<svg xmlns="http://www.w3.org/2000/svg" width="200" height="200" viewBox="0 0 200 200"><defs><style>@font-face{font-family:&quot;ifont&quot;;src:url(//at.alicdn.com/t/font_1442373896_4754455.eot?#iefix) format(&quot;embedded-opentype&quot;),url(//at.alicdn.com/t/font_1442373896_4754455.woff) format(&quot;woff&quot;),url(//at.alicdn.com/t/font_1442373896_4754455.ttf) format(&quot;truetype&quot;),url(//at.alicdn.com/t/font_1442373896_4754455.svg#ifont) format(&quot;svg&quot;)}</style></defs><path d="M102.52 23.226c-39.61 0-71.72 32.11-71.72 71.72s32.11 71.721 71.72 71.721 71.721-32.11 71.721-71.721c0-39.61-32.111-71.72-71.721-71.72zm45.624 117.343a64.32 64.32 0 0 1-20.511 13.83c-7.95 3.363-16.4 5.068-25.113 5.068-8.713 0-17.161-1.705-25.112-5.067a64.316 64.316 0 0 1-20.51-13.83 64.307 64.307 0 0 1-13.831-20.511c-3.363-7.95-5.068-16.4-5.068-25.113 0-8.714 1.705-17.163 5.068-25.112a64.315 64.315 0 0 1 13.83-20.51 64.312 64.312 0 0 1 20.511-13.831c7.95-3.363 16.399-5.068 25.112-5.068 8.714 0 17.163 1.705 25.113 5.068a64.312 64.312 0 0 1 20.51 13.83 64.318 64.318 0 0 1 13.83 20.511c3.363 7.95 5.068 16.398 5.068 25.112 0 8.714-1.705 17.163-5.068 25.113a64.305 64.305 0 0 1-13.83 20.51zm-8.582-71.233l-.345-3.11h-3.131c-.89 0-1.71.076-2.434.144-.89.084-1.66.156-2.377.076l-.188-.015c-5.204-.295-10.242-1.446-14.57-3.33-3.672-1.598-6.742-3.67-9.17-6.174l-.024.001h-.002a1.305 1.305 0 0 1-.198 0c-.156 0-.312 0-.468-.003-.019.001-.037.003-.056.003h-.017l-.039.003c-.135.01-.27.007-.404-.002h-.189l-.007-.002-.009.001c-.044 0-.09-.002-.134-.004-.112.009-.222.004-.334 0-.11.001-.22.004-.331.004l-.015-.001-.125.007a.762.762 0 0 1-.18-.006l-.19-.001c-.023.002-.046.007-.07.007h-.007c-.027 0-.053-.006-.079-.008h-.16a4.772 4.772 0 0 1-.251.008l-.015-.001c-.042.001-.084.002-.126-.002l-.022-.002c-.118.003-.237.007-.355 0l-.01-.002c-.016.001-.033.005-.05.004-.137-.001-.274.008-.412-.003l-.02-.002-.027.002c-.049 0-.097-.002-.146-.003l-.248.002a2.645 2.645 0 0 1-.351 0c-.129.005-.256.01-.385-.002l-.013-.002-.018.002c-.07.002-.138.01-.207.012a1.287 1.287 0 0 1-.166-.011 3.12 3.12 0 0 1-.22.002c-.01 0-.019-.002-.028-.003h-.011c-.016 0-.03.003-.046.003-.015 0-.028 0-.042-.002l-.042.002-.03-.001-.023.001-.05-.002-.04.002h-.032l-.04-.002-.041.002-.033-.002-.042.002-.05-.002-.053.002c-.014 0-.026-.002-.039-.003-.022.001-.044.003-.067.003l-.043-.002-.057.002-.047-.002-.047.002-.03-.001-.017.001-.022-.001-.03.001-.04-.002-.039.002h-.04c-.021 0-.041-.002-.061-.003-.015.002-.03.003-.046.003l-.06-.003c-.02.001-.04.003-.061.003l-.05-.002-.05.002-.055-.002-.054.002h-.032l-.06-.003c-.024.002-.046.006-.071.006l-.045-.002-.024.002c-.023 0-.045-.002-.067-.003h-.04a.06.06 0 0 1-.008 0h-.012c-.021.001-.041.003-.063.003l-.045-.002-.052.002h-.037l-.036-.001-.036.001-.033-.001-.033.001h-.038l-.037-.001-.038.001-.045-.002a1.145 1.145 0 0 1-.205-.002.989.989 0 0 1-.158 0l-.016.001h-.035-.001-.028c-.025.001-.05.003-.077.003l-.029-.001a1.21 1.21 0 0 1-.213 0c-.026.002-.051.005-.079.005-.029 0-.057-.002-.085-.004h-.002c-.022 0-.042-.002-.063-.003-.02.001-.04.003-.062.003l-.03-.001-.016.001c-.02 0-.039-.002-.058-.003-.02.001-.041.003-.062.003l-.042-.002-.042.002h-.025c-.02 0-.038-.002-.057-.003-3.023 3.017-6.848 5.418-11.236 7.02-5.292 1.931-11.159 2.655-16.967 2.093l-3.496-.338-.324 3.497c-.989 10.684-.112 21.518 2.68 33.12l.036.145.047.142c.086.257.171.505.255.748.28.812.502 1.453.613 2.119l.036.218.064.212c3.497 11.657 9.17 20.522 17.346 27.102l.3.238.328.166c.134.067.4.254.49.344.429.428.886.687 1.248.848l.553.553.508.254c.981.49 1.937 1.02 2.95 1.58 2.93 1.623 5.955 3.299 9.558 3.949l.032.123.27-.071.104.016.008-.047c2.347-.64 4.37-1.45 6.33-2.233 4.56-1.824 8.07-4.705 11.461-7.497 1.276-.97 2.208-2.072 3.032-3.046.435-.513.846-.998 1.271-1.424.645-.645 1.084-1.303 1.437-1.832.218-.328.407-.611.562-.766l.204-.205.169-.235c1.053-1.474 2.141-2.998 3.059-4.824a94.57 94.57 0 0 0 4.322-9.264c.575-1.351.97-2.772 1.32-4.027.071-.253.14-.503.21-.745l.03-.113c.186-.743.394-1.47.614-2.241.466-1.633.949-3.321 1.25-5.276 1.262-8.3 2.517-17.986 1.416-27.895zm-8.332 26.836c-.233 1.515-.635 2.923-1.061 4.413-.221.774-.45 1.574-.66 2.409-.068.24-.137.485-.206.735-.31 1.109-.629 2.255-1.029 3.19l-.032.079a87.636 87.636 0 0 1-4.036 8.647l-.042.081c-.643 1.285-1.48 2.476-2.372 3.726-.523.567-.898 1.13-1.208 1.595-.219.328-.407.61-.562.766-.63.63-1.156 1.251-1.664 1.851-.686.811-1.28 1.512-1.959 2.021l-.125.098c-3.133 2.58-6.092 5.018-9.668 6.448-1.38.552-2.706 1.083-4.103 1.538-2.056-.597-4.086-1.722-6.212-2.899-.871-.482-1.767-.978-2.695-1.456l-.206-.206a4.142 4.142 0 0 0-1.334-.886c-.466-.387-.96-.716-1.383-.959-6.867-5.61-11.69-13.23-14.735-23.276-.211-1.137-.54-2.09-.859-3.014l-.184-.538c-2.29-9.562-3.187-18.536-2.725-27.32 11.746.246 22.796-3.904 30.243-11.322 6.577 6.705 16.603 10.843 28.191 11.517.815.084 1.575.078 2.284.039.396 7.069-.377 14.307-1.658 22.723z" fill="#333" class="transform-group"/></svg>