<svg xmlns="http://www.w3.org/2000/svg" width="200" height="200" viewBox="0 0 200 200"><defs><style>@font-face{font-family:&quot;ifont&quot;;src:url(//at.alicdn.com/t/font_1442373896_4754455.eot?#iefix) format(&quot;embedded-opentype&quot;),url(//at.alicdn.com/t/font_1442373896_4754455.woff) format(&quot;woff&quot;),url(//at.alicdn.com/t/font_1442373896_4754455.ttf) format(&quot;truetype&quot;),url(//at.alicdn.com/t/font_1442373896_4754455.svg#ifont) format(&quot;svg&quot;)}</style></defs><path d="M100.018 21.2c10.642 0 20.964 2.083 30.678 6.192 9.384 3.97 17.814 9.653 25.054 16.893 7.24 7.24 12.924 15.67 16.893 25.055 4.109 9.714 6.192 20.035 6.192 30.678s-2.083 20.964-6.192 30.678c-3.97 9.384-9.653 17.814-16.893 25.054-7.24 7.24-15.67 12.924-25.054 16.893-9.714 4.109-20.036 6.192-30.678 6.192s-20.964-2.083-30.678-6.192c-9.385-3.97-17.815-9.653-25.055-16.893s-12.923-15.67-16.893-25.054c-4.109-9.714-6.192-20.036-6.192-30.678s2.083-20.964 6.192-30.678c3.97-9.385 9.653-17.815 16.893-25.055s15.67-12.923 25.055-16.893c9.714-4.109 20.035-6.192 30.678-6.192m0-4.8C53.837 16.4 16.4 53.837 16.4 100.018s37.437 83.617 83.618 83.617 83.617-37.437 83.617-83.617S146.198 16.4 100.018 16.4zm-9.512 94.626c3.791 3.803 9.116 7.164 9.116 7.164s6.72 4.965 11.666 1.957c10.597-6.492 10.342-8.75 15.536-5.827 18.146 10.16 17.389 16.9 16.938 18.557-1.814 6.525-13.682 11.817-26.634 8.573-13.017-3.236-26.047-10.106-36.533-20.514-10.401-10.478-17.271-23.502-20.515-36.532-3.23-12.952 2.05-24.815 8.58-26.634 1.665-.464 8.404-1.208 18.564 16.912 2.904 5.22.672 4.972-5.82 15.562-3.04 4.945 1.93 11.666 1.93 11.666s3.395 5.318 7.172 9.116zm0 0" fill="#fff" class="transform-group"/></svg>