<svg id="xiaohui" xmlns="http://www.w3.org/2000/svg" width="349.483" viewBox="0 0 349.483 347.983"><style>path{stroke-dasharray:1020;stroke-dashoffset:1000;-webkit-animation:dash 5s linear infinite;animation:dash 5s linear forwards}@-webkit-keyframes dash{to{stroke-dashoffset:0}}@keyframes dash{to{stroke-dashoffset:0}}</style><path d="M177.921 8.617c89.799.037 161.606 72.988 161.53 161.616-.076 88.916-72.285 161.361-161.419 161.352-89.251-.009-161.629-72.384-161.527-161.6C16.608 80.861 88.897 8.594 177.921 8.617zm126.201 97.859l-1.57-1.655c.82-.082 1.279-.169 1.738-.166 1.678.011 3.356.083 5.033.07.954-.007 1.935-.022 2.855-.239 1.128-.266 1.492-1.205.81-2.028-1.095-1.319-2.418-2.383-4.073-2.971 1.078 1.328 2.922 1.922 3.788 3.908-3.259.382-6.17.242-9.329-.138.965-1.41 1.869-2.563 1.736-4.115-.014-.163.055-.443.162-.489 1.209-.516.865-1.691 1.04-2.776.757.142 1.385.296 2.022.368.71.08 1.446.201 2.139.098 1.562-.233 2.249-1.74 1.47-3.169-1.633 1.347-3.628 1.364-5.588 1.536-.688.06-1.105-.241-1.494-.77-.323-.438-.51-1.146-1.366-.979l-.221 1.591c-.371.044-.658.084-.947.112-.281.027-.564.043-.846.063 2.336.897 2.336.897 2.934 2.67-2.981.672-5.956.513-8.986.348.334.333.695.674 1.099.736 1.339.208 2.316.801 2.753 2.142.023.07.206.088.35.144l1.011-.825c.19 1.369-.6 1.974-1.34 2.83-1.199-.941-2.276-1.884-3.452-2.68-1.182-.8-1.865-2.218-3.481-2.894 1.664 2.857 2.758 3.886 5.02 5.311 1.67 1.051 2.97 2.667 4.987 3.202.615.163 1.189.478 1.782.724l1.815 2.089c-1.512.228-2.462-.538-3.434-1.135-2.249-1.38-4.469-2.808-6.691-4.232-1.856-1.189-3.897-1.826-6.068-2.106-.749-.097-1.429-.101-1.899.644-.454.718-.258 1.39.102 2.039.633 1.139 1.755 1.571 2.917 1.933.414.129.819.29 1.542.55-.44.293-.575.445-.736.48-2.486.553-4.943.938-7.038-1.095-.34-.329-.772-.57-1.181-.819-1.065-.648-2.071-1.327-1.955-2.883-.489.79-.794 1.559-1.153 2.302-.396.818-.17 1.398.615 1.769 1.029.486 2.091.907 3.107 1.418.827.415 1.609.921 2.487 1.431-1.186 1.812-2.761 2.821-4.197 3.963-1.17.931-1.591.83-2.406-.504-1.169-1.912-2.009-3.95-2.229-6.211-.035-.36-.191-.707-.291-1.061l-.395.062c.069.986-.005 2.008.238 2.948.373 1.442.887 2.861 1.476 4.232 1.356 3.154 1.366 3.602 4.594 1.009 1.166-.937 2.187-2.052 3.336-3.013.369-.309 1.112-.677 1.379-.515 1.082.655 2.045 1.506 3.051 2.285l-.191.335-2.172-.679c.749.9 1.618 1.518 2.522 2.079.624.387 1.275.418 1.743-.262.426-.618-.099-.992-.45-1.379-.241-.265-.538-.479-.783-.741-.949-1.013-1.887-2.036-3.005-3.244 1.273-.229 2.214-.356 3.133-.574 1.651-.391 2.01-1.455.922-2.75-.339-.404-.83-.677-1.229-1.035-.543-.486-1.064-.996-1.637-1.536.286-.177.337-.235.388-.235.176-.001.358-.007.528.033 2.657.633 4.78 2.102 6.664 4.05.986 1.02 2.106 2.026 3.361 2.64 1.366.668 2.946.94 4.462 1.235.405.079 1.137-.276 1.314-.633.162-.328-.077-1.082-.393-1.372-.639-.589-1.454-.993-2.199-1.471zm-235.461-8.3c-.73-.684-1.466-1.362-2.187-2.056-.391-.376-.569-1.008-1.405-1.187l1.214 2.907c-1.369-1.019-1.397-2.582-2.801-3.177l-1.052 2.279c-1.874-1.55-3.108-3.319-3.357-5.671-.044-.416-.1-.843-.238-1.234-.615-1.744-1.123-3.546-1.941-5.192-.669-1.346-1.485-1.39-2.583-.418-.939.83-1.846 1.56-3.122.63-.61.734-.569 1.446-.228 2.105.381.738.827 1.46 1.349 2.104a49.854 49.854 0 0 0 2.973 3.372c.608.624.784 1.233.642 2.091-.552 3.358-1.304 6.702-.785 10.23-.729.124-1.314.329-1.886.298-1.166-.064-2.216-.43-2.904-1.505-.597-.935-.825-1.81-.063-2.79.415-.534.259-1.12-.161-1.649-1.237-1.557-4.658-2.33-6.464-1.443-1.147.563-1.331 1.635-.274 2.402.701.509 1.59.881 2.444 1.028 1.431.246 2.475.981 3.141 2.17.726 1.297 1.503 2.641 1.834 4.063.365 1.568.852 1.793 2.133 1.91.597.055 1.219.047 1.781.224.718.227 1.569.444 2.043.959 1.811 1.967 4.119 3.473 5.326 6.02.688 1.452 2.069 1.708 3.54 1.009 1.411-.671 1.984-1.78 1.774-3.374-.381-2.887-2.076-4.771-4.594-6.013-.913-.45-1.878-.795-2.788-1.25-1.619-.809-1.728-1.049-1.575-2.803.181-2.085.347-4.172.539-6.257.018-.199.179-.385.384-.802 1.805 2.252 3.646 4.267 4.43 6.883.605 2.02 2.038 2.611 3.804 3.012.973.221 1.29-.247 1.477-1.074-1.547-1.597-3.055-3.181-3.599-5.396.41.172.673.453.941.73.415.428.782.925 1.26 1.264.849.603 1.713.288 1.903-.725.104-.555-.013-1.188-.171-1.746-.194-.684-.537-1.326-.813-1.984.948.991 1.921 1.959 2.837 2.978.92 1.024 1.84 2.056 2.656 3.162.794 1.075 1.456 2.248 2.175 3.378l.397-.212c-.229-4.163-1.982-7.69-4.811-10.646l.544-2.909c.789.618 1.38 1.104 1.995 1.557.641.472 1.304.913 2.256 1.575l-2.982.261c2.395 1.154 4.211 1.079 6.785-.186 0-.251-.017-.545.003-.836.123-1.786.054-1.823-1.639-2.38a12.76 12.76 0 0 1-2.593-1.192 50.182 50.182 0 0 1-3.728-2.51c-3.443-2.531-6.633-5.313-8.839-9.062-.771-1.31-1.181-1.398-3.01-.891-.773 2.406-.819 4.672.012 6.276l1.319-2.499 8.711 8.265c-1.817.921-2.327.789-3.005-.648-.306-.65-.543-1.338-.9-1.958-.66-1.147-1.335-1.41-2.153-.938-1.544.891-1.886 1.614-1.14 2.853.52.863 1.251 1.597 1.878 2.397 1.102 1.403 2.195 2.813 3.291 4.221zm221.052 71.921c.019-61.595-49.924-111.585-111.615-111.719-61.619-.133-111.803 49.962-111.857 111.657-.054 61.674 50.039 111.812 111.706 111.807 61.722-.006 111.747-50.022 111.766-111.745zM148.01 34.751l.303.306c-1.079 3.792-1.889 7.69-3.312 11.348-1.449 3.725-2.293 7.555-3.098 11.42-.189.906-.215 1.847-.319 2.787 1.058.253 1.789.23 2.175-.684 1.334-3.153 2.392-6.386 2.942-9.781.354-2.185.829-4.351 1.252-6.525.548-2.815 2.211-5.012 3.997-7.13.399-.473.828-1.031 1.66-.913.426 1.566-.246 2.853-.751 4.179-.548 1.44-2.139.819-3.15 1.638-.051.638-.14 1.344-.157 2.051-.049 1.975-.1 3.95-.09 5.925a31.7 31.7 0 0 0 .216 3.4c.052.458.237.945.498 1.325.872 1.268 2.03 1.126 2.699-.276.897-1.88 1.812-3.751 2.817-5.828.675.446 1.349.798 1.91 1.282.982.847 1.979.993 3.117.364.107-1.434-.512-2.317-1.823-2.738-1.065-.342-2.131-.681-3.404-1.087.435-.364.708-.658 1.039-.852.41-.241.903-.347 1.3-.604.922-.599.877-1.412-.056-1.959-.81-.474-1.464-.292-2.065.392-.716.816-1.477 1.6-2.62 1.782-.592.095-1.257.195-1.593-.473-.338-.671-.573-1.394-.929-2.283.656.074 1.112.137 1.57.176 1.397.119 2.459-.408 3.107-1.673.762-1.487 1.039-3.069.746-4.711-.254-1.42-1.105-1.857-2.329-1.12-.966.582-1.797 1.385-2.701 2.073-.335.255-.708.46-1.399.902.319-1.047.534-1.658.688-2.285.185-.753.412-1.514.455-2.281.109-1.948-.563-2.39-2.34-1.638-.207.088-.427.145-.995.335l.779-2.356 1.656.985c.409-.435.826-.782 1.124-1.212 1.898-2.727 3.338-5.681 4.198-8.896a5.845 5.845 0 0 0 .178-1.953c-.117-1.427-1.156-1.989-2.392-1.317-.628.341-1.184.814-1.789 1.202-.41.263-.849.481-1.409.794-.067-.516-.065-.757-.132-.977-.241-.788-.383-1.64-.793-2.331-.427-.721-1.244-.929-2.068-.627-.827.303-.956.984-.832 1.77.103.649.196 1.301.268 1.954.144 1.305.062 2.587-.352 3.869l-1.223-.158c-.291.682.206 1.643-.967 1.822l-1.017-1.109c-1.134.64-1.103.64-1.095 1.419.009.88-.045 1.761-.074 2.735.745.14 1.653.423 2.57.457 1.519.057 1.888.37 1.754 1.94-.112 1.312-.291 2.618-.409 3.93-.062.685.071 1.291.765 1.679.757.423 1.368.302 1.9-.464zm-40.184 35.858l-2.171-4.019c.711.061 1.061.08 1.409.122 2.62.315 5.237.66 7.86.943 1.493.161 2.015-.514 1.428-1.921-.389-.931-.922-1.825-1.519-2.643-1.45-1.986-3.016-3.887-4.456-5.88-1.365-1.89-2.604-3.87-3.947-5.777-.793-1.125-1.618-2.239-2.542-3.256-.908-.999-1.421-.954-2.438-.05-.268.238-.537.494-.733.789-1.159 1.745-2.297 3.503-3.44 5.258-.3.461-.595.925-.955 1.486-1.015-1.594-.907-2.822-.057-4.235 1.573-2.617 2.945-5.356 4.368-8.062.224-.427.274-.946.43-1.519-1.44.183-3.101 1.332-4.724 3.157l1.214.22c-.384 2.221-1.594 3.87-2.996 5.793-.878-1.379-1.61-2.518-2.333-3.664-1.326-2.101-3.05-2.693-5.365-1.837-1.574.582-1.868 1.577-.549 2.627 2.022 1.608 3.276 3.797 4.857 5.743.955 1.175 1.004 2.259.19 3.423-1.236 1.767-2.512 3.506-3.786 5.246-.496.676-1.081 1.292-1.529 1.996-.188.295-.306.92-.14 1.092.269.28.842.5 1.207.413 1.074-.257 1.955-.859 2.488-1.898a227.817 227.817 0 0 1 2.444-4.609c.269-.495.603-.956 1.109-1.749.485 1.216.967 2.061 1.133 2.965.117.64.033 1.557-.358 2.003-.973 1.108-.781 2.117-.178 3.412l4.405-1.026 2.797 1.697c0 .217.017.79-.003 1.361-.041 1.153.446 1.648 1.601 1.539.342-.032.673-.187.98-.277l2.714 2.567c.613-.55 1.08-.972 1.585-1.43zm157.338-10.395c.329-.15.72-.23.976-.46 1.466-1.32 3.057-2.547 4.299-4.058 1.08-1.315 1.83-2.928 2.56-4.487.223-.477-.103-1.212-.177-1.829-.56.102-1.206.061-1.662.336-1.125.679-2.163 1.501-3.234 2.27-3.065 2.201-6.144 4.383-9.182 6.62-.916.675-1.82.84-2.856.43-.835-.33-1.672-.656-2.507-.988-2.06-.818-4.103-1.684-6.187-2.438-1.197-.434-1.968.376-1.599 1.612.115.387.353.778.638 1.064a16.192 16.192 0 0 0 1.763 1.524c1.184.887 2.399 1.731 3.65 2.628-.514 1.265-1.629 1.637-2.633 2.116-1.89.901-3.808 1.741-5.689 2.66-.423.206-.738.633-1.102.959l.119.424c.731.129 1.47.402 2.19.357a32.267 32.267 0 0 0 4.446-.577c1.123-.23 2.006-.033 2.744.826 1.171 1.361 2.375 2.696 3.491 4.102.423.533.639 1.23.919 1.791-1.176 1.381-2.888.232-4.194 1.24 2.025 1.081 4.09 1.452 6.115 1.905 1.333.298 1.89-.287 1.734-1.682-.147-1.317-.843-2.404-1.775-3.253-1.545-1.408-3.202-2.695-4.827-4.014-.49-.398-1.031-.733-1.894-1.339 2.493-.894 4.615-1.658 6.742-2.409.161-.057.363-.053.533-.017 2.205.47 4.146-.294 6.008-1.324a12.637 12.637 0 0 1 5.293-1.586c.537-.038 1.081-.075 1.607-.185 2.097-.441 3.836-2.732 3.671-4.799-2.915 3.221-6.202 4.227-9.98 2.581zm-214.998 152.4l5.695-1.992-1.078-3.256c-4.883 1.568-9.6 3.026-14.395 4.719l1.092 3.221 5.992-1.815 2.236 6.908-5.932 2.063 1.077 3.286 14.423-4.698-1.122-3.266-5.845 1.757c-.644-1.974-1.224-3.731-1.788-5.493-.126-.391-.2-.797-.355-1.434zm50.94 85.276c1.393 1.666 3.034 2.627 4.838 3.322 3.408 1.313 5.94.454 7.816-2.675 1.418-2.364 2.77-4.767 4.134-7.162.194-.341.29-.738.42-1.077-2.147-1.603-2.187-1.616-3.508-1.209-.917-2.156-2.61-3.245-4.909-3.271-2.355-.026-3.875 1.36-4.978 3.297a6.877 6.877 0 0 0-.463.973c-1.271 3.361 1.04 6.734 4.64 6.779.465.006.931.001 1.409.001-.755 1.821-2.064 2.645-3.753 2.075-1.101-.372-2.105-1.092-3.07-1.773-.462-.326-.733-.924-1.233-1.586l-1.343 2.306zm136.154-14.118c.474.911.829 1.598 1.188 2.283 1.059 2.016 2.187 4 3.161 6.056 1.019 2.15.326 3.809-1.783 4.661-1.67.675-3.051.223-4.113-1.53-.961-1.587-1.773-3.264-2.66-4.897-.593-1.09-1.203-2.171-1.875-3.38l-3.087 1.697c1.738 3.136 3.387 6.112 5.041 9.085.086.155.217.286.333.424 1.507 1.787 3.41 2.363 5.652 1.787 1.652-.425 3.116-1.235 4.396-2.362 1.87-1.647 2.344-3.693 1.63-6.03a11.975 11.975 0 0 0-.837-1.983 448.177 448.177 0 0 0-3.371-6.353c-.189-.351-.471-.652-.758-1.041-.964.521-1.846 1.001-2.917 1.583zm-136.606-9.796c-3.417 1.7-12.848 7.729-13.743 8.807l2.754 1.95 3.178-1.967 4.958 3.61-.919 3.637c.849.621 1.566 1.158 2.298 1.673.182.128.415.185.801.35l3.967-15.656-3.294-2.404zM200.46 52.405c.283.522.519 1.07.852 1.55.774 1.112 1.319 1.212 2.369.408.418-.32.807-.734 1.074-1.185.677-1.146 1.134-2.368 1.021-3.749-.185-2.277.017-2.476 1.95-3.19 1.431-.528 2.752-1.361 3.993-2.986-.69.062-1.053.018-1.351.136-.998.394-1.939.982-2.966 1.236-.913.226-1.914-.191-2.959.293.444-1.142.434-1.167 1.269-1.489 1.282-.495 2.585-.936 3.864-1.437.344-.135.635-.405 1.137-.736l-2.644-1.925c1.706-1.403 4.111-.188 5.562-1.805-.31-1.066-1.021-1.472-1.908-1.501a18.584 18.584 0 0 0-2.858.147c-1.837.226-3.657.682-5.524.212-.159-.04-.375.141-.886.354l4.086 2.022c-.922.462-1.503.684-2.006 1.022-.95.636.303 1.253.017 2.138-.753.571-1.669 1.234-2.547 1.944-.555.449-1.236.881-1.522 1.482-.269.566-.249 1.386-.075 2.016.193.697.926.585 1.54.526.456-.044.919-.009 1.627-.009-.459 2-1.161 3.593-3.115 4.526zm.382-24.898c.265.521.307.723.431.828 1.632 1.383 3.706 1.462 5.445.229.698-.495 1.402-.981 2.34-1.637.041 1.306-.749 1.804-1.058 2.516-.486 1.12-1.308 1.433-2.388 1.545-.553.057-1.088.283-1.631.433l.054.358c.433 0 .88.072 1.296-.011 3.699-.74 7.394-1.504 11.087-2.276.344-.072.667-.247.997-.383.98-.407 1.931-.91 2.943-1.205 1.373-.401 2.794-.634 4.189-.961.328-.077.636-.239 1.011-.385-.222-1.119-.683-1.919-1.801-2.018-1.509-.134-3.028-.162-4.595-.239 0-.675-.022-1.206.006-1.734.029-.554.432-1.135-.293-1.872-.622 1.067-1.208 2.002-1.724 2.975-.995 1.878-2.148 2.297-4.296 1.433.218-1.052.131-2.087-.618-3.039-.899.193-1.444.612-1.39 1.573.065 1.152-.572 1.756-1.588 2.094-.339.113-.703.233-.976.45-1.731 1.378-3.751 1.429-5.813 1.329-.445-.022-.894-.003-1.628-.003zm113.482 195.309c1.608-2.253 1.691-4.252.278-6.261a9.98 9.98 0 0 0-1.566-1.726c-2.886-2.533-5.797-5.037-8.707-7.543-.256-.221-.561-.386-1.037-.707l-.988 3.036 6.206 4.88-.139.434c-1.597 0-3.194-.014-4.79.003-3.247.034-3.248.04-4.003 3.183-.02.083.095.198.196.394.605-.037 1.257-.05 1.903-.119 2.743-.295 5.484-.608 8.226-.913 2.062-.23 3.564 1.538 2.974 3.501-.116.387-.25.769-.413 1.268l1.86.57zm-254.31 9.544c-1.698.852-3.229 1.645-4.784 2.389-.586.281-1.212.554-1.846.645-1.019.147-1.859-.44-2.27-1.404-.421-.989-.229-1.875.712-2.526.784-.542 1.665-.946 2.511-1.397 1.149-.613 2.304-1.213 3.595-1.892l-1.626-2.995c-2.195 1.137-4.261 2.103-6.222 3.247-2.952 1.722-2.998 5.289-.16 7.214.434.294.914.522 1.379.784-.877 1.284-.818 1.552.858 3.751l9.424-4.805-1.571-3.011zm14.753 38.701c1.235-1.142 2.446-2.282 3.683-3.393.486-.436.987-.894 1.561-1.186 1.008-.513 2.213-.147 2.876.754.613.833.585 1.666-.19 2.62-.45.554-.995 1.032-1.514 1.528-1.069 1.023-2.148 2.034-3.364 3.183l2.407 2.442c1.939-1.856 3.779-3.481 5.452-5.262 1.48-1.576 1.364-3.356-.016-5.014-.98-1.177-2.303-1.641-3.822-1.859l.569-1.384-2.289-2.112-7.874 7.371c.92.842 1.655 1.517 2.521 2.312zm179.79 20.105c-.527-.746-.901-1.283-1.283-1.815-.768-1.07-1.584-2.108-2.299-3.213-.877-1.355-.646-2.671.512-3.481 1.062-.742 2.045-.541 3.097.739.759.924 1.421 1.926 2.142 2.882.524.695 1.073 1.37 1.681 2.142l2.659-2.046c-1.603-2.139-3.015-4.22-4.634-6.124-1.414-1.664-3.177-1.731-4.98-.494-1.241.85-1.955 2.041-2.167 3.662l-1.242-.872-2.554 1.96 6.297 8.65 2.771-1.99zm-104.97 9.53c-.471 2.646-1.037 5.041-1.291 7.468-.254 2.439 1.187 4.043 3.656 4.161 1.139.055 2.301-.352 3.478-.554.357 1.292.689 1.456 3.247 1.461.714-1.971 2.008-9.046 1.87-10.449l-2.993-.495c-.248 1.181-.452 2.172-.664 3.16-.239 1.112-.4 2.251-.751 3.327-.408 1.249-1.443 1.748-2.705 1.492-1.168-.237-1.767-1.019-1.634-2.387.11-1.128.401-2.238.594-3.359.178-1.035.334-2.073.515-3.21l-3.322-.615zm-93.38-53.261c1.647-1.024 3.057-1.919 4.487-2.78.508-.306 1.041-.613 1.605-.772 1.063-.3 2.068.174 2.593 1.108.538.957.368 1.903-.584 2.71-.544.461-1.172.826-1.775 1.214-1.249.802-2.507 1.59-3.912 2.478l1.88 2.849c2.189-1.392 4.26-2.594 6.203-3.977 2.013-1.432 2.336-3.521.807-5.458-.736-.933-1.862-1.559-2.905-2.399l.59-.951-1.688-2.624-9.143 5.699 1.842 2.903zm124.883 56.336c.226 2.458.372 4.658.641 6.842.445 3.619 3.992 5.054 6.925 2.842.362-.273.715-.559 1.093-.855.706 1.387 1.09 1.448 3.674.61-.402-3.419-.393-6.921-1.084-10.499l-3.149.414c.102 1.488.204 2.843.286 4.199.054.893.185 1.799.09 2.679-.125 1.163-1.063 1.892-2.233 1.947-1.11.052-1.847-.506-2.134-1.751-.173-.752-.213-1.537-.292-2.309-.145-1.414-.275-2.83-.429-4.435l-3.388.316zM69.526 265.257c1.867-1.502 3.834-2.955 5.644-4.582 1.372-1.233 1.542-2.904.688-4.605-.965-1.923-2.461-3.341-4.411-4.45l-1.635 1.301c.604.405 1.089.644 1.463.998.731.693 1.494 1.384 2.067 2.2.532.758.448 1.588-.607 2.25-.573-.55-1.142-1.144-1.761-1.68-.765-.663-1.509-1.382-2.372-1.891-1.289-.76-2.744-.496-3.805.502-1.055.993-1.294 2.364-.584 3.78.61 1.217 1.506 2.15 2.878 2.523.316.086.624.203.951.311-.621 1.325-.477 1.645 1.484 3.343zm214.814-7.53c-2.329-2.347-4.493-2.853-6.593-1.63-1.397.813-2.382 2.016-2.95 3.516-.838 2.214-.183 4.596 1.634 6.21 1.856 1.648 4.022 2.047 5.966.958 2.243-1.257 3.57-3.258 4.469-5.701l-1.556-1.259c-.302.601-.473 1.113-.781 1.521-.643.853-1.265 1.761-2.067 2.445-.997.851-1.709.736-2.948-.19l4.826-5.87zm-66.022 50.444c-.807-2.606-1.455-5.028-2.319-7.372-.546-1.481-1.835-2.133-3.436-2.138-1.803-.006-3.403.629-4.93 1.498-1.497.852-1.55 1.217-.558 2.619 1.262-.589 2.463-1.272 3.746-1.71 1.129-.385 1.546-.059 2.244 1.333-.746.34-1.504.651-2.231 1.025-.902.463-1.854.879-2.647 1.493-1.235.957-1.5 2.299-.935 3.71.531 1.326 1.574 1.998 3.117 1.948 1.667-.054 2.998-.742 3.914-2.174.082-.128.247-.202.376-.303l.736.926 2.923-.855zM188.592 36.279c3.004.684 5.541 1.083 8.275.254 5.733-1.739 11.54-3.237 17.326-4.799.706-.191 1.469-.168 2.205-.244l.114.451c-1.642.851-3.627.919-5.281 1.958.216.08.33.169.422.15 3.81-.788 7.619-1.586 11.428-2.384.059-.012.12-.021.174-.044 1.306-.539 2.63-.721 4.03-.363.343.088.758-.107 1.147-.173-.397-1.713-1.376-2.338-3.025-2.008-1.174.235-2.331.567-3.51.764-6.205 1.036-12.429 1.969-18.62 3.083-4.654.838-9.269 1.893-13.899 2.862-.157.034-.292.178-.786.493zm80.386 229.38l3.424 7.24-.285.247c-1.568-.826-3.136-1.651-4.703-2.478-2.673-1.411-2.674-1.413-4.69.914-.066.077-.056.219-.114.472l10.325 4.664 2.666-2.661c-.678-2.704-3.541-9.711-4.349-10.682l-2.274 2.284zm27.281-16.972c.529-.615.952-1.041 1.298-1.523 1.136-1.582 2.059-3.268 1.972-5.293-.105-2.469-2.439-3.669-4.501-2.32-.597.391-1.09.938-1.661 1.374-.673.514-1.213 1.519-2.281.894-.58-.339-.369-1.388.475-2.59.429-.611.921-1.179 1.471-1.877l-2.014-1.03c-.732 1.148-1.512 2.089-1.967 3.168-.43 1.019-.741 2.187-.713 3.28.055 2.167 2.277 3.323 4.175 2.273.621-.343 1.15-.855 1.708-1.307.419-.339.771-.793 1.237-1.031.373-.191 1.028-.33 1.272-.135.262.209.38.922.226 1.264-.388.859-.926 1.661-1.484 2.428-.308.424-.776.731-1.332 1.237l2.119 1.188zm-.324-21.038l1.818.631 1.093-1.609c.71.26 1.323.488 1.939.71 1.127.407 2.238.874 3.388 1.198 1.561.439 2.698-.032 3.525-1.402.589-.976 1.016-2.023.965-3.357l-1.764-.705c-.245.544-.321 1.035-.607 1.273-.419.348-1.055.805-1.482.707a18.284 18.284 0 0 1-4.791-1.837l.702-2.508-1.89-.7-1.192 2.35-3.012-.924-.275 3.309 1.956.993c-.115.584-.219 1.101-.373 1.871zm-119.748 73.005c-2.848-.071-3.113.125-3.639 2.653l-1.742.335-.087 1.856 1.806.5c0 1.423.048 2.79-.009 4.153-.144 3.452 1.312 4.851 4.767 4.501.352-.036.696-.14 1.203-.246l.143-1.903c-.541-.052-.892-.079-1.24-.121-.83-.098-1.349-.596-1.387-1.396-.077-1.651-.111-3.312.264-4.944l2.446-.255v-1.912l-2.384-.393-.141-2.828zm-30.115 1.914c.078-.171.201-.375.268-.596.456-1.51.393-1.758-1.057-2.287-1.061-.387-2.179-.712-3.296-.829-2.985-.312-5.398 1.465-6.143 4.383-.685 2.681.626 5.165 3.432 6.325.875.362 1.827.585 2.766.735 1.904.306 2.203-.014 2.165-2.02-.946-.161-1.92-.203-2.807-.503-1.787-.603-2.56-2.095-2.13-3.815.435-1.741 1.803-2.772 3.615-2.485 1.029.165 2.006.675 3.187 1.092zm79.588 3.086l-5.22-15.142-3.219 1.155 5.217 15.126 3.222-1.139zm-60.767-7.909c-.521 5.463-1.043 10.667-1.366 16.005l3.315.251c.51-5.4 1.029-10.604 1.362-15.912l-3.311-.344zm116.494-46.391l8.819 6.164 1.968-2.77c-.674-.494-1.194-.883-1.722-1.262-.923-.662-1.891-1.268-2.765-1.989-1.493-1.232-1.632-2.52-.532-4.065.192-.27.407-.524.689-.885l-2.098-1.421c-1.436 1.168-1.399 2.564-1.047 4.133l-1.416-.578-1.896 2.673zm-163.952 50.015l3.111 1.382c.78-1.647 1.435-3.116 2.162-4.548 1.074-2.116 2.247-2.5 4.358-1.51.206.097.43.154.796.282l.964-2.213c-1.656-.981-1.93-1.003-4.158-.378l.251-1.471-2.979-1.267-4.505 9.723zm78.668.981l2.067 10.513 3.328-.669c-.352-1.898-.71-3.591-.971-5.299-.291-1.905.457-2.958 2.318-3.419.337-.083.682-.133 1.193-.231l-.489-2.301c-1.856-.327-2.748.783-3.594 2.126l-.69-1.41-3.162.69zm71.208-20.586c-1.885-2.882-5.792-7.506-6.998-8.268l-2.334 1.99 6.733 8.303 2.599-2.025zm-139.79 23.854l3.247 1.105 3.487-10.177-3.23-1.11a60734.83 60734.83 0 0 0-3.504 10.182zm165.565-72.902l9.629 4.905 1.501-3.053c-3.244-1.671-6.306-3.334-9.594-4.81l-1.536 2.958zM94.671 71.8c-.616.792-.54 1.786-.236 2.748.322 1.018.805 1.984 1.169 2.99.313.866.883 1.238 1.787 1.11.355-.05.707-.144 1.063-.158.857-.035 1.539-.358 1.797-1.208.281-.928-.184-1.655-.891-2.175-1.511-1.113-3.064-2.167-4.689-3.307zm193.518 21.263c-2.33-.524-4.586-.343-6.78.332-1.241.382-2.292 1.139-2.595 2.504-.085.384.097 1 .383 1.246.291.25 1.07.394 1.274.202.953-.899 2.276-1.098 3.253-1.797 1.402-1.003 2.758-1.981 4.465-2.487zM137.976 29.038c.622 1.249 1.173 2.557 1.911 3.751.385.623 1.029 1.181 1.686 1.506.438.217 1.223.145 1.629-.129.266-.18.279-.989.156-1.45-.515-1.934-3.056-3.857-5.065-3.915-.088-.003-.179.129-.317.237zm68.691 25.558c1.591.167 3.064-.258 4.463-.985.601-.312 1.098-.706.937-1.539-.245-1.27-1.067-2.04-2.404-2.259l-2.996 4.783zm88.084 36.303l-.418-.227c-1.108.876-2.047 1.929-2.867 3.078-.406.569-.431 1.253.037 1.842.448.564 1.047.485 1.641.278.473-.165.939-.352 1.515-.57-1.118-.769-1.13-.772-.867-1.579.307-.945.638-1.882.959-2.822zm-93.872-40.745c-1.84-.061-3.618.259-5.369.677-.701.167-.806.956-.186 1.365.467.308 1.161.646 1.625.516 1.52-.429 2.944-1.12 3.93-2.558zm91.43 179.139c.028-.903-.504-1.594-1.289-1.671-.949-.094-1.957.976-2.014 2.137-.046.921.463 1.565 1.291 1.634 1.022.084 1.975-.91 2.012-2.1zm-33.48 41.908c-.02-.861-.65-1.448-1.513-1.41-1.052.046-2.132 1.111-2.112 2.082.017.827.666 1.416 1.538 1.394 1.095-.028 2.112-1.034 2.087-2.066zM134.19 294.248c.922-.038 1.63-.74 1.58-1.569-.056-.938-1.247-1.827-2.34-1.745-.857.064-1.472.682-1.469 1.477.003.994 1.083 1.884 2.229 1.837zM299.996 89.933l-.556-.214c-.39.721-.843 1.416-1.155 2.17-.418 1.011-.91 1.887-2.24 2.078.514.5.961.908 1.486 1.084.3.101.898-.056 1.067-.301 1.01-1.459 1.054-3.179 1.398-4.817z" fill="none" stroke="#fff" stroke-width="1.5" stroke-miterlimit="10"/><path d="M85.74 216.27c3.956-.971 7.607-1.906 11.278-2.76 13.549-3.152 27.203-5.783 40.959-7.832 10.314-1.536 20.656-2.92 31.017-4.091 10.84-1.225 21.712-2.196 32.583-3.123 6.691-.57 13.402-.952 20.111-1.238 12.523-.533 25.051-.986 37.58-1.367 5.635-.172 11.278-.093 16.918-.126.646-.004 1.292-.001 2.231-.001-.536 1.794-.913 3.353-1.466 4.848-1.697 4.587-.709 3.752-5.392 4.174-10.33.929-20.658 1.883-30.906 3.531-1.36.219-2.712.493-4.06.775-.38.08-.734.282-1.079.6 12.344-.434 24.621.261 37.097 1.108-.203.632-.299 1.076-.482 1.482-11.795 26.145-31.029 44.172-58.32 53.38-9.83 3.317-19.958 5.076-30.3 5.732-6.119.388-12.23.483-18.332-.143-7.483-.768-14.798-2.351-21.869-4.935-21.68-7.923-39.114-21.368-52.184-40.403-1.691-2.463-3.049-5.157-4.54-7.756-.293-.508-.491-1.069-.844-1.855zm103.665 19.715c-.297-1.478-.439-2.922-.89-4.263-.685-2.036-2.247-2.85-4.373-2.548-1.839.261-2.827 1.483-3.342 3.114-.794 2.513-.801 5.077-.105 7.609.562 2.047 2 3.206 3.808 3.248 1.825.042 3.362-.992 4.025-2.988.443-1.342.595-2.782.877-4.172zm-13.821.799c.018 1.513-.281 2.753-1.179 3.793-1.338 1.549-3.119 1.066-4.769.842-.365.948-.019 1.336.768 1.552 2.228.61 4.641-.226 5.753-2.258 1.612-2.948 1.7-6.078.55-9.203-.508-1.38-1.568-2.242-3.114-2.358-1.662-.124-3.115.283-4.07 1.748-1.03 1.58-1.14 3.276-.286 4.953.907 1.78 3.114 2.503 4.944 1.696.425-.187.819-.443 1.403-.765zm17.437-5.741c.903-.165 1.712-.407 2.53-.442 1.519-.064 2.263.561 2.39 1.831.137 1.378-.521 2.281-1.924 2.565-.525.106-1.088.048-1.597.193-.274.078-.635.413-.654.656-.017.21.358.594.62.659.75.186 1.549.178 2.295.377 1.138.303 1.753 1.126 1.795 2.197.043 1.113-.609 2.137-1.781 2.382-.846.177-1.765.082-2.641-.001-.511-.048-1.001-.311-1.558-.496-.356.868-.246 1.512.618 1.789 1.972.631 3.918.606 5.655-.656 2.036-1.479 1.961-4.368-.097-5.772-.275-.187-.57-.345-.944-.57.511-.46.949-.774 1.286-1.172 1.524-1.798.762-4.669-1.513-5.203-1.165-.274-2.474-.057-3.699.088-.731.087-1.143.622-.781 1.575zm-35.001.745l2.703-.483v10.013l-1.893.136c-.985.069-.973.596-.642 1.443 2.188 0 4.331.027 6.471-.031.289-.008.566-.439.849-.674-.269-.244-.503-.625-.814-.703-.608-.153-1.258-.137-2.111-.209v-12.228c-1.6.464-2.905.816-4.191 1.225-.663.211-.704.722-.372 1.511zM76.755 155.538l4.6-8.018c2.082 0 4.06-.038 6.036.017.906.025 1.597-.215 2.237-.874 1.083-1.116 2.244-2.155 3.56-3.403 1.066 1.013 2.147 1.932 3.094 2.973.873.96 1.821 1.321 3.143 1.318 18.896-.045 37.791-.031 56.687-.031h2.318v-12.986c12.476-.006 24.741-.002 37.268-.002.016 2.228.037 4.36.044 6.491.008 2.083.002 4.167.002 6.361.716.056 1.237.131 1.757.131 20.215.006 40.431 0 60.646.022.968.001 1.711-.232 2.392-.942 1.074-1.121 2.235-2.159 3.47-3.338 1.154 1.096 2.274 2.085 3.302 3.162.755.791 1.563 1.312 2.68 1.096 2.303-.445 3.797.519 5.009 2.462 1.129 1.811 2.563 3.43 4.106 5.452-1.024.047-1.702.104-2.381.104-17.036.005-34.072.004-51.108.004l-27.354.001c-.54 0-1.08-.002-1.619.022-.819.035-1.017.478-.673 1.454h52.978v31.524h-53.015l-.321 2.53h-36.977l-.36-2.466h-51.33v-31.534c2.129-.016 4.262-.038 6.395-.046 2.1-.008 4.199-.002 6.299-.002H158.19c.301-.805.392-1.383-.619-1.457-.597-.044-1.199-.026-1.799-.026H79.47l-2.715.001zm171.665 32.601c.401-1.898.345-29.22-.045-30.556h-52.602a317.917 317.917 0 0 0-.007 8.84l2.388.254v1.957l-2.174.238c-.372 1.927-.315 17.878.064 19.267h52.376zm-90.075-30.559h-50.907c-.096.273-.205.438-.205.602-.018 9.417-.029 18.833-.033 28.25 0 .476.063.953.106 1.429.004.049.072.092.113.136.04.043.082.085.142.146h50.633c.384-1.769.353-17.788-.034-19.302l-2.58-.205v-1.962l2.765-.258v-8.836zm5.271-20.545v28.045c2.025.424 25.492.325 26.733-.093.375-3.821.2-26.684-.216-27.952h-26.517zm19.306 53.278v-2.13c0-2.82.004-5.639-.001-8.459-.002-1.017.229-1.914 1.205-2.435 2.256-1.205 4.476.066 4.501 2.601.028 2.819 0 5.639.013 8.459.003.633.073 1.266.114 1.941h1.922c.398-1.694.37-18.677-.013-20.109-2.331-.41-26.686-.277-27.909.148v20.049l1.982-.134v-4.993c.002-1.98-.024-3.96.019-5.939.026-1.193.564-1.897 1.51-2.192 2.536-.792 4.158.365 4.17 2.998.013 2.82-.004 5.639.008 8.459.003.569.079 1.138.118 1.661h3.691v-2.096c.001-2.82.008-5.639-.002-8.459-.004-1.028.254-1.909 1.238-2.411 2.303-1.175 4.444.092 4.463 2.654.02 2.82-.003 5.639.01 8.459.003.628.076 1.255.12 1.929l2.841-.001z" fill="none" stroke="#fff" stroke-width="1.5" stroke-miterlimit="10"/><path d="M251.904 157.044h24.529c.375 1.359.441 31.862.064 33.809h-24.523c-.411-1.346-.479-31.907-.07-33.809zM104.249 190.855H79.564c-.41-1.688-.39-32.335.007-33.809h24.678v33.809zM81.905 208.552l-4.297-12.181c6.871-1.531 61.57 2.984 69.764 5.743-3.548.512-6.892.982-10.231 1.483-1.362.204-2.734.394-4.065.733-4.221 1.075-8.547 1.081-12.847 1.348-8.733.543-17.473.995-26.202 1.598-3.936.272-7.853.817-12.122 1.276zM192.213 131.199c-1.839 0-3.679.04-5.515-.031-.412-.016-.871-.357-1.2-.664-.921-.858-1.737-1.834-2.693-2.647-.458-.389-1.136-.706-1.723-.722-2.698-.075-5.399-.016-8.098-.042-.725-.007-1.258.232-1.703.798-.631.8-1.348 1.536-1.95 2.356-.557.759-1.236 1.016-2.16.983-1.658-.059-3.321-.017-5.082-.017.746-1.293 12.526-12.508 15.208-14.544l15.067 14.091c-.052.146-.102.293-.151.439zM156.373 133.934c-.038-.392-.09-.687-.09-.982.001-.294.054-.588.082-.862 1.291-.384 39.329-.494 41.756-.118v1.88c-1.554.437-38.853.534-41.748.082zM61.125 113.274l-3.567-4.349c2.038.573 3.238 1.979 3.567 4.349zM56.063 89.439c-1.307-1.15-1.307-1.15-1.535-2.58.665-.358 1.164-.016 1.485.494.403.636.668 1.354.05 2.086zM148.83 27.235c.066-.631.126-1.263.198-1.894.081-.71.333-1.442.233-2.123-.397-2.707 1.457-3.747 3.379-4.901-.1 1.422-2.435 7.396-3.81 8.918zM152.155 45.364l2.281 1.326c-.682 1.846-1.488 3.383-2.644 4.789-.411-1.958-.008-3.861-.025-5.77l.388-.345zM144.609 49.811l-.869 6.769c-.78-1.204-.36-4.577.869-6.769zM145.147 26.898c-.277-.926-.113-1.388.584-1.74.59.836.093 1.193-.584 1.74zM102.513 63.988c.092-1.942.249-2.147-1.807-1.861-.563-2.258 1.266-4.871-1.053-7.155l-1.765 2.475c.442-2.792 1.448-5.309 3.279-7.42.771-.888 1.275-.859 2.076.067.662.765 1.196 1.643 1.774 2.48 2.21 3.202 4.406 6.414 6.628 9.608.602.866 1.315 1.665 1.501 2.911-.638.055-1.099.126-1.561.128-1.738.006-3.475-.017-5.213-.016-.81.001-1.45-.066-1.843-1.023-.454-1.109-.618-1.062-2.016-.194z" fill="none" stroke="#fff" stroke-width="1.5" stroke-miterlimit="10"/><path d="M97.762 63.885c-.162-2.079.019-4.028 1.004-5.886.697 1.754.927 3.567.768 5.391-.076.889-.848.818-1.772.495zM113.601 291.532c-.353 1.304-.924 2.668-2.415 3.349-1.689.772-3.645-.519-3.674-2.376-.023-1.458 1.263-3.28 2.629-3.723 1.65-.535 3.5.835 3.46 2.75zM94.804 281.193l5.244-3.535.289.215-1.72 6.03-3.813-2.71z" fill="none" stroke="#fff" stroke-width="1.5" stroke-miterlimit="10"/><path d="M214.4 28.01l-2.949 1.504c.241-1.971.93-2.376 2.949-1.504zM301.552 101.472l1.026 1.511-.159.31c-.439-.129-1.057-.131-1.266-.424-.205-.289.004-.873.032-1.327l.367-.07zM303.886 98.937c.104 1.135-.398 1.297-1.127 1.48-.053-.819.417-1.042 1.127-1.48zM302.207 99.291h-1.434c.649-.517.649-.517 1.406-.363l.028.363z" stroke="#fff" stroke-width="1.5" stroke-miterlimit="10"/><path d="M71.326 259.468c-1.721 1.538-3.361 1.409-4.231-.129-.35-.619-.452-1.253.093-1.81.531-.543 1.212-.612 1.79-.17.791.605 1.492 1.329 2.348 2.109zM280.863 258.965l-2.793 3.34c-1.187-1.04-1.345-2.234-.53-3.28.823-1.057 1.683-1.122 3.323-.06zM213.491 304.169c.867 1.958.251 3.403-1.417 3.81-.769.188-1.463.058-1.836-.693-.375-.754-.11-1.442.587-1.843.815-.469 1.698-.819 2.666-1.274zM187.596 236.197c-.25 1.324-.41 2.567-.735 3.766-.267.988-.972 1.648-2.061 1.716-.986.062-1.873-.543-2.247-1.724-.816-2.574-.785-5.18.067-7.744.323-.971 1.006-1.616 2.123-1.622 1.008-.006 1.73.435 2.078 1.634.379 1.304.532 2.673.775 3.974zM172.879 230.596c1.505-.047 2.623 1.204 2.678 2.997.049 1.576-.95 2.721-2.426 2.781-1.521.062-2.594-1.066-2.638-2.773-.045-1.773.896-2.958 2.386-3.005zM225.042 158.92h6.91v7.847H225.1c-.145-2.52-.054-5.066-.058-7.847zM211.315 166.83h-6.581c-.414-1.332-.473-5.988-.093-7.913h6.675l-.001 7.913zM221.522 166.807h-6.519c-.473-1.232-.561-5.738-.132-7.868h6.652l-.001 7.868zM241.696 158.882v7.864h-6.863v-7.869a74.108 74.108 0 0 1 6.863.005zM211.254 186.429h-6.736v-7.821h6.629c.374 1.259.449 5.397.107 7.821zM225.127 186.227v-7.681a93.448 93.448 0 0 1 6.819.007v7.684c-1.584.419-5.237.419-6.819-.01zM234.853 178.593h6.796v7.82h-6.796v-7.82zM234.919 168.811h6.693v7.772h-6.6c-.387-1.268-.454-5.492-.093-7.772zM204.463 176.697v-7.796h6.872v7.704c-2.253.213-4.482.056-6.872.092zM214.744 176.551v-7.707h6.802v7.707h-6.802zM225.038 168.815h6.88v7.763h-6.827c-.136-2.515-.035-5.043-.053-7.763zM221.577 178.609v7.845c-2.258.17-4.478.083-6.828.037v-7.882h6.828zM124.3 166.763v-7.873c2.24-.14 4.471-.102 6.83-.012v7.885h-6.83zM141.616 166.816h-6.695c-.421-1.21-.512-5.661-.142-7.884h6.796c.014 1.338.033 2.629.04 3.921.006 1.249.001 2.498.001 3.963zM151.228 159.055v7.711h-6.911c-.013-1.282-.031-2.572-.037-3.861-.006-1.255-.001-2.509-.001-3.725 1.352-.451 4.916-.514 6.949-.125zM144.405 178.558h6.567c.448 1.292.506 6.042.083 7.882-.49.033-1.016.093-1.543.097-1.661.013-3.322.005-5.108.005l.001-7.984zM124.327 168.846h6.801v7.537c-1.206.395-4.542.476-6.801.138v-7.675zM144.385 168.851h6.831v7.709h-6.831v-7.709zM134.672 176.57v-7.683h6.844v7.683h-6.844zM124.289 186.31v-7.688h6.864v7.537c-1.251.465-4.634.553-6.864.151zM141.497 178.622v7.806h-6.794v-7.806h6.794zM120.788 166.798h-6.644v-7.827h6.496c.412 1.248.507 5.313.148 7.827zM114.126 178.58h6.809c.082 2.606.055 5.133.003 7.815-2.331.254-4.505.149-6.813.082l.001-7.897zM120.741 176.611h-6.631V168.9h6.544c.408 1.286.475 5.647.087 7.711zM187.748 139.699v8.886h-5.365c-.379-1.25-.46-6.519-.099-8.886h5.464zM171.804 159.976h-5.65a170.55 170.55 0 0 1 .008-8.758h5.642v8.758zM179.752 151.231v8.701h-5.49c-.424-1.389-.162-2.825-.206-4.234-.044-1.434-.01-2.87-.01-4.468l5.706.001zM174.289 139.778h5.411v8.735c-1.754.403-3.527.151-5.26.172-.475-1.308-.569-6.746-.151-8.907zM187.715 159.965h-5.512v-8.818c1.777-.145 3.58-.096 5.512-.017v8.835zM166.145 139.788h5.425c.419 1.232.5 6.684.108 8.803h-5.534c-.061-2.901-.047-5.746.001-8.803z" fill="none" stroke="#fff" stroke-width="1.5" stroke-miterlimit="10"/></svg>